<svg width="30" height="30" viewBox="0 0 30 30" fill="none" xmlns="http://www.w3.org/2000/svg">
<circle cx="15" cy="15" r="14" fill="white" stroke="#BB2831" stroke-width="2"/>
<path d="M21.1245 17.9458V19.8652C21.1252 20.0434 21.0887 20.2198 21.0173 20.3831C20.9459 20.5463 20.8413 20.6929 20.71 20.8133C20.5787 20.9338 20.4236 21.0255 20.2548 21.0826C20.0861 21.1397 19.9072 21.1609 19.7297 21.1448C17.761 20.9309 15.8698 20.2582 14.2083 19.1807C12.6624 18.1984 11.3518 16.8877 10.3695 15.3419C9.28824 13.6728 8.61535 11.7724 8.40534 9.79484C8.38935 9.61792 8.41038 9.4396 8.46708 9.27125C8.52378 9.1029 8.61492 8.94819 8.73468 8.81699C8.85445 8.68579 9.00023 8.58096 9.16272 8.50919C9.32522 8.43741 9.50089 8.40025 9.67853 8.40009H11.5979C11.9084 8.39703 12.2094 8.50698 12.4449 8.70945C12.6803 8.91192 12.8341 9.19308 12.8775 9.50054C12.9585 10.1148 13.1088 10.7179 13.3254 11.2984C13.4115 11.5274 13.4301 11.7762 13.3791 12.0155C13.328 12.2548 13.2095 12.4744 13.0375 12.6483L12.2249 13.4609C13.1357 15.0626 14.4619 16.3889 16.0637 17.2997L16.8762 16.4871C17.0502 16.3151 17.2698 16.1965 17.5091 16.1455C17.7483 16.0945 17.9972 16.1131 18.2262 16.1992C18.8067 16.4158 19.4098 16.5661 20.024 16.6471C20.3348 16.6909 20.6187 16.8475 20.8216 17.0869C21.0245 17.3264 21.1323 17.6321 21.1245 17.9458Z" fill="#BB2831"/>
</svg>
