<svg width="328" height="55" viewBox="0 0 328 55" fill="none" xmlns="http://www.w3.org/2000/svg">
<g filter="url(#filter0_d_226_772)">
<path fill-rule="evenodd" clip-rule="evenodd" d="M291.856 11.1221C293.63 10.4076 295.526 10.0457 297.438 10.0566H305.804C316.382 10.0566 325.131 15.4919 325.131 23.7048V25.1415C325.133 26.0042 325.012 26.8628 324.773 27.6915C325.344 28.9468 325.637 30.3108 325.633 31.6902V33.1029C325.633 41.6151 316.609 46.8709 305.804 46.8709H297.438C295.526 46.8818 293.63 46.5199 291.856 45.8054C289.1 46.6333 286.235 47.037 283.358 47.0026C280.787 47.0132 278.226 46.679 275.744 46.0089C274.135 46.5528 272.446 46.8239 270.748 46.811H266.074C264.69 46.8177 263.312 46.6405 261.975 46.2843C260.677 46.6339 259.338 46.8111 257.994 46.811H254.026C253.019 46.8105 252.014 46.7103 251.026 46.5117C250.038 46.7103 249.033 46.8105 248.026 46.811H244.01C242.558 46.8148 241.113 46.6092 239.719 46.2005C238.289 46.6099 236.808 46.8154 235.321 46.811H231.556C230.548 46.8089 229.543 46.7087 228.555 46.5117C227.568 46.7103 226.563 46.8105 225.555 46.811H221.551C220.112 46.8128 218.679 46.6113 217.296 46.2124C215.917 46.6113 214.489 46.8128 213.053 46.811H209.097C207.263 46.8179 205.443 46.485 203.73 45.8293C201.267 46.4915 198.727 46.8216 196.176 46.811H188.252C187.244 46.8105 186.239 46.7103 185.252 46.5117C184.264 46.7103 183.259 46.8105 182.252 46.811H178.236C176.449 46.8184 174.675 46.5021 173 45.8772H172.929C170.942 46.4888 168.875 46.7956 166.797 46.7871H164.406C162.895 46.7908 161.392 46.5647 159.948 46.1167C155.114 47.309 150.059 47.2637 145.247 45.985C143.637 46.5289 141.949 46.8 140.251 46.7871H135.577C134.197 46.7941 132.823 46.6169 131.489 46.2603C130.187 46.6086 128.845 46.7857 127.497 46.7871H123.589C122.581 46.786 121.577 46.6857 120.589 46.4878C119.601 46.6863 118.596 46.7866 117.589 46.7871H94.2574C91.3816 46.8455 88.5586 46.0089 86.1775 44.3927C83.7974 46.0111 80.9737 46.8479 78.0976 46.7871H74.1055C72.6154 46.7918 71.1329 46.5739 69.707 46.1406C68.2489 46.5764 66.7345 46.7942 65.2129 46.7871H60.8622C60.0442 46.8164 59.2251 46.7844 58.4119 46.6913C57.6209 46.813 56.8217 46.8731 56.0214 46.8709H52.0173C50.7642 46.8745 49.5155 46.7217 48.3001 46.416C46.818 50.0076 42.3239 52.6175 37.1245 52.6175H33.0129C30.3917 52.6457 27.8141 51.9453 25.5665 50.5942C23.3139 51.944 20.7329 52.6441 18.1081 52.6175H14.1041C7.64972 52.6175 2.39062 48.6548 2.39062 43.7941V34.9347C2.39062 31.9536 4.36278 29.3197 7.37481 27.7514C8.22344 24.1598 8.46248 17.623 8.57006 15.2285C8.57006 15.1567 8.57006 15.0968 8.57006 15.025C8.54608 14.6942 8.54608 14.3621 8.57006 14.0313L8.74934 10.8946C8.98839 6.10577 14.1519 2.39441 20.4508 2.39441H34.6623C40.6386 2.39441 45.5152 5.74661 46.2682 10.0566H56.0095C58.0309 10.0478 60.0325 10.4553 61.8901 11.2538C64.603 10.4356 67.4237 10.032 70.2568 10.0566H78.1335C81.0096 9.9958 83.8333 10.8326 86.2134 12.451C88.5945 10.8348 91.4175 9.99818 94.2932 10.0566H98.3093C99.2556 10.0572 100.2 10.1454 101.13 10.32C102.06 10.1463 103.005 10.0582 103.951 10.0566H107.931C108.877 10.0572 109.822 10.1454 110.752 10.32C111.674 10.1478 112.61 10.0596 113.549 10.0566H117.565C118.572 10.0571 119.577 10.1573 120.565 10.3559C121.553 10.158 122.557 10.0577 123.565 10.0566H127.533C128.89 10.0544 130.241 10.2356 131.549 10.5953C132.889 10.2283 134.272 10.0471 135.661 10.0566H140.286C141.985 10.0437 143.673 10.3148 145.283 10.8587C147.765 10.1895 150.325 9.85531 152.896 9.86502C156.395 9.83368 159.868 10.4716 163.128 11.7446C165.249 10.612 167.62 10.0315 170.024 10.0566H182.228C183.235 10.0571 184.24 10.1573 185.228 10.3559C186.215 10.1573 187.22 10.0571 188.228 10.0566H192.244C195.251 10.0202 198.188 10.9658 200.611 12.7503C203.032 10.9643 205.97 10.0185 208.977 10.0566H212.934C214.369 10.0548 215.798 10.2563 217.177 10.6552C218.56 10.2563 219.992 10.0548 221.432 10.0566H225.436C226.443 10.0571 227.448 10.1573 228.436 10.3559C229.424 10.1589 230.429 10.0587 231.436 10.0566H235.404C236.869 10.0559 238.326 10.2656 239.731 10.6791C241.167 10.2581 242.657 10.0484 244.153 10.0566H247.907C248.914 10.0571 249.919 10.1573 250.907 10.3559C251.894 10.1573 252.899 10.0571 253.907 10.0566H257.875C259.232 10.0544 260.583 10.2356 261.891 10.5953C263.23 10.2283 264.614 10.0471 266.003 10.0566H270.628C272.327 10.0437 274.015 10.3148 275.624 10.8587C278.107 10.1887 280.667 9.85445 283.238 9.86502C286.158 9.83777 289.065 10.2618 291.856 11.1221V11.1221Z" fill="white"/>
<path d="M37.8178 46.4878H33.5507V38.6341H15.622V46.4878H11.355V34.6114H13.2315C15.0528 32.1007 16.5732 29.3844 17.7615 26.5183C19.7167 21.5921 21.1587 16.4768 22.0644 11.2538H34.7579V34.6114H37.8178V46.4878ZM30.0845 34.6114V15.2285H25.4231C24.8184 19.013 23.862 22.7325 22.5664 26.3387C21.5772 29.2927 20.1726 32.0904 18.395 34.6473L30.0845 34.6114Z" fill="#264C96"/>
<path d="M59.0572 38.6341H54.5033V22.2801H49.5669C49.4886 24.9053 49.1726 27.518 48.6227 30.086C48.2665 32.0659 47.5275 33.957 46.4473 35.653C45.7369 36.7827 44.7101 37.6779 43.4951 38.227C42.2151 38.6846 40.8614 38.8998 39.5029 38.8616V34.7192C40.0801 34.7375 40.6545 34.6328 41.1882 34.4119C41.7219 34.1911 42.2027 33.8592 42.5986 33.4382C43.7008 31.9614 44.4195 30.2336 44.6903 28.4099C45.2964 25.5978 45.5851 22.7264 45.5509 19.8498V18.6526H59.0572V38.6341Z" fill="#264C96"/>
<path d="M80.476 38.634H75.8862V31.0437H74.691C71.1849 31.0437 69.2207 32.5522 68.7984 35.5692C68.7726 36.0501 68.6482 36.5205 68.4329 36.9512C68.2177 37.3818 67.9162 37.7635 67.5473 38.0723C67.1784 38.3812 66.75 38.6107 66.2887 38.7464C65.8274 38.8822 65.3431 38.9214 64.866 38.8615C64.2266 38.8653 63.5876 38.8253 62.9536 38.7418V34.9107C63.2202 34.9705 63.4935 34.9946 63.7664 34.9825C64.3162 34.9825 64.6748 34.6234 64.8302 33.8811C65.0266 32.8466 65.5162 31.8907 66.2405 31.1275C67.0025 30.3471 67.9671 29.7955 69.0255 29.5352C65.7903 28.9366 64.1728 27.1967 64.1728 24.3154C64.1582 23.5135 64.3198 22.7182 64.6461 21.9858C64.9725 21.2534 65.4556 20.6018 66.0613 20.0772C67.3123 18.9519 69.3721 18.3892 72.2407 18.3892C73.926 18.3892 76.6631 18.4849 80.476 18.6885V38.634ZM75.8862 27.5359V22.0407C74.8822 21.9449 73.675 21.897 72.2407 21.897C71.335 21.8191 70.4335 22.0887 69.7187 22.6512C69.4533 22.9 69.2445 23.203 69.1063 23.5397C68.9681 23.8764 68.9039 24.2389 68.9179 24.6027C68.9126 25.0117 69.008 25.4157 69.1956 25.7791C69.3832 26.1424 69.6573 26.4538 69.9936 26.6859C70.8477 27.2792 71.8715 27.5776 72.91 27.5359H75.8862Z" fill="#264C96"/>
<path d="M122.406 38.6341H97.0425V18.6047H101.596V34.839H107.477V18.6047H111.995V34.839H117.971V18.6047H122.489L122.406 38.6341Z" fill="#264C96"/>
<path d="M144.422 38.7418C143.704 38.8268 142.982 38.8668 142.259 38.8615C141.754 38.9057 141.246 38.8466 140.766 38.6877C140.285 38.5289 139.841 38.2737 139.462 37.9377C139.083 37.6016 138.776 37.1918 138.56 36.7332C138.345 36.2745 138.224 35.7766 138.207 35.2699C137.697 31.766 135.705 30.0141 132.23 30.0141H132.111V38.634H127.485V18.6047H132.111V26.1351H132.338C135.725 26.1351 137.637 24.6945 138.075 21.8132C138.094 21.3241 138.213 20.844 138.423 20.4024C138.634 19.9608 138.933 19.567 139.301 19.2452C139.669 18.9234 140.099 18.6804 140.565 18.5312C141.03 18.3819 141.521 18.3295 142.008 18.3772C142.366 18.3772 143.059 18.3772 144.123 18.4849V22.2801C143.835 22.2259 143.543 22.1978 143.251 22.1963C142.749 22.1963 142.402 22.5794 142.223 23.3935C141.959 24.6097 141.327 25.7149 140.414 26.5589C139.501 27.4028 138.35 27.9446 137.119 28.1105C138.506 28.4162 139.769 29.1359 140.74 30.1746C141.71 31.2133 142.344 32.5223 142.557 33.929C142.701 34.6713 143.036 35.0304 143.549 35.0304C143.854 35.0453 144.159 35.0211 144.458 34.9586L144.422 38.7418Z" fill="#264C96"/>
<path d="M147.111 28.5535C146.999 25.825 147.941 23.1581 149.741 21.1068C151.609 19.2768 154.113 18.2442 156.726 18.2263C159.339 18.2084 161.856 19.2068 163.749 21.0111C165.519 23.111 166.422 25.8092 166.271 28.5535C166.459 31.3464 165.555 34.103 163.749 36.2396C162.845 37.1666 161.757 37.8921 160.554 38.3687C159.351 38.8453 158.061 39.0621 156.769 39.0052C155.459 39.0775 154.149 38.8621 152.931 38.3741C151.713 37.886 150.616 37.1371 149.717 36.1798C147.914 34.0606 146.983 31.3346 147.111 28.5535V28.5535ZM151.964 28.5535C151.964 32.9832 153.554 35.1981 156.745 35.1981C157.407 35.2143 158.064 35.0704 158.659 34.7787C159.254 34.4869 159.77 34.0558 160.163 33.522C161.129 32.0621 161.587 30.3243 161.466 28.5775C161.466 24.2276 159.873 22.0566 156.685 22.0646C156.015 22.0432 155.349 22.187 154.747 22.4834C154.144 22.7798 153.624 23.2198 153.231 23.7647C152.302 25.1815 151.858 26.862 151.964 28.5535V28.5535Z" fill="#264C96"/>
<path d="M187.989 38.6341H183.435V22.2801H178.511C178.426 24.9049 178.11 27.517 177.566 30.086C177.205 32.0644 176.466 33.9545 175.391 35.653C174.677 36.784 173.646 37.6793 172.427 38.227C171.147 38.6865 169.793 38.9018 168.435 38.8616V34.7192C169.014 34.7377 169.59 34.6331 170.125 34.4123C170.661 34.1915 171.144 33.8595 171.542 33.4382C172.644 31.9614 173.363 30.2336 173.634 28.4099C174.24 25.5978 174.529 22.7264 174.494 19.8498V18.6526H187.989V38.6341Z" fill="#264C96"/>
<path d="M197.67 25.7641C198.889 25.6683 200.252 25.6204 201.758 25.6204C203.864 25.4962 205.947 26.1099 207.651 27.3564C208.372 27.9581 208.941 28.7215 209.313 29.5846C209.684 30.4478 209.848 31.3865 209.79 32.3248C209.828 33.1912 209.675 34.0553 209.343 34.856C209.01 35.6567 208.506 36.3743 207.866 36.958C206.587 38.1552 204.507 38.682 201.65 38.682H193.033V18.6047H197.67V25.7641ZM197.67 34.9467C198.913 34.9946 200.109 35.0185 201.256 35.0185C203.802 35.0185 205.081 34.0488 205.081 32.0854C205.087 31.7008 205.012 31.3192 204.859 30.9662C204.706 30.6132 204.481 30.2968 204.196 30.0381C203.368 29.4131 202.337 29.1187 201.304 29.212C200.611 29.212 199.403 29.212 197.718 29.3198L197.67 34.9467Z" fill="#264C96"/>
<path d="M231.316 38.6341H226.655V30.0501H218.36V38.6341H213.687V18.6047H218.36V26.1711H226.655V18.6047H231.316V38.6341Z" fill="#264C96"/>
<path d="M254.313 38.6341H249.64V26.5303L237.627 39.101H236.36V18.6047H241.034V30.7086L253.046 18.1378H254.313V38.6341Z" fill="#264C96"/>
<path d="M276.33 38.7418C275.612 38.8268 274.889 38.8668 274.166 38.8615C273.662 38.9057 273.154 38.8466 272.673 38.6877C272.193 38.5289 271.749 38.2737 271.37 37.9377C270.991 37.6016 270.684 37.1918 270.468 36.7332C270.252 36.2745 270.132 35.7766 270.114 35.2699C269.596 31.766 267.604 30.0141 264.138 30.0141H264.019V38.634H259.369V18.6047H263.995V26.1351H264.222C267.6 26.1351 269.513 24.6945 269.959 21.8132C269.978 21.3241 270.096 20.844 270.307 20.4024C270.518 19.9608 270.817 19.567 271.185 19.2452C271.553 18.9234 271.983 18.6804 272.449 18.5312C272.914 18.3819 273.405 18.3295 273.891 18.3772C274.242 18.3772 274.947 18.4131 276.007 18.4849V22.2801C275.715 22.2253 275.419 22.1972 275.123 22.1963C274.632 22.1963 274.286 22.5794 274.095 23.3935C273.841 24.6126 273.214 25.7221 272.302 26.5676C271.389 27.413 270.236 27.9524 269.003 28.1105C270.39 28.4162 271.652 29.1359 272.623 30.1746C273.594 31.2133 274.228 32.5223 274.441 33.929C274.585 34.6713 274.919 35.0304 275.421 35.0304C275.73 35.0448 276.039 35.0206 276.342 34.9586L276.33 38.7418Z" fill="#264C96"/>
<path d="M279.019 28.5536C278.908 25.8274 279.845 23.1624 281.636 21.1069C283.508 19.2654 286.022 18.2258 288.645 18.2079C291.268 18.19 293.796 19.1953 295.692 21.0111C297.463 23.1111 298.365 25.8092 298.214 28.5536C298.376 31.3595 297.437 34.1176 295.597 36.2397C294.693 37.1667 293.604 37.8922 292.401 38.3687C291.199 38.8453 289.909 39.0622 288.617 39.0052C287.305 39.0761 285.994 38.8601 284.774 38.3721C283.554 37.8842 282.455 37.1361 281.553 36.1798C279.78 34.0476 278.875 31.3244 279.019 28.5536V28.5536ZM283.871 28.5536C283.871 32.9832 285.465 35.1981 288.652 35.1981C289.313 35.2124 289.967 35.0676 290.56 34.7759C291.152 34.4842 291.667 34.0542 292.059 33.522C293.024 32.0622 293.482 30.3243 293.362 28.5775C293.362 24.2276 291.768 22.0567 288.581 22.0647C287.91 22.0432 287.244 22.187 286.642 22.4834C286.04 22.7798 285.519 23.2198 285.126 23.7647C284.202 25.183 283.762 26.8633 283.871 28.5536V28.5536Z" fill="#264C96"/>
<path d="M314.948 27.9549C317.554 28.8887 318.856 30.5728 318.856 33.0071C318.879 33.8009 318.711 34.5885 318.365 35.3033C318.02 36.018 317.508 36.639 316.872 37.1136C315.122 38.2521 313.049 38.7861 310.968 38.634H302.027V18.6406C305.768 18.461 308.685 18.3772 310.753 18.3772C312.653 18.2564 314.538 18.7885 316.095 19.8857C316.708 20.362 317.195 20.9803 317.516 21.6874C317.837 22.3944 317.981 23.1689 317.936 23.9442C317.935 24.8063 317.659 25.6454 317.147 26.3387C316.586 27.0799 315.822 27.6415 314.948 27.9549V27.9549ZM306.581 26.4225C307.071 26.4225 308.362 26.4225 310.49 26.4225C312.617 26.4225 313.549 25.6443 313.549 24.028C313.56 23.7165 313.498 23.4068 313.367 23.124C313.236 22.8411 313.041 22.5931 312.797 22.3998C312.185 21.9725 311.449 21.7619 310.705 21.8012C309.063 21.8012 307.689 21.8491 306.581 21.9449V26.4225ZM306.581 34.9825C308.195 35.0544 309.557 35.0783 310.669 35.0783C313.059 35.0783 314.314 34.1924 314.314 32.4205C314.337 32.0263 314.25 31.6336 314.065 31.2853C313.879 30.9369 313.602 30.6463 313.263 30.4451C312.478 29.9828 311.578 29.7544 310.669 29.7866H306.581V34.9825Z" fill="#264C96"/>
</g>
<defs>
<filter id="filter0_d_226_772" x="-0.609375" y="-0.605591" width="329.243" height="56.2239" filterUnits="userSpaceOnUse" color-interpolation-filters="sRGB">
<feFlood flood-opacity="0" result="BackgroundImageFix"/>
<feColorMatrix in="SourceAlpha" type="matrix" values="0 0 0 0 0 0 0 0 0 0 0 0 0 0 0 0 0 0 127 0" result="hardAlpha"/>
<feOffset/>
<feGaussianBlur stdDeviation="1.5"/>
<feComposite in2="hardAlpha" operator="out"/>
<feColorMatrix type="matrix" values="0 0 0 0 0 0 0 0 0 0 0 0 0 0 0 0 0 0 0.15 0"/>
<feBlend mode="normal" in2="BackgroundImageFix" result="effect1_dropShadow_226_772"/>
<feBlend mode="normal" in="SourceGraphic" in2="effect1_dropShadow_226_772" result="shape"/>
</filter>
</defs>
</svg>
