<svg width="214" height="84" viewBox="0 0 214 84" fill="none" xmlns="http://www.w3.org/2000/svg">
<g clip-path="url(#clip0_217_727)">
<g filter="url(#filter0_d_217_727)">
<path fill-rule="evenodd" clip-rule="evenodd" d="M184.224 71.5665C183.026 73.827 181.219 75.7024 179.009 76.978C176.8 78.2536 174.277 78.8777 171.731 78.7788C169.185 78.6799 166.718 77.862 164.613 76.4189C162.508 74.9757 160.85 72.9657 159.829 70.619C159.14 70.4211 158.423 70.1948 157.789 69.9261C156.894 69.5726 156.02 69.1665 155.173 68.7099C154.216 69.304 153.191 69.7788 152.12 70.1241C151.176 70.4397 150.206 70.6716 149.222 70.817C147.481 71.1189 145.701 71.1189 143.96 70.817C142.976 70.6716 142.006 70.4397 141.062 70.1241C139.972 69.7573 138.932 69.2537 137.967 68.6251C137.122 69.092 136.248 69.503 135.35 69.8554C132.452 70.9799 129.369 71.5459 126.262 71.5241C125.076 71.5407 123.891 71.465 122.717 71.2979C121.929 71.1847 121.155 71.0574 120.367 70.9019C119.861 70.8029 119.326 70.7322 118.806 70.6756C118.262 70.6403 117.717 70.6403 117.174 70.6756H117.033L115.964 70.7746C113.167 71.0518 110.362 70.3418 108.029 68.7665C107.196 69.2183 106.336 69.6197 105.455 69.9685C102.553 71.0737 99.4697 71.6206 96.3665 71.5807C95.1793 71.5785 93.994 71.484 92.8213 71.2979C92.0334 71.1847 91.2597 71.0574 90.4718 70.9019C89.9654 70.8029 89.4308 70.7322 88.9102 70.6756C88.3668 70.6403 87.8217 70.6403 87.2783 70.6756H87.1376L86.0684 70.7746C84.2941 70.9429 82.5045 70.7259 80.8209 70.1382C79.1326 70.7266 77.3382 70.9436 75.5593 70.7746L74.5041 70.6756H74.3634C73.82 70.6403 73.2749 70.6403 72.7315 70.6756C72.211 70.6756 71.6764 70.8029 71.1699 70.9019C70.4102 71.0433 69.6505 71.1847 68.8908 71.2979C67.6945 71.484 66.4858 71.5785 65.2752 71.5807H65.1205C64.0434 74.6275 62.0549 77.2648 59.4279 79.1308C56.8008 80.9968 53.6638 82.0001 50.447 82.0032C48.4924 81.9998 46.5554 81.6305 44.7352 80.9143C43.5614 81.3022 42.3401 81.5258 41.1056 81.5789H40.4725C40.1771 81.5789 39.8676 81.5789 39.5581 81.5789C36.5848 81.3753 33.761 80.1928 31.5232 78.2143C29.2854 76.2358 27.7583 73.5715 27.1778 70.6332H26.6291L25.5599 70.7322C23.838 70.9087 22.0985 70.7077 20.4612 70.1432C18.824 69.5788 17.328 68.6641 16.0763 67.4624C14.8247 66.2607 13.8471 64.8004 13.211 63.1823C12.5749 61.5642 12.2955 59.8266 12.3918 58.0894C12.3918 57.1702 12.3918 56.2652 12.5185 55.3459C12.6451 54.4267 12.6169 53.7338 12.6591 52.9418C12.7014 52.1499 12.7436 51.4004 12.7717 50.6367C12.7998 49.8731 12.7717 48.9963 12.7717 48.1902C12.7717 47.3841 12.7717 46.3801 12.7717 45.475C12.7717 44.5699 12.7717 43.3113 12.6873 42.2224C12.6873 40.893 12.5888 39.5496 12.5607 38.2202C12.5607 37.3717 12.5607 36.5091 12.5607 35.6606C9.1011 34.4807 6.16483 32.1149 4.26625 28.9774C2.36768 25.84 1.62788 22.1311 2.17645 18.5004C2.72502 14.8698 4.52698 11.5489 7.26665 9.11959C10.0063 6.69028 13.509 5.30745 17.1611 5.21335C18.8381 3.7899 20.834 2.79734 22.9772 2.32107C25.1203 1.84481 27.3465 1.8991 29.4642 2.47927C31.5819 3.05945 33.5276 4.14813 35.134 5.65166C36.7403 7.15518 37.9592 9.02851 38.6858 11.1105C39.6453 10.9226 40.6205 10.8279 41.598 10.8276C43.4824 10.8276 45.3484 11.2007 47.0894 11.9256C48.8304 12.6506 50.4123 13.7131 51.7448 15.0525C53.0774 16.392 54.1344 17.9821 54.8555 19.7322C55.5766 21.4823 55.9478 23.358 55.9478 25.2522C57.7469 25.2904 59.5301 25.6003 61.2376 26.1715C62.7009 26.6519 64.0679 27.3892 65.2752 28.3493C66.4825 27.3892 67.8495 26.6519 69.3129 26.1715C70.2565 25.8512 71.2263 25.6146 72.211 25.4644L73.0973 25.3512C73.5879 23.0362 74.7884 20.9341 76.53 19.341C77.7578 18.1991 79.19 17.3017 80.7505 16.6965C81.771 16.3146 82.8266 16.0351 83.9019 15.8621C85.6712 15.5604 87.4785 15.5604 89.2479 15.8621L90.0639 16.0177C92.1485 14.7838 94.5109 14.1025 96.9293 14.0378C99.2842 12.6762 102.03 12.1612 104.715 12.5776C107.4 12.994 109.864 14.317 111.701 16.3288C112.381 16.133 113.071 15.9771 113.769 15.8621C115.539 15.5604 117.346 15.5604 119.115 15.8621C120.19 16.0351 121.246 16.3146 122.267 16.6965C123.827 17.3017 125.259 18.1991 126.487 19.341C128.117 20.8624 129.271 22.828 129.807 24.9977C130.818 25.1363 131.819 25.3394 132.804 25.6058C133.293 23.0893 134.606 20.8095 136.532 19.1289C137.844 17.9742 139.376 17.0986 141.034 16.5551C141.978 16.2348 142.947 15.9982 143.932 15.848C145.675 15.5651 147.451 15.5651 149.194 15.848C150.178 15.9982 151.148 16.2348 152.092 16.5551C153.748 17.1018 155.279 17.977 156.594 19.1289C158.519 20.8024 159.827 23.0791 160.308 25.5916C162.458 25.0364 164.671 24.7608 166.892 24.7714C168.006 24.7665 169.12 24.8326 170.226 24.9694C168.795 21.8885 168.491 18.3986 169.369 15.1147C170.246 11.8308 172.248 8.96352 175.023 7.01811C177.797 5.0727 181.166 4.17395 184.535 4.4802C187.903 4.78645 191.057 6.27806 193.439 8.69223C195.69 8.25677 198.009 8.32671 200.23 8.89705C202.451 9.46738 204.52 10.524 206.287 11.9914C208.055 13.4588 209.478 15.3006 210.455 17.3853C211.432 19.4699 211.939 21.7458 211.939 24.0502C211.943 27.1305 211.037 30.1427 209.336 32.705C211.143 35.0265 212.03 37.9385 211.826 40.8789C211.702 42.7955 211.18 44.6647 210.293 46.3659C211.402 48.7358 211.965 51.3269 211.939 53.9459C211.956 56.7304 211.299 59.4773 210.026 61.9501C208.745 64.4153 206.862 66.5127 204.553 68.0452C202.592 69.3516 200.422 70.3084 198.138 70.8736C195.987 71.3956 193.781 71.6521 191.568 71.6373C189.416 71.6548 187.272 71.3789 185.195 70.817C184.886 71.086 184.562 71.3363 184.224 71.5665Z" fill="white"/>
</g>
<path fill-rule="evenodd" clip-rule="evenodd" d="M22.7039 27.7412C22.7039 27.5938 22.7352 27.4482 22.7959 27.314C22.8566 27.1799 22.9451 27.0603 23.0556 26.9634C23.3089 26.7325 23.6054 26.5546 23.9278 26.4402C24.2818 26.3045 24.6499 26.2096 25.0252 26.1573C25.7035 26.0253 26.4008 26.0253 27.0792 26.1573C27.4541 26.2113 27.822 26.3061 28.1765 26.4402C28.4947 26.5546 28.7867 26.7326 29.0347 26.9634C29.147 27.0596 29.2377 27.1787 29.3007 27.3128C29.3638 27.4469 29.3978 27.5929 29.4004 27.7412C29.4004 29.4099 29.4004 30.8807 29.3301 32.1817C29.2598 33.4828 29.2457 34.4868 29.2035 35.1939C29.1613 35.901 29.513 36.0566 30.1179 35.9576L31.4122 35.7454L32.9598 35.505C33.4944 35.4202 34.0008 35.3495 34.5214 35.2929C34.9641 35.2294 35.4107 35.1964 35.8579 35.1939C37.6637 35.17 39.4579 35.4866 41.1476 36.1273C42.6737 36.7099 44.0595 37.6111 45.2138 38.7714C46.3681 39.9317 47.2646 41.3248 47.8442 42.8588C49.0837 46.2893 49.0837 50.0487 47.8442 53.4792C47.2563 55.0089 46.3606 56.4003 45.2134 57.5662C44.0561 58.7226 42.6713 59.6234 41.1476 60.2107C39.4606 60.8628 37.6651 61.1845 35.8579 61.1582C35.1849 61.1558 34.5128 61.1086 33.8461 61.0168L31.8624 60.6774C31.1731 60.5501 30.4556 60.437 29.6115 60.338C28.6771 60.2357 27.7376 60.1885 26.7978 60.1966C26.3476 60.1966 25.9818 60.1966 25.6723 60.1966L24.6453 60.2956C24.393 60.3385 24.1343 60.3211 23.8899 60.245C23.6455 60.1688 23.4224 60.036 23.2385 59.8572C23.0593 59.672 22.9233 59.4489 22.8406 59.2043C22.7579 58.9597 22.7304 58.6996 22.7601 58.443C22.7601 57.5379 22.8305 56.6894 22.8867 55.8975C22.943 55.1055 22.9852 54.2853 23.0274 53.4651C23.0696 52.6449 23.1118 51.8105 23.154 50.9337C23.1963 50.0569 23.154 49.1236 23.154 48.1054C23.154 47.0871 23.154 46.3518 23.154 45.277C23.154 44.2022 23.0696 43.0143 23.0696 41.7981C23.0696 40.5819 22.9852 39.2809 22.9571 37.9516C22.929 36.6222 22.8867 35.3353 22.8305 34.105C22.7742 32.8747 22.7601 31.7009 22.7461 30.5978C22.732 29.4948 22.7461 28.5331 22.7461 27.7695L22.7039 27.7412ZM29.1613 48.1761C29.1613 50.8347 29.7381 52.7014 30.8776 53.8328C32.2697 54.9939 34.0533 55.5712 35.8579 55.4449C37.6624 55.5712 39.446 54.9939 40.8381 53.8328C41.9777 52.758 42.5545 50.8913 42.5545 48.1761C42.5545 45.4608 41.9777 43.6507 40.8381 42.5194C39.446 41.3583 37.6624 40.7809 35.8579 40.9072C34.0533 40.7809 32.2697 41.3583 30.8776 42.5194C29.7381 43.5941 29.1613 45.4608 29.1613 48.1761ZM55.7085 35.6747C56.0623 35.6789 56.4152 35.712 56.7636 35.7737C57.17 35.8311 57.5702 35.9258 57.9594 36.0566C58.3102 36.1642 58.6356 36.3422 58.9161 36.5798C59.0332 36.6727 59.128 36.7908 59.1938 36.9254C59.2595 37.06 59.2944 37.2077 59.2959 37.3576C59.2959 38.2485 59.2959 39.097 59.2959 39.8748C59.2959 40.6526 59.2959 41.4729 59.2115 42.3072C59.1271 43.1416 59.2115 44.0184 59.2115 44.9517C59.2115 45.8851 59.2115 46.9599 59.2115 48.1761C59.2115 50.8347 59.7039 52.7203 60.6887 53.8328C61.3105 54.3878 62.0369 54.8115 62.8247 55.0787C63.6126 55.3459 64.4459 55.4512 65.275 55.3884C66.1333 55.4653 66.9982 55.3618 67.8145 55.0842C68.6308 54.8066 69.3806 54.3612 70.0161 53.7762C71.0009 52.7014 71.4933 50.8159 71.4933 48.1195C71.4933 46.9033 71.4933 45.8285 71.4933 44.8952C71.4933 43.9618 71.4933 43.085 71.4089 42.2507C71.3245 41.4163 71.4089 40.6102 71.4089 39.8183C71.4089 39.0263 71.4089 38.192 71.4089 37.301C71.4104 37.1511 71.4453 37.0034 71.5111 36.8688C71.5768 36.7342 71.6717 36.6162 71.7887 36.5232C72.0692 36.2857 72.3946 36.1077 72.7454 36C73.1346 35.8692 73.5349 35.7746 73.9412 35.7172C74.6385 35.5851 75.3542 35.5851 76.0515 35.7172C76.4578 35.7746 76.8581 35.8692 77.2473 36C77.5981 36.1077 77.9235 36.2857 78.204 36.5232C78.321 36.6162 78.4159 36.7342 78.4816 36.8688C78.5474 37.0034 78.5823 37.1511 78.5838 37.301C78.5838 38.192 78.5838 39.0405 78.5135 39.8183C78.4431 40.5961 78.4009 41.4163 78.3446 42.2507C78.2884 43.085 78.218 43.9618 78.1758 44.8952C78.1336 45.8285 77.9367 46.9599 77.9367 48.1761C77.9367 49.3923 77.9367 50.1418 77.9367 51.0044C77.9367 51.8671 78.007 52.7156 78.0633 53.5358C78.1195 54.356 78.1617 55.1621 78.204 55.9682C78.2462 56.7743 78.2884 57.6086 78.3306 58.5137C78.3565 58.7701 78.3271 59.0291 78.2446 59.2731C78.1621 59.5172 78.0282 59.7405 77.8522 59.9279C77.6683 60.1067 77.4452 60.2395 77.2008 60.3157C76.9564 60.3918 76.6977 60.4092 76.4454 60.3663L75.4184 60.2673C75.1089 60.2673 74.7431 60.2673 74.2929 60.2673C73.3531 60.2588 72.4135 60.306 71.4792 60.4087C70.6633 60.5077 69.9176 60.6208 69.2283 60.7481L67.2587 61.0875C66.5874 61.1808 65.9105 61.228 65.2328 61.2289C63.444 61.2542 61.667 60.9325 59.9994 60.2814C58.4624 59.6946 57.0662 58.7877 55.9024 57.6203C54.7386 56.4529 53.8335 55.0513 53.2465 53.5075C52.6102 51.8283 52.2952 50.0435 52.318 48.2468C52.318 47.0306 52.318 45.9558 52.318 45.0224C52.318 44.0891 52.318 43.2123 52.2336 42.3779C52.1492 41.5436 52.2336 40.7375 52.2336 39.9456C52.2336 39.1536 52.2336 38.3192 52.2336 37.4283C52.2351 37.2784 52.27 37.1307 52.3357 36.9961C52.4015 36.8615 52.4963 36.7434 52.6134 36.6505C52.8939 36.4129 53.2193 36.2349 53.5701 36.1273C53.9593 35.9965 54.3595 35.9018 54.7659 35.8444C55.1143 35.7827 55.4672 35.7496 55.821 35.7454L55.7085 35.6747ZM83.2123 27.7412C83.2123 27.5938 83.2437 27.4482 83.3044 27.314C83.3651 27.1799 83.4536 27.0603 83.564 26.9634C83.8173 26.7325 84.1139 26.5546 84.4363 26.4402C84.7902 26.3045 85.1584 26.2096 85.5336 26.1573C86.212 26.0253 86.9093 26.0253 87.5876 26.1573C87.9625 26.2113 88.3305 26.3061 88.685 26.4402C89.0032 26.5546 89.2951 26.7326 89.5431 26.9634C89.6555 27.0596 89.7462 27.1787 89.8092 27.3128C89.8723 27.4469 89.9063 27.5929 89.9089 27.7412C89.9089 29.4099 89.9089 30.8807 89.9089 32.1817C89.9089 33.4828 89.8245 34.4868 89.7823 35.1939C89.7401 35.901 90.0918 36.0566 90.6968 35.9576C91.0485 35.9576 91.4705 35.8162 91.9911 35.7454L93.5386 35.505C94.0732 35.4202 94.5797 35.3495 95.1002 35.2929C95.5429 35.2294 95.9895 35.1964 96.4367 35.1939C98.2425 35.17 100.037 35.4866 101.726 36.1273C103.252 36.7099 104.638 37.6111 105.793 38.7714C106.947 39.9317 107.843 41.3248 108.423 42.8588C109.662 46.2893 109.662 50.0487 108.423 53.4792C107.835 55.0089 106.939 56.4003 105.792 57.5662C104.635 58.7226 103.25 59.6234 101.726 60.2107C100.039 60.8628 98.2439 61.1845 96.4367 61.1582C95.7637 61.1558 95.0917 61.1086 94.4249 61.0168L92.4412 60.6774C91.7519 60.5501 91.0344 60.437 90.1903 60.338C89.2559 60.2357 88.3164 60.1885 87.3766 60.1966C86.9264 60.1966 86.5606 60.1966 86.2511 60.1966L85.2241 60.2956C84.9719 60.3385 84.7131 60.3211 84.4687 60.245C84.2243 60.1688 84.0012 60.036 83.8173 59.8572C83.6381 59.672 83.5022 59.4489 83.4194 59.2043C83.3367 58.9597 83.3092 58.6996 83.3389 58.443C83.3389 57.5379 83.339 56.6894 83.4656 55.8975C83.5922 55.1055 83.564 54.2853 83.6063 53.4651C83.6485 52.6449 83.6907 51.8105 83.7329 50.9337C83.7751 50.0569 83.7329 49.1236 83.7329 48.1054C83.7329 47.0871 83.7329 46.3518 83.7329 45.277C83.7329 44.2022 83.564 43.0143 83.564 41.7981C83.564 40.5819 83.4796 39.2809 83.4515 37.9516C83.4234 36.6222 83.3812 35.3353 83.3249 34.105C83.2686 32.8747 83.3249 31.7009 83.2405 30.5978C83.1561 29.4948 83.2405 28.5331 83.2405 27.7695L83.2123 27.7412ZM89.6698 48.1761C89.6698 50.8347 90.2466 52.7014 91.3861 53.8328C92.7782 54.9939 94.5618 55.5712 96.3663 55.4449C98.1709 55.5712 99.9545 54.9939 101.347 53.8328C102.486 52.758 103.063 50.8913 103.063 48.1761C103.063 45.4608 102.486 43.6507 101.347 42.5194C99.9545 41.3583 98.1709 40.7809 96.3663 40.9072C94.5618 40.7809 92.7782 41.3583 91.3861 42.5194C90.2466 43.5941 89.6698 45.4608 89.6698 48.1761ZM113.108 27.7412C113.108 27.5938 113.139 27.4482 113.2 27.314C113.261 27.1799 113.349 27.0603 113.46 26.9634C113.713 26.7325 114.009 26.5546 114.332 26.4402C114.686 26.3045 115.054 26.2096 115.429 26.1573C116.107 26.0253 116.805 26.0253 117.483 26.1573C117.858 26.2113 118.226 26.3061 118.58 26.4402C118.899 26.5546 119.191 26.7326 119.439 26.9634C119.551 27.0596 119.642 27.1787 119.705 27.3128C119.768 27.4469 119.802 27.5929 119.804 27.7412C119.804 29.4099 119.804 30.8807 119.734 32.1817C119.664 33.4828 119.65 34.4868 119.607 35.1939C119.565 35.901 119.917 36.0566 120.522 35.9576C120.874 35.9576 121.296 35.8162 121.816 35.7454L123.364 35.505C123.898 35.4202 124.405 35.3495 124.925 35.2929C125.368 35.2294 125.815 35.1964 126.262 35.1939C128.068 35.17 129.862 35.4866 131.552 36.1273C133.078 36.7099 134.463 37.6111 135.618 38.7714C136.772 39.9317 137.669 41.3248 138.248 42.8588C139.488 46.2893 139.488 50.0487 138.248 53.4792C137.66 55.0089 136.765 56.4003 135.617 57.5662C134.46 58.7226 133.075 59.6234 131.552 60.2107C129.865 60.8628 128.069 61.1845 126.262 61.1582C125.589 61.1558 124.917 61.1086 124.25 61.0168L122.266 60.6774C121.577 60.5501 120.86 60.437 120.015 60.338C119.081 60.2357 118.142 60.1885 117.202 60.1966C116.752 60.1966 116.386 60.1966 116.076 60.1966L115.049 60.2956C114.797 60.3385 114.538 60.3211 114.294 60.245C114.049 60.1688 113.826 60.036 113.642 59.8572C113.47 59.6913 113.333 59.4914 113.241 59.2699C113.149 59.0485 113.104 58.8102 113.108 58.5703C113.108 57.6652 113.108 56.8167 113.234 56.0247C113.361 55.2328 113.333 54.4126 113.375 53.5924C113.417 52.7721 113.46 51.9378 113.502 51.061C113.544 50.1842 113.502 49.2508 113.502 48.2326C113.502 47.2144 113.502 46.479 113.502 45.4043C113.502 44.3295 113.502 43.1274 113.403 41.8971C113.305 40.6668 113.319 39.3799 113.291 38.0506C113.263 36.7212 113.291 35.4343 113.164 34.204C113.037 32.9737 113.108 31.7009 113.108 30.5978C113.108 29.4948 113.108 28.5331 113.108 27.7695V27.7412ZM119.565 48.1761C119.565 50.8347 120.142 52.7014 121.282 53.8328C122.733 54.8803 124.475 55.4437 126.262 55.4437C128.049 55.4437 129.791 54.8803 131.242 53.8328C132.382 52.758 132.958 50.8913 132.958 48.1761C132.958 45.4608 132.382 43.6507 131.242 42.5194C129.791 41.4718 128.049 40.9084 126.262 40.9084C124.475 40.9084 122.733 41.4718 121.282 42.5194C120.142 43.5941 119.565 45.4608 119.565 48.1761ZM146.591 26.0442C146.945 26.0483 147.297 26.0814 147.646 26.1432C148.052 26.2006 148.453 26.2953 148.842 26.426C149.192 26.5337 149.518 26.7117 149.798 26.9493C149.915 27.0422 150.01 27.1603 150.076 27.2949C150.142 27.4294 150.177 27.5771 150.178 27.7271C150.178 28.618 150.178 29.7211 150.178 31.0221C150.178 32.3231 150.178 33.6807 150.094 35.1091C150.009 36.5374 150.094 37.9374 150.023 39.3516C149.953 40.7658 150.023 42.1092 150.023 43.3254C150.023 44.5416 150.023 45.8285 150.023 47.271C150.023 48.7134 150.023 50.0993 150.094 51.5135C150.164 52.9277 150.094 54.3419 150.178 55.6005C150.263 56.8591 150.178 57.9905 150.178 58.8955C150.175 59.0431 150.139 59.188 150.073 59.32C150.007 59.452 149.914 59.5678 149.798 59.6592C149.515 59.8964 149.191 60.0787 148.842 60.1966C148.451 60.3207 148.051 60.4152 147.646 60.4794C146.949 60.6115 146.233 60.6115 145.536 60.4794C145.131 60.4152 144.731 60.3207 144.34 60.1966C143.991 60.0787 143.666 59.8964 143.383 59.6592C143.268 59.5678 143.174 59.452 143.108 59.32C143.043 59.188 143.007 59.0431 143.003 58.8955C143.003 57.9905 143.003 56.9015 143.003 55.6005C143.003 54.2995 143.003 52.9418 143.003 51.5135C143.003 50.0852 143.003 48.6852 143.088 47.271C143.172 45.8568 143.088 44.5133 143.088 43.3254C143.088 42.1375 143.088 40.7799 143.088 39.3516C143.088 37.9233 143.088 36.5232 143.003 35.1091C142.919 33.6949 143.003 32.2807 143.003 31.0221C143.003 29.7635 143.003 28.618 143.003 27.7271C143.005 27.5771 143.04 27.4294 143.105 27.2949C143.171 27.1603 143.266 27.0422 143.383 26.9493C143.664 26.7117 143.989 26.5337 144.34 26.426C144.729 26.2953 145.129 26.2006 145.536 26.1432C145.884 26.0814 146.237 26.0483 146.591 26.0442ZM166.92 35.1798C168.468 35.1655 170.009 35.3848 171.492 35.8303C172.809 36.2155 174.058 36.8073 175.192 37.5839C176.202 38.2664 177.059 39.1525 177.71 40.186C178.327 41.1986 178.648 42.3646 178.639 43.5517C178.686 44.8728 178.365 46.1809 177.71 47.3276C177.08 48.3356 176.216 49.1751 175.192 49.7741C174.044 50.4271 172.792 50.8768 171.492 51.1034C169.982 51.3657 168.452 51.4935 166.92 51.4852C165.837 51.49 164.755 51.4096 163.684 51.2448C162.713 51.0751 161.939 50.9196 161.377 50.764C161.259 50.7224 161.134 50.7109 161.011 50.7307C160.888 50.7504 160.772 50.8008 160.673 50.8771C160.601 50.9583 160.552 51.058 160.532 51.1653C160.512 51.2726 160.522 51.3833 160.561 51.4852C160.68 51.9209 160.855 52.3392 161.081 52.7297C161.366 53.2142 161.738 53.641 162.179 53.9883C162.746 54.4094 163.378 54.7343 164.05 54.95C164.962 55.2228 165.912 55.3516 166.863 55.3318C167.643 55.345 168.422 55.2691 169.185 55.1055C169.771 54.9856 170.342 54.8006 170.887 54.554C171.328 54.3493 171.744 54.093 172.125 53.7903C172.459 53.5206 172.779 53.2326 173.082 52.9277C173.3 52.7052 173.561 52.5302 173.849 52.4134C174.137 52.2966 174.445 52.2406 174.756 52.2489C175.143 52.2522 175.526 52.334 175.881 52.4893C176.244 52.6489 176.577 52.8689 176.866 53.1398C177.154 53.4201 177.397 53.7447 177.584 54.1015C177.772 54.4837 177.869 54.9052 177.865 55.3318C177.831 56.0324 177.58 56.7048 177.147 57.2551C176.574 58.0119 175.857 58.6464 175.037 59.1218C173.969 59.7615 172.812 60.2381 171.605 60.536C170.054 60.9245 168.461 61.1099 166.863 61.0875C165.033 61.1176 163.214 60.796 161.503 60.14C159.974 59.5577 158.587 58.6509 157.438 57.4813C156.312 56.2985 155.436 54.8986 154.863 53.3661C153.644 49.9611 153.644 46.2354 154.863 42.8305C155.433 41.3006 156.309 39.9047 157.438 38.7294C158.583 37.5515 159.971 36.6393 161.503 36.0566C163.217 35.4123 165.034 35.0958 166.863 35.1232L166.92 35.1798ZM161.377 45.5174C161.982 45.6447 162.784 45.8002 163.811 45.9699C164.838 46.1454 165.878 46.2353 166.92 46.2386C168.263 46.2773 169.599 46.0366 170.845 45.5316C171.9 45.079 172.42 44.4285 172.42 43.5941C172.42 42.7598 171.9 42.1234 170.789 41.6001C169.541 41.1003 168.205 40.8645 166.863 40.9072C165.914 40.8834 164.966 40.9977 164.05 41.2466C163.376 41.4196 162.735 41.7014 162.15 42.081C161.711 42.3654 161.333 42.7357 161.039 43.1699C160.799 43.504 160.618 43.8771 160.504 44.2729C160.473 44.3976 160.468 44.5274 160.49 44.6541C160.512 44.7808 160.56 44.9014 160.631 45.0083C160.7 45.1277 160.793 45.231 160.905 45.3114C161.016 45.3919 161.144 45.4476 161.278 45.475L161.377 45.5174ZM184.379 52.9701C184.768 53.0141 185.143 53.1445 185.476 53.352C185.954 53.6065 186.531 53.8752 187.206 54.1722C187.882 54.4692 188.613 54.7237 189.443 54.9924C190.282 55.2487 191.155 55.3774 192.032 55.3742C192.91 55.4246 193.79 55.2996 194.621 55.0065C194.842 54.9279 195.034 54.7824 195.17 54.59C195.306 54.3977 195.379 54.1678 195.38 53.9318C195.367 53.6101 195.263 53.2988 195.081 53.0336C194.9 52.7684 194.647 52.5602 194.353 52.4327C193.533 51.9989 192.676 51.6392 191.793 51.358L188.444 50.2266C187.275 49.8343 186.152 49.3126 185.096 48.671C184.083 48.0314 183.211 47.189 182.536 46.1962C181.818 45.0723 181.46 43.7548 181.509 42.4204C181.483 41.3165 181.729 40.2233 182.226 39.2385C182.717 38.3346 183.423 37.567 184.28 37.0041C185.258 36.3807 186.333 35.9266 187.46 35.6606C188.801 35.3409 190.176 35.189 191.554 35.2081C192.797 35.1874 194.038 35.3397 195.24 35.6606C196.214 35.9265 197.157 36.2962 198.053 36.7637C198.735 37.139 199.389 37.5644 200.009 38.0364C200.408 38.3476 200.784 38.688 201.134 39.0546C201.282 39.2087 201.392 39.3943 201.458 39.5976C201.524 39.801 201.543 40.0166 201.514 40.2284C201.478 40.7252 201.334 41.208 201.092 41.6426C200.834 42.1045 200.49 42.5125 200.079 42.8446C199.708 43.1686 199.234 43.3491 198.743 43.3537C198.36 43.3007 197.991 43.1708 197.659 42.9719C197.092 42.669 196.51 42.3953 195.915 42.1517C195.186 41.8347 194.439 41.5608 193.678 41.3314C192.839 41.0761 191.966 40.9475 191.089 40.9496C190.212 40.8962 189.332 41.0164 188.501 41.3032C188.278 41.3844 188.086 41.5325 187.95 41.7273C187.814 41.9221 187.741 42.1542 187.741 42.3921C187.76 42.7017 187.867 42.9994 188.049 43.25C188.231 43.5005 188.48 43.6936 188.768 43.8063C189.592 44.236 190.448 44.6001 191.329 44.8952L194.677 46.0407C195.85 46.4437 196.973 46.9798 198.025 47.6387C199.042 48.2741 199.914 49.1173 200.586 50.1135C201.306 51.2359 201.665 52.5545 201.613 53.8893C201.635 54.9794 201.389 56.0581 200.895 57.0288C200.414 57.9469 199.707 58.7258 198.841 59.2915C197.871 59.9453 196.795 60.4239 195.662 60.7057C194.321 61.0287 192.946 61.1854 191.568 61.1724C190.323 61.1895 189.083 61.0324 187.882 60.7057C186.903 60.4521 185.959 60.0818 185.068 59.6026C184.382 59.2375 183.736 58.8015 183.141 58.3016C182.62 57.8773 182.24 57.5521 181.987 57.3258C181.838 57.1702 181.726 56.9822 181.66 56.7762C181.594 56.5703 181.576 56.3519 181.607 56.1379C181.643 55.6411 181.787 55.1583 182.029 54.7237C182.287 54.2612 182.631 53.853 183.042 53.5217C183.412 53.1916 183.885 53.0016 184.379 52.9843V52.9701Z" fill="#00C0FF"/>
<path fill-rule="evenodd" clip-rule="evenodd" d="M50.4469 61.1582C51.4742 61.1582 52.4785 61.4646 53.3325 62.0387C54.1865 62.6127 54.8518 63.4285 55.2443 64.3829C55.6368 65.3372 55.7388 66.3872 55.5374 67.3998C55.3359 68.4124 54.8401 69.3422 54.1127 70.0714C53.3853 70.8007 52.4589 71.2966 51.451 71.4963C50.4431 71.6961 49.3988 71.5907 48.4505 71.1936C47.5022 70.7964 46.6924 70.1254 46.1237 69.2654C45.5549 68.4054 45.2529 67.3951 45.2556 66.3624C45.2556 65.6778 45.39 64.9999 45.6511 64.3676C45.9121 63.7352 46.2947 63.1609 46.777 62.6775C47.2592 62.194 47.8316 61.811 48.4613 61.5503C49.0911 61.2896 49.7658 61.1564 50.4469 61.1582Z" fill="#00C0FF"/>
<path fill-rule="evenodd" clip-rule="evenodd" d="M34.4229 26.0442C34.7367 26.047 35.0427 26.1431 35.3022 26.3204C35.5618 26.4976 35.7634 26.7482 35.8815 27.0404C35.9997 27.3326 36.0292 27.6535 35.9663 27.9625C35.9034 28.2716 35.7509 28.555 35.528 28.7771C35.3051 28.9992 35.0218 29.15 34.7138 29.2105C34.4058 29.271 34.0869 29.2385 33.7973 29.1172C33.5076 28.9958 33.2601 28.791 33.0861 28.5285C32.912 28.2661 32.8191 27.9577 32.8191 27.6422C32.8228 27.2171 32.9934 26.8107 33.2938 26.5114C33.5942 26.2121 34 26.0442 34.4229 26.0442Z" fill="#00C0FF"/>
<path d="M40.4724 71.1848C42.2361 71.1848 43.6659 69.7475 43.6659 67.9746C43.6659 66.2017 42.2361 64.7644 40.4724 64.7644C38.7086 64.7644 37.2788 66.2017 37.2788 67.9746C37.2788 69.7475 38.7086 71.1848 40.4724 71.1848Z" fill="#264C96"/>
<path fill-rule="evenodd" clip-rule="evenodd" d="M17.5267 15.6359C18.5541 15.6359 19.5583 15.9423 20.4123 16.5163C21.2663 17.0903 21.9317 17.9062 22.3242 18.8605C22.7167 19.8149 22.8186 20.8648 22.6172 21.8774C22.4157 22.8901 21.9199 23.8199 21.1925 24.5491C20.4651 25.2783 19.5388 25.7742 18.5308 25.974C17.5229 26.1737 16.4787 26.0683 15.5304 25.6712C14.582 25.2741 13.7722 24.603 13.2035 23.743C12.6348 22.883 12.3327 21.8727 12.3355 20.8401C12.3355 20.1554 12.4698 19.4776 12.7309 18.8452C12.992 18.2129 13.3746 17.6386 13.8568 17.1551C14.339 16.6717 14.9114 16.2887 15.5412 16.028C16.1709 15.7673 16.8457 15.634 17.5267 15.6359Z" fill="#0A70A6"/>
<path fill-rule="evenodd" clip-rule="evenodd" d="M25.8832 12.4257C26.5149 12.4257 27.1323 12.6139 27.6575 12.9667C28.1827 13.3194 28.592 13.8208 28.8337 14.4074C29.0754 14.9939 29.1386 15.6394 29.0154 16.2621C28.8922 16.8848 28.588 17.4568 28.1414 17.9058C27.6948 18.3547 27.1258 18.6605 26.5063 18.7843C25.8868 18.9082 25.2447 18.8446 24.6611 18.6017C24.0776 18.3587 23.5788 17.9472 23.2279 17.4193C22.877 16.8914 22.6897 16.2708 22.6897 15.6358C22.6897 14.7844 23.0262 13.9679 23.6251 13.3659C24.224 12.7639 25.0363 12.4257 25.8832 12.4257Z" fill="#80E2FF"/>
<path d="M40.4724 71.1848C42.2361 71.1848 43.6659 69.7475 43.6659 67.9746C43.6659 66.2017 42.2361 64.7644 40.4724 64.7644C38.7086 64.7644 37.2788 66.2017 37.2788 67.9746C37.2788 69.7475 38.7086 71.1848 40.4724 71.1848Z" fill="#0A70A6"/>
<path fill-rule="evenodd" clip-rule="evenodd" d="M41.5977 21.2501C42.3846 21.2529 43.1529 21.49 43.8058 21.9315C44.4587 22.3729 44.9668 22.999 45.266 23.7305C45.5652 24.462 45.642 25.2663 45.4868 26.0417C45.3316 26.8171 44.9513 27.5289 44.394 28.0872C43.8366 28.6455 43.1272 29.0252 42.3552 29.1785C41.5833 29.3318 40.7835 29.2517 40.0568 28.9484C39.3302 28.6451 38.7092 28.1321 38.2723 27.4743C37.8355 26.8164 37.6023 26.0432 37.6023 25.2523C37.6023 24.7255 37.7057 24.2039 37.9067 23.7175C38.1077 23.231 38.4022 22.7891 38.7734 22.4173C39.1446 22.0455 39.5851 21.751 40.0698 21.5507C40.5545 21.3504 41.0737 21.2483 41.5977 21.2501Z" fill="#0A70A6"/>
<path fill-rule="evenodd" clip-rule="evenodd" d="M97.3231 24.4462C98.1133 24.4462 98.8858 24.6817 99.5428 25.123C100.2 25.5643 100.712 26.1916 101.014 26.9255C101.317 27.6593 101.396 28.4669 101.242 29.246C101.088 30.025 100.707 30.7407 100.148 31.3024C99.5895 31.864 98.8776 32.2466 98.1025 32.4015C97.3275 32.5565 96.5242 32.477 95.7941 32.173C95.064 31.869 94.44 31.3542 94.001 30.6937C93.562 30.0333 93.3276 29.2568 93.3276 28.4624C93.3276 27.935 93.431 27.4127 93.6318 26.9255C93.8326 26.4382 94.1269 25.9954 94.4979 25.6225C94.8689 25.2496 95.3093 24.9537 95.7941 24.7519C96.2788 24.5501 96.7984 24.4462 97.3231 24.4462Z" fill="#80E2FF"/>
<path fill-rule="evenodd" clip-rule="evenodd" d="M102.894 22.8481C103.212 22.8453 103.524 22.9378 103.79 23.1139C104.056 23.2899 104.264 23.5416 104.387 23.8367C104.51 24.1319 104.543 24.4572 104.482 24.7713C104.42 25.0853 104.267 25.3738 104.042 25.6002C103.817 25.8265 103.53 25.9803 103.217 26.0421C102.905 26.1038 102.581 26.0707 102.288 25.9469C101.994 25.8232 101.744 25.6143 101.569 25.3471C101.394 25.0798 101.301 24.7661 101.304 24.4461C101.308 24.0234 101.477 23.6191 101.774 23.3202C102.071 23.0213 102.474 22.8518 102.894 22.8481Z" fill="#0A70A6"/>
<path fill-rule="evenodd" clip-rule="evenodd" d="M196.407 18.8319C197.435 18.8291 198.44 19.1328 199.295 19.7045C200.151 20.2762 200.818 21.0902 201.213 22.0435C201.608 22.9967 201.713 24.0464 201.514 25.0596C201.316 26.0728 200.822 27.0039 200.097 27.7351C199.372 28.4663 198.447 28.9647 197.439 29.1672C196.432 29.3697 195.387 29.2672 194.438 28.8727C193.488 28.4781 192.677 27.8093 192.106 26.9508C191.535 26.0924 191.23 25.0829 191.23 24.0502C191.23 22.6687 191.775 21.3435 192.745 20.3653C193.716 19.3871 195.033 18.8357 196.407 18.8319Z" fill="#80E2FF"/>
<path fill-rule="evenodd" clip-rule="evenodd" d="M185.645 26.0442C186.277 26.0442 186.895 26.2328 187.42 26.5862C187.946 26.9396 188.355 27.4418 188.597 28.0292C188.838 28.6166 188.9 29.2628 188.776 29.8859C188.652 30.509 188.346 31.0809 187.898 31.5293C187.45 31.9777 186.88 32.2823 186.259 32.4046C185.639 32.5268 184.996 32.4613 184.413 32.2161C183.83 31.971 183.332 31.5573 182.983 31.0275C182.633 30.4978 182.448 29.8757 182.451 29.2402C182.455 28.3913 182.793 27.5784 183.392 26.9794C183.99 26.3805 184.8 26.0442 185.645 26.0442Z" fill="#00C0FF"/>
<path fill-rule="evenodd" clip-rule="evenodd" d="M183.253 14.8298C184.042 14.8354 184.812 15.0757 185.465 15.5204C186.118 15.9651 186.626 16.5943 186.924 17.3286C187.222 18.063 187.297 18.8696 187.14 19.6468C186.983 20.424 186.6 21.137 186.04 21.6958C185.48 22.2547 184.768 22.6344 183.994 22.7871C183.22 22.9398 182.418 22.8586 181.69 22.5538C180.961 22.249 180.339 21.7343 179.901 21.0744C179.463 20.4146 179.23 19.6392 179.229 18.8461C179.229 18.3163 179.334 17.7917 179.536 17.3026C179.739 16.8134 180.036 16.3694 180.41 15.9961C180.784 15.6228 181.227 15.3275 181.715 15.1274C182.203 14.9272 182.726 14.8261 183.253 14.8298Z" fill="#0A70A6"/>
<path d="M172.252 68.3706C174.015 68.3706 175.445 66.9333 175.445 65.1604C175.445 63.3874 174.015 61.9502 172.252 61.9502C170.488 61.9502 169.058 63.3874 169.058 65.1604C169.058 66.9333 170.488 68.3706 172.252 68.3706Z" fill="#00C0FF"/>
<path fill-rule="evenodd" clip-rule="evenodd" d="M177.049 60.3522C177.367 60.3522 177.677 60.4471 177.941 60.6249C178.205 60.8027 178.411 61.0553 178.532 61.3507C178.653 61.6461 178.684 61.971 178.621 62.2841C178.558 62.5972 178.404 62.8844 178.178 63.1093C177.952 63.3342 177.665 63.4866 177.353 63.5472C177.041 63.6078 176.718 63.5739 176.425 63.4497C176.133 63.3255 175.883 63.1167 175.709 62.8497C175.534 62.5827 175.442 62.2696 175.445 61.9502C175.449 61.5251 175.619 61.1186 175.92 60.8194C176.22 60.5201 176.626 60.3522 177.049 60.3522Z" fill="#80E2FF"/>
<path d="M106.088 35.6748C107.852 35.6748 109.281 34.2375 109.281 32.4646C109.281 30.6916 107.852 29.2544 106.088 29.2544C104.324 29.2544 102.894 30.6916 102.894 32.4646C102.894 34.2375 104.324 35.6748 106.088 35.6748Z" fill="#00C0FF"/>
</g>
<defs>
<filter id="filter0_d_217_727" x="-2" y="-2" width="217.94" height="88.0032" filterUnits="userSpaceOnUse" color-interpolation-filters="sRGB">
<feFlood flood-opacity="0" result="BackgroundImageFix"/>
<feColorMatrix in="SourceAlpha" type="matrix" values="0 0 0 0 0 0 0 0 0 0 0 0 0 0 0 0 0 0 127 0" result="hardAlpha"/>
<feOffset/>
<feGaussianBlur stdDeviation="2"/>
<feComposite in2="hardAlpha" operator="out"/>
<feColorMatrix type="matrix" values="0 0 0 0 0 0 0 0 0 0 0 0 0 0 0 0 0 0 0.25 0"/>
<feBlend mode="normal" in2="BackgroundImageFix" result="effect1_dropShadow_217_727"/>
<feBlend mode="normal" in="SourceGraphic" in2="effect1_dropShadow_217_727" result="shape"/>
</filter>
<clipPath id="clip0_217_727">
<rect width="214" height="84" fill="white"/>
</clipPath>
</defs>
</svg>
