<svg width="126" height="74" viewBox="0 0 126 74" fill="none" xmlns="http://www.w3.org/2000/svg">
<g clip-path="url(#clip0_226_762)">
<g filter="url(#filter0_d_226_762)">
<path fill-rule="evenodd" clip-rule="evenodd" d="M96.9021 19.2007C100.121 17.0847 103.911 16.0062 107.762 16.1107C110.164 16.0177 112.552 16.5162 114.716 17.5624C116.88 18.6086 118.753 20.1705 120.172 22.1107C122.553 25.6091 123.768 29.7707 123.642 34.0007L123.702 50.5207C123.673 53.0301 123.071 55.4996 121.942 57.7407C120.715 60.2835 118.881 62.485 116.602 64.1507C113.907 66.1146 110.647 67.1499 107.312 67.1007C102.512 67.1007 97.7421 65.8407 94.5121 62.1007C92.288 59.5626 90.8405 56.4385 90.3421 53.1007C90.3421 52.9607 90.3421 52.8107 90.2721 52.6507C87.9638 53.7188 85.4453 54.2553 82.9021 54.2207C80.4089 54.258 77.9366 53.7601 75.6521 52.7607V53.0007C75.6763 54.2483 75.4407 55.4873 74.9604 56.639C74.4801 57.7907 73.7655 58.83 72.8621 59.6907C71.2483 61.2435 69.1016 62.1201 66.8621 62.1407H66.7021L63.5221 62.0007H63.0721C61.6361 61.9961 60.2212 61.6535 58.9421 61.0007C58.6821 60.8707 58.4321 60.7307 58.1821 60.5807C56.8873 61.4732 55.3799 62.0079 53.8121 62.1307C53.1011 62.2023 52.3867 62.2357 51.6721 62.2307H51.3721L50.8221 62.2907C50.3655 62.3621 49.9042 62.3989 49.4421 62.4007C49.4323 63.2788 49.3318 64.1534 49.1421 65.0107C48.7473 66.7436 47.7812 68.2933 46.3991 69.4106C45.017 70.5279 43.2992 71.1478 41.5221 71.1707H38.8121H38.6621C38.2721 71.1707 37.8721 71.1707 37.4721 71.1707C37.2889 71.1808 37.1053 71.1808 36.9221 71.1707C32.1921 71.1707 28.9221 67.3407 28.9221 62.7407V60.6307L28.8021 60.6907C26.4798 61.9652 23.8809 62.6518 21.2321 62.6907H11.8321C9.4913 62.773 7.19431 62.0415 5.33212 60.6207C4.26497 59.7472 3.41058 58.6422 2.83364 57.3896C2.25671 56.137 1.97236 54.7695 2.00212 53.3907V19.0007C1.98037 17.8798 2.18512 16.7661 2.60408 15.7262C3.02304 14.6863 3.64761 13.7417 4.44035 12.949C5.23309 12.1562 6.1777 11.5317 7.21758 11.1127C8.25747 10.6937 9.37122 10.489 10.4921 10.5107H16.5621C18.8135 10.6007 21.0461 10.96 23.2121 11.5807C26.1405 12.3785 28.8445 13.8434 31.1121 15.8607C32.7935 17.3394 34.082 19.2119 34.8621 21.3107C35.5588 21.1142 36.2783 21.01 37.0021 21.0007C37.5041 21.0025 38.0053 21.0393 38.5021 21.1107H38.5721C39.2821 21.1107 40.0321 21.1607 40.7721 21.2107V20.7007C40.7312 18.6097 41.469 16.5782 42.8421 15.0007C43.6343 14.1223 44.6058 13.4241 45.6908 12.9531C46.7759 12.4822 47.9494 12.2495 49.1321 12.2707H49.2621L52.5621 12.3307H52.8921H53.3421H53.5021C54.7569 12.4416 55.9754 12.8092 57.0821 13.4107C57.3021 13.5307 57.5321 13.6707 57.7421 13.8107C59.1923 12.8001 60.9054 12.2337 62.6721 12.1807H62.8621C64.0221 12.1807 65.2821 12.1207 66.4321 11.9907H66.8821C67.4127 10.7138 68.1269 9.52122 69.0021 8.45074C70.8605 6.06235 73.3465 4.23773 76.1821 3.18074C78.0781 2.45586 80.0831 2.0569 82.1121 2.00074C84.9238 1.9733 87.6897 2.71318 90.1121 4.14074C92.1577 5.32971 93.9161 6.95493 95.2621 8.90074C95.5321 9.30074 95.8121 9.73074 96.1021 10.1307C97.2946 11.5934 97.9447 13.4235 97.9421 15.3107C97.9466 16.6767 97.5877 18.0193 96.9021 19.2007V19.2007Z" fill="white"/>
<path fill-rule="evenodd" clip-rule="evenodd" d="M42.0722 61.9008V51.3708C42.0722 38.6441 42.1122 31.3274 42.1922 29.4208C42.1922 28.9308 41.9822 28.6908 41.5722 28.6908L38.5722 28.5208C38.2378 28.5274 37.9034 28.5073 37.5722 28.4608C37.3766 28.4332 37.1796 28.4165 36.9822 28.4108C36.6422 28.4108 36.4522 28.5308 36.3922 28.7708C36.3015 29.4336 36.2547 30.1017 36.2522 30.7708V62.8508C36.2522 63.5608 36.4722 63.9108 36.9222 63.9108H37.2022C37.4622 63.9108 37.9522 63.9108 38.6622 63.9108H41.4022C41.539 63.9167 41.6729 63.8704 41.7769 63.7813C41.8809 63.6922 41.9471 63.5669 41.9622 63.4308C42.0568 62.9266 42.0937 62.4133 42.0722 61.9008V61.9008Z" fill="#33CC33"/>
<path fill-rule="evenodd" clip-rule="evenodd" d="M29.1121 50.6408C30.1798 48.932 30.7158 46.9446 30.6521 44.9308V42.2408C30.6246 40.9794 30.2991 39.7424 29.7021 38.6308C29.0537 37.3637 28.1676 36.2332 27.0921 35.3008C26.0649 34.3725 24.856 33.6676 23.5421 33.2308C24.3065 33.054 25.0231 32.7127 25.6421 32.2308C26.4625 31.6248 27.1443 30.8509 27.6421 29.9608C28.1998 28.9411 28.4791 27.7926 28.4521 26.6308C28.4979 25.6506 28.3261 24.6725 27.9492 23.7665C27.5723 22.8606 26.9996 22.0493 26.2721 21.3908C24.8372 20.1177 23.1252 19.1966 21.2721 18.7008C19.6758 18.2414 18.0314 17.9695 16.3721 17.8908H10.4921C10.3413 17.8715 10.1881 17.8868 10.0441 17.9356C9.90016 17.9844 9.7692 18.0654 9.66122 18.1724C9.55324 18.2794 9.47108 18.4097 9.42099 18.5532C9.3709 18.6967 9.35419 18.8498 9.37215 19.0008V53.3908C9.34564 53.6684 9.38224 53.9484 9.47921 54.2099C9.57619 54.4714 9.73102 54.7076 9.93215 54.9008C10.4999 55.2529 11.1668 55.4108 11.8321 55.3508H21.1921C22.6473 55.2981 24.0679 54.8932 25.3321 54.1708C26.8756 53.3399 28.1778 52.1238 29.1121 50.6408ZM23.6221 47.1708C23.0445 47.9634 22.2871 48.6077 21.4121 49.0508C20.6873 49.439 19.8838 49.6578 19.0621 49.6908L16.1521 49.7508C15.8121 49.7508 15.6221 49.7508 15.5921 49.6908C15.3885 47.8014 15.3317 45.899 15.4221 44.0008C15.3325 41.7761 15.3893 39.548 15.5921 37.3308C15.8423 37.2428 16.1074 37.2054 16.3721 37.2208C16.8621 37.2208 17.3721 37.2208 17.7721 37.2808C18.1721 37.3408 18.5921 37.3308 18.8921 37.3308C20.3762 37.2977 21.8134 37.8511 22.8921 38.8708C23.4102 39.3434 23.8231 39.9198 24.1039 40.5624C24.3847 41.205 24.5272 41.8995 24.5221 42.6008V44.2008C24.5589 45.277 24.2312 46.3341 23.5921 47.2008L23.6221 47.1708ZM17.8521 30.6208C17.2038 30.8196 16.5302 30.924 15.8521 30.9308H15.7921C15.5321 30.9308 15.4021 30.7408 15.4021 30.3708V29.0808C15.4721 26.2408 15.4921 24.3608 15.4521 23.4308C15.4399 23.2809 15.4825 23.1316 15.5721 23.0108C15.6234 22.9302 15.7013 22.8701 15.7921 22.8408H15.9621C16.6088 22.7827 17.2606 22.83 17.8921 22.9808C19.123 23.1308 20.3122 23.5216 21.3921 24.1308C21.8846 24.3739 22.2975 24.7523 22.5826 25.2216C22.8678 25.6909 23.0133 26.2318 23.0021 26.7808C22.9993 27.3024 22.8508 27.8128 22.5734 28.2545C22.296 28.6962 21.9007 29.0517 21.4321 29.2808C20.3188 29.9175 19.1099 30.37 17.8521 30.6208V30.6208Z" fill="#FF6600"/>
<path fill-rule="evenodd" clip-rule="evenodd" d="M68.2822 53.0507C68.2422 50.444 68.2422 43.464 68.2822 32.1107C68.2822 28.4807 68.2222 24.5507 68.2222 20.2907C68.2392 20.1557 68.2284 20.0187 68.1906 19.888C68.1527 19.7573 68.0886 19.6357 68.0022 19.5307C67.7859 19.392 67.5245 19.3418 67.2722 19.3907C66.5622 19.4707 65.2022 19.5407 63.1822 19.6207C62.5822 19.6207 62.1822 19.7407 62.1222 19.8707C62.0622 20.0007 61.9722 20.3607 62.0022 20.9607C62.1222 24.294 62.1789 30.4374 62.1722 39.3907C62.155 39.6531 62.1182 39.9138 62.0622 40.1707C61.5422 39.1173 60.3089 36.1873 58.3622 31.3807C56.4155 26.574 54.9822 22.9707 54.0622 20.5707C53.9862 20.3185 53.8137 20.1065 53.5822 19.9807C53.3667 19.8595 53.1283 19.7846 52.8822 19.7607H52.4322L49.1322 19.7007C48.9919 19.6849 48.8499 19.6991 48.7154 19.7422C48.581 19.7852 48.4572 19.8563 48.3522 19.9507C48.1795 20.1875 48.0979 20.4786 48.1222 20.7707V23.5707C48.1222 29.0174 48.1222 34.804 48.1222 40.9307C48.1222 47.0574 48.0822 51.284 48.0022 53.6107C48.0365 53.7841 48.0937 53.9523 48.1722 54.1107C48.2996 54.3942 48.4913 54.6442 48.7322 54.8407C48.8605 54.9524 49.0138 55.0317 49.1791 55.0717C49.3445 55.1118 49.517 55.1114 49.6822 55.0707L50.6822 54.9507C51.0722 54.9507 51.3822 54.9007 51.6022 54.9007C52.0896 54.9095 52.5771 54.8895 53.0622 54.8407C53.3903 54.8439 53.7115 54.7461 53.9822 54.5607C54.0834 54.4376 54.1586 54.2952 54.2033 54.1423C54.248 53.9893 54.2612 53.8289 54.2422 53.6707V37.0007H54.4622L54.8022 37.6207L58.4422 46.3607C60.2289 50.654 61.2722 53.1173 61.5722 53.7507C61.7173 54.0405 61.9523 54.2756 62.2422 54.4207C62.5012 54.5586 62.7889 54.6339 63.0822 54.6407H63.5922L66.8422 54.7007C67.2218 54.6884 67.5813 54.5267 67.8422 54.2507C67.9926 54.0906 68.1091 53.9018 68.1847 53.6956C68.2603 53.4894 68.2935 53.27 68.2822 53.0507V53.0507Z" fill="#9999FF"/>
<path fill-rule="evenodd" clip-rule="evenodd" d="M90.0022 43.4208C91.5356 41.1808 92.3022 38.0641 92.3022 34.0708C92.3022 33.2808 92.3022 32.4608 92.3022 31.6008C92.3022 31.3008 92.3022 30.9108 92.3022 30.4308C92.3022 29.9408 92.3022 29.1408 92.3022 28.0208C92.3117 27.8744 92.2888 27.7278 92.2352 27.5913C92.1816 27.4547 92.0987 27.3317 91.9922 27.2308C91.8136 27.0636 91.592 26.9493 91.3522 26.9008C91.2039 26.8697 91.0535 26.8496 90.9022 26.8408L87.4322 26.7908C85.7922 26.7508 84.3722 26.7508 83.1722 26.7908C82.4622 26.8608 82.1122 27.2208 82.1122 27.8508V29.0808C82.1122 29.3808 82.1122 29.7508 82.1122 30.2008C82.1412 30.7037 82.1412 31.2079 82.1122 31.7108V31.8808C82.0997 31.9731 82.1085 32.0671 82.138 32.1555C82.1675 32.2439 82.2168 32.3244 82.2822 32.3908C82.473 32.4785 82.6829 32.5163 82.8922 32.5008C83.7922 32.5008 85.0422 32.4408 86.6522 32.4408L86.7022 34.7408C86.7501 36.1224 86.4619 37.4951 85.8622 38.7408C85.652 39.2963 85.2768 39.7743 84.787 40.1103C84.2972 40.4464 83.7162 40.6245 83.1222 40.6208C82.604 40.6447 82.0874 40.5458 81.6147 40.332C81.142 40.1183 80.7265 39.7957 80.4022 39.3908C79.776 38.6134 79.3349 37.7038 79.1122 36.7308C78.9388 35.9856 78.8383 35.2254 78.8122 34.4608V27.3508C78.8122 22.7208 78.8122 20.1008 78.8122 19.5108C78.9044 18.5712 79.2013 17.6632 79.6822 16.8508C79.8715 16.4546 80.1693 16.1202 80.541 15.8866C80.9128 15.6529 81.3432 15.5295 81.7822 15.5308C82.576 15.4929 83.3609 15.7102 84.0222 16.1508C84.5808 16.5559 85.0733 17.045 85.4822 17.6008C85.8922 18.1608 86.1722 18.4008 86.3222 18.3308L87.7222 17.3808C88.4355 16.8447 89.1838 16.3569 89.9622 15.9208C90.2922 15.7408 90.4622 15.5308 90.4622 15.3108C90.4662 15.2073 90.4487 15.1041 90.4108 15.0077C90.373 14.9114 90.3156 14.8239 90.2422 14.7508C90.0922 14.5608 89.6922 13.9808 89.0322 13.0108C88.3 11.9633 87.3435 11.0922 86.2322 10.4608C84.9506 9.71208 83.486 9.33467 82.0022 9.37078C80.8116 9.43103 79.6391 9.68783 78.5322 10.1308C76.9715 10.7459 75.6138 11.785 74.6122 13.1308C73.3261 14.9102 72.6938 17.079 72.8222 19.2708L73.0022 34.6808C73.039 36.2401 73.2537 37.7902 73.6422 39.3008C74.132 41.2221 75.1183 42.9809 76.5022 44.4008C77.3418 45.2279 78.3472 45.8676 79.4521 46.2779C80.557 46.6881 81.7363 46.8595 82.9122 46.7808C86.1189 46.7808 88.4822 45.6608 90.0022 43.4208Z" fill="#00C0FF"/>
<path fill-rule="evenodd" clip-rule="evenodd" d="M115.292 54.5307C115.924 53.2903 116.266 51.9225 116.292 50.5307L116.272 34.0007C116.39 31.3125 115.655 28.656 114.172 26.4107C113.436 25.4219 112.464 24.6343 111.343 24.1204C110.223 23.6066 108.991 23.3832 107.762 23.4707C105.012 23.3231 102.309 24.2277 100.202 26.0007C98.3721 27.6607 97.4621 30.2907 97.4621 33.8707L97.4021 42.1007C97.4021 47.7807 97.4821 51.1007 97.6321 51.9607C97.9265 53.9386 98.7919 55.7876 100.122 57.2807C101.522 58.9207 103.919 59.7407 107.312 59.7407C109.067 59.7886 110.789 59.258 112.212 58.2307C113.528 57.2829 114.587 56.0214 115.292 54.5607V54.5307ZM106.872 53.6607C104.632 53.6607 103.379 52.1673 103.112 49.1807C103.112 48.8907 103.042 46.8307 103.002 43.0207C102.962 39.2107 103.002 36.1607 103.002 33.8407C102.932 32.5947 103.284 31.3614 104.002 30.3407C104.382 29.9006 104.862 29.557 105.401 29.3379C105.939 29.1189 106.523 29.0308 107.102 29.0807C109.462 29.0807 110.632 30.6107 110.632 33.6707V49.2407C110.702 50.391 110.42 51.5353 109.822 52.5207C109.465 52.9425 109.008 53.2679 108.493 53.4671C107.977 53.6663 107.42 53.7328 106.872 53.6607V53.6607Z" fill="#FECA50"/>
</g>
</g>
<defs>
<filter id="filter0_d_226_762" x="-1" y="-1" width="127.702" height="75.1782" filterUnits="userSpaceOnUse" color-interpolation-filters="sRGB">
<feFlood flood-opacity="0" result="BackgroundImageFix"/>
<feColorMatrix in="SourceAlpha" type="matrix" values="0 0 0 0 0 0 0 0 0 0 0 0 0 0 0 0 0 0 127 0" result="hardAlpha"/>
<feOffset/>
<feGaussianBlur stdDeviation="1.5"/>
<feComposite in2="hardAlpha" operator="out"/>
<feColorMatrix type="matrix" values="0 0 0 0 0 0 0 0 0 0 0 0 0 0 0 0 0 0 0.15 0"/>
<feBlend mode="normal" in2="BackgroundImageFix" result="effect1_dropShadow_226_762"/>
<feBlend mode="normal" in="SourceGraphic" in2="effect1_dropShadow_226_762" result="shape"/>
</filter>
<clipPath id="clip0_226_762">
<rect width="125.7" height="73.56" fill="white"/>
</clipPath>
</defs>
</svg>
