<svg width="133" height="37" viewBox="0 0 133 37" fill="none" xmlns="http://www.w3.org/2000/svg">
<path fill-rule="evenodd" clip-rule="evenodd" d="M15.9253 0.478271C9.08584 0.811302 -3.31637 5.17401 1.79042 19.9606C6.89721 34.7471 21.2449 37.4447 27.7804 36.9451L119.885 32.9488C125.74 32.4348 134.749 25.6554 132.196 14.4656C129.643 3.27573 53.6183 0.478271 15.9253 0.478271ZM64.1746 18.3548H60.801V19.6344H62.701V21.9874C62.1492 22.1081 61.6308 22.1684 61.1459 22.1684C60.1844 22.1684 59.4466 21.8792 58.9324 21.3008C58.4224 20.7183 58.1674 19.8695 58.1674 18.7543C58.1674 17.6932 58.4516 16.8569 59.0202 16.2452C59.5887 15.6336 60.3621 15.3277 61.3403 15.3277C62.0844 15.3277 62.8285 15.4983 63.5726 15.8395L64.0993 14.5975C63.2424 14.2313 62.3352 14.0482 61.3779 14.0482C59.8897 14.0482 58.7213 14.4643 57.8727 15.2965C57.024 16.1245 56.5997 17.273 56.5997 18.7418C56.5997 20.2315 56.976 21.3861 57.7284 22.2059C58.4809 23.0214 59.5511 23.4292 60.939 23.4292C61.5284 23.4292 62.076 23.3917 62.5819 23.3168C63.0919 23.242 63.6228 23.115 64.1746 22.9361V18.3548ZM45.0054 23.3044H39.8196V14.1793H45.0054V15.4401H41.3183V17.9242H44.7734V19.1725H41.3183V22.0373H45.0054V23.3044ZM54.6308 23.3044H52.7935L48.2849 16.033H48.2348L48.2661 16.4387C48.3246 17.2127 48.3539 17.92 48.3539 18.5608V23.3044H46.9932V14.1793H48.8116L53.3077 21.4132H53.3453C53.3369 21.3175 53.3202 20.97 53.2951 20.3709C53.27 19.7675 53.2575 19.2973 53.2575 18.9603V14.1793H54.6308V23.3044ZM66.3818 14.1793H67.8805V22.0249H71.762V23.3044H66.3818V14.1793ZM74.8409 14.1793H73.3422V23.3044H74.8409V14.1793ZM82.5537 20.8265C82.5537 21.6379 82.259 22.2745 81.6695 22.7364C81.0801 23.1983 80.267 23.4292 79.2303 23.4292C78.1935 23.4292 77.3449 23.269 76.6844 22.9486V21.538C77.1025 21.7336 77.5456 21.8875 78.0138 21.9999C78.4862 22.1122 78.9251 22.1684 79.3306 22.1684C79.9242 22.1684 80.3611 22.0561 80.6412 21.8314C80.9254 21.6067 81.0676 21.305 81.0676 20.9263C81.0676 20.5851 80.938 20.296 80.6788 20.0588C80.4196 19.8216 79.8845 19.5407 79.0735 19.2162C78.2374 18.8791 77.648 18.4942 77.3052 18.0615C76.9624 17.6288 76.791 17.1086 76.791 16.5011C76.791 15.7397 77.0627 15.1405 77.6062 14.7036C78.1496 14.2667 78.8791 14.0482 79.7946 14.0482C80.6725 14.0482 81.5462 14.2396 82.4157 14.6224L81.9392 15.8395C81.124 15.4983 80.3966 15.3277 79.757 15.3277C79.2721 15.3277 78.9042 15.4338 78.6534 15.646C78.4026 15.8541 78.2771 16.1308 78.2771 16.4762C78.2771 16.7133 78.3273 16.9172 78.4276 17.0878C78.528 17.2543 78.6931 17.4124 78.923 17.5622C79.1529 17.712 79.5668 17.9096 80.1646 18.1551C80.8376 18.4339 81.3309 18.694 81.6445 18.9353C81.958 19.1766 82.1879 19.4492 82.3342 19.7529C82.4805 20.0567 82.5537 20.4145 82.5537 20.8265ZM90.0533 23.3044H91.5583V14.1793H90.0533V17.9117H85.8269V14.1793H84.3283V23.3044H85.8269V19.1912H90.0533V23.3044Z" fill="#BB2831"/>
</svg>
