<svg width="226" height="274" viewBox="0 0 226 274" fill="none" xmlns="http://www.w3.org/2000/svg">
<path d="M223.742 149.41C223.742 149.41 221.535 133.907 214.758 127.078C206.166 118.119 196.531 118.074 192.113 117.548C160.488 115.273 113.051 115.273 113.051 115.273H112.953C112.953 115.273 65.5117 115.273 33.887 117.548C29.4686 118.074 19.8394 118.119 11.2416 127.078C4.4669 133.907 2.26227 149.41 2.26227 149.41C2.26227 149.41 0 167.614 0 185.82V202.889C0 221.094 2.26227 239.301 2.26227 239.301C2.26227 239.301 4.4669 254.802 11.2416 261.632C19.8394 270.594 31.1341 270.308 36.1622 271.247C54.2421 272.976 112.998 273.509 112.998 273.509C112.998 273.509 160.488 273.438 192.113 271.163C196.53 270.637 206.164 270.594 214.756 261.632C221.533 254.802 223.74 239.301 223.74 239.301C223.74 239.301 226 221.094 226 202.889V185.82C226 167.614 223.74 149.409 223.74 149.409" fill="white"/>
<path d="M184 102.172H169.621V93.8474C164.169 100.096 159.547 103.251 154.509 103.251C150.091 103.251 147.019 101.168 145.484 97.3989C144.551 95.1086 143.889 91.532 143.889 86.2787V25.7321H158.266V87.7932C158.602 89.9136 159.507 90.6925 161.332 90.6925C164.085 90.6925 166.575 88.3013 169.621 84.0058V25.7321H184V102.172ZM118.912 79.4661C119.667 87.0348 117.319 90.7888 112.855 90.7888C108.39 90.7888 106.044 87.0348 106.803 79.4661V49.1913C106.044 41.6226 108.39 38.0756 112.855 38.0756C117.321 38.0756 119.675 41.6226 118.919 49.1913L118.911 79.4661H118.912ZM133.291 50.7058C133.291 42.5379 131.65 36.4026 128.75 32.5424C124.917 27.3118 118.912 25.1709 112.855 25.1709C106.004 25.1709 100.786 27.3118 96.9611 32.5424C94.014 36.4026 92.4335 42.6032 92.4335 50.771L92.4214 77.9516C92.4214 86.0739 93.8267 91.686 96.7715 95.5105C100.599 100.723 106.803 103.483 112.855 103.483C118.911 103.483 125.221 100.723 129.054 95.5105C131.953 91.686 133.29 86.0739 133.29 77.9516V50.7058H133.291ZM76.5286 60.5443V102.171H61.3912V60.5436C61.3912 60.5436 45.707 9.51321 42.4702 0.000757971H58.363L68.9857 39.8654L79.5546 0H95.4481L76.5286 60.5443Z" fill="white"/>
<path d="M179.812 188.049C179.812 180.974 181.752 179.044 186.327 179.044C190.87 179.044 192.678 181.15 192.678 188.143V196.404L179.812 196.419V188.049ZM207.084 207.757L207.082 192.286C207.082 184.204 205.489 178.289 202.622 174.464C198.785 169.289 193.33 166.549 186.456 166.549C179.459 166.549 174.003 169.289 170.042 174.464C167.13 178.289 165.434 184.535 165.434 192.622V219.11C165.434 227.146 167.3 232.771 170.209 236.555C174.173 241.722 179.628 244.303 186.795 244.303C193.954 244.303 199.576 241.598 203.366 236.104C205.034 233.681 206.108 230.932 206.571 227.896C206.695 226.524 207.056 223.397 207.056 218.983V216.839H192.677C192.677 222.335 192.705 225.604 192.576 226.349C191.793 230.015 189.828 231.848 186.456 231.848C181.752 231.848 179.762 228.332 179.812 221.349V207.757H207.084ZM141.969 221.38C141.969 228.949 140.184 231.851 136.233 231.851C133.979 231.851 131.38 230.69 129.087 228.398L129.102 182.498C131.392 180.238 133.979 179.047 136.233 179.047C140.184 179.047 141.969 181.269 141.969 188.838V221.38ZM143.565 166.433C138.524 166.433 133.514 169.533 129.087 174.98L129.102 141.912H115.479V243.33H129.102L129.123 235.709C133.7 241.374 138.693 244.303 143.565 244.303C149.02 244.303 153.007 241.384 154.837 235.759C155.749 232.554 156.348 227.619 156.348 220.624V190.353C156.348 183.188 155.43 178.289 154.516 175.248C152.688 169.586 149.02 166.433 143.565 166.433ZM104.129 243.328H89.7532V235.003C84.2982 241.252 79.6796 244.407 74.6416 244.407C70.2225 244.407 67.1511 242.324 65.6168 238.555C64.681 236.264 64.0189 232.688 64.0189 227.435V167.646H78.3979V228.949C78.7339 231.07 79.6364 231.848 81.4641 231.848C84.217 231.848 86.7068 229.457 89.7532 225.162V167.646H104.13V243.328H104.129Z" fill="#BB2831"/>
<path d="M49.6354 243.328H34.501V156.29H18.6083V141.93L66.2873 141.912V156.291H49.6354V243.328Z" fill="#BB2831"/>
</svg>
