<svg width="50" height="50" viewBox="0 0 50 50" fill="none" xmlns="http://www.w3.org/2000/svg">
<circle cx="25" cy="25" r="24" fill="white" stroke="#BB2831" stroke-width="2"/>
<path d="M35.2072 29.9097V33.1087C35.2085 33.4057 35.1476 33.6996 35.0286 33.9717C34.9097 34.2438 34.7352 34.4881 34.5163 34.6888C34.2975 34.8896 34.0392 35.0425 33.7578 35.1376C33.4765 35.2327 33.1784 35.2681 32.8827 35.2413C29.6014 34.8848 26.4495 33.7636 23.6802 31.9677C21.1038 30.3305 18.9195 28.1462 17.2823 25.5698C15.4802 22.7879 14.3587 19.6207 14.0087 16.3247C13.982 16.0298 14.0171 15.7326 14.1116 15.452C14.2061 15.1715 14.358 14.9136 14.5576 14.6949C14.7572 14.4763 15.0001 14.3016 15.271 14.1819C15.5418 14.0623 15.8346 14.0004 16.1306 14.0001H19.3296C19.8471 13.995 20.3488 14.1783 20.7412 14.5157C21.1336 14.8532 21.3899 15.3218 21.4623 15.8342C21.5973 16.8579 21.8477 17.8631 22.2087 18.8306C22.3522 19.2122 22.3832 19.627 22.2982 20.0258C22.2131 20.4246 22.0156 20.7906 21.7289 21.0805L20.3746 22.4348C21.8926 25.1044 24.103 27.3147 26.7726 28.8327L28.1268 27.4785C28.4168 27.1918 28.7828 26.9942 29.1816 26.9092C29.5803 26.8241 29.9951 26.8552 30.3768 26.9986C31.3442 27.3596 32.3494 27.61 33.3732 27.7451C33.8911 27.8181 34.3642 28.079 34.7024 28.4782C35.0405 28.8773 35.2202 29.3868 35.2072 29.9097Z" fill="#BB2831"/>
</svg>
