<svg width="20" height="20" viewBox="0 0 20 20" fill="none" xmlns="http://www.w3.org/2000/svg">
<path fill-rule="evenodd" clip-rule="evenodd" d="M2.5 3.125C2.33424 3.125 2.17527 3.19085 2.05806 3.30806C1.94085 3.42527 1.875 3.58424 1.875 3.75V5C1.875 5.16576 1.94085 5.32473 2.05806 5.44194C2.17527 5.55915 2.33424 5.625 2.5 5.625H3.75C3.91576 5.625 4.07473 5.55915 4.19194 5.44194C4.30915 5.32473 4.375 5.16576 4.375 5V3.75C4.375 3.58424 4.30915 3.42527 4.19194 3.30806C4.07473 3.19085 3.91576 3.125 3.75 3.125H2.5ZM3.75 3.75H2.5V5H3.75V3.75Z" fill="#031E65"/>
<path d="M6.25 4.375C6.25 4.20924 6.31585 4.05027 6.43306 3.93306C6.55027 3.81585 6.70924 3.75 6.875 3.75H18.125C18.2908 3.75 18.4497 3.81585 18.5669 3.93306C18.6842 4.05027 18.75 4.20924 18.75 4.375C18.75 4.54076 18.6842 4.69973 18.5669 4.81694C18.4497 4.93415 18.2908 5 18.125 5H6.875C6.70924 5 6.55027 4.93415 6.43306 4.81694C6.31585 4.69973 6.25 4.54076 6.25 4.375ZM6.875 8.75C6.70924 8.75 6.55027 8.81585 6.43306 8.93306C6.31585 9.05027 6.25 9.20924 6.25 9.375C6.25 9.54076 6.31585 9.69973 6.43306 9.81694C6.55027 9.93415 6.70924 10 6.875 10H18.125C18.2908 10 18.4497 9.93415 18.5669 9.81694C18.6842 9.69973 18.75 9.54076 18.75 9.375C18.75 9.20924 18.6842 9.05027 18.5669 8.93306C18.4497 8.81585 18.2908 8.75 18.125 8.75H6.875ZM6.875 13.75C6.70924 13.75 6.55027 13.8158 6.43306 13.9331C6.31585 14.0503 6.25 14.2092 6.25 14.375C6.25 14.5408 6.31585 14.6997 6.43306 14.8169C6.55027 14.9342 6.70924 15 6.875 15H18.125C18.2908 15 18.4497 14.9342 18.5669 14.8169C18.6842 14.6997 18.75 14.5408 18.75 14.375C18.75 14.2092 18.6842 14.0503 18.5669 13.9331C18.4497 13.8158 18.2908 13.75 18.125 13.75H6.875Z" fill="#031E65"/>
<path fill-rule="evenodd" clip-rule="evenodd" d="M1.875 8.75C1.875 8.58424 1.94085 8.42527 2.05806 8.30806C2.17527 8.19085 2.33424 8.125 2.5 8.125H3.75C3.91576 8.125 4.07473 8.19085 4.19194 8.30806C4.30915 8.42527 4.375 8.58424 4.375 8.75V10C4.375 10.1658 4.30915 10.3247 4.19194 10.4419C4.07473 10.5592 3.91576 10.625 3.75 10.625H2.5C2.33424 10.625 2.17527 10.5592 2.05806 10.4419C1.94085 10.3247 1.875 10.1658 1.875 10V8.75ZM2.5 8.75H3.75V10H2.5V8.75ZM2.5 13.125C2.33424 13.125 2.17527 13.1908 2.05806 13.3081C1.94085 13.4253 1.875 13.5842 1.875 13.75V15C1.875 15.1658 1.94085 15.3247 2.05806 15.4419C2.17527 15.5592 2.33424 15.625 2.5 15.625H3.75C3.91576 15.625 4.07473 15.5592 4.19194 15.4419C4.30915 15.3247 4.375 15.1658 4.375 15V13.75C4.375 13.5842 4.30915 13.4253 4.19194 13.3081C4.07473 13.1908 3.91576 13.125 3.75 13.125H2.5ZM3.75 13.75H2.5V15H3.75V13.75Z" fill="#031E65"/>
</svg>
