<svg width="20" height="20" viewBox="0 0 20 20" fill="none" xmlns="http://www.w3.org/2000/svg">
<path d="M0 14.375C0 14.2092 0.065848 14.0503 0.183058 13.9331C0.300269 13.8158 0.45924 13.75 0.625 13.75H3.125C3.29076 13.75 3.44973 13.8158 3.56694 13.9331C3.68415 14.0503 3.75 14.2092 3.75 14.375V16.875C3.75 17.0408 3.68415 17.1997 3.56694 17.3169C3.44973 17.4342 3.29076 17.5 3.125 17.5H0.625C0.45924 17.5 0.300269 17.4342 0.183058 17.3169C0.065848 17.1997 0 17.0408 0 16.875V14.375ZM5 10.625C5 10.4592 5.06585 10.3003 5.18306 10.1831C5.30027 10.0658 5.45924 10 5.625 10H8.125C8.29076 10 8.44973 10.0658 8.56694 10.1831C8.68415 10.3003 8.75 10.4592 8.75 10.625V16.875C8.75 17.0408 8.68415 17.1997 8.56694 17.3169C8.44973 17.4342 8.29076 17.5 8.125 17.5H5.625C5.45924 17.5 5.30027 17.4342 5.18306 17.3169C5.06585 17.1997 5 17.0408 5 16.875V10.625ZM10 6.875C10 6.70924 10.0658 6.55027 10.1831 6.43306C10.3003 6.31585 10.4592 6.25 10.625 6.25H13.125C13.2908 6.25 13.4497 6.31585 13.5669 6.43306C13.6842 6.55027 13.75 6.70924 13.75 6.875V16.875C13.75 17.0408 13.6842 17.1997 13.5669 17.3169C13.4497 17.4342 13.2908 17.5 13.125 17.5H10.625C10.4592 17.5 10.3003 17.4342 10.1831 17.3169C10.0658 17.1997 10 17.0408 10 16.875V6.875ZM15 3.125C15 2.95924 15.0658 2.80027 15.1831 2.68306C15.3003 2.56585 15.4592 2.5 15.625 2.5H18.125C18.2908 2.5 18.4497 2.56585 18.5669 2.68306C18.6842 2.80027 18.75 2.95924 18.75 3.125V16.875C18.75 17.0408 18.6842 17.1997 18.5669 17.3169C18.4497 17.4342 18.2908 17.5 18.125 17.5H15.625C15.4592 17.5 15.3003 17.4342 15.1831 17.3169C15.0658 17.1997 15 17.0408 15 16.875V3.125Z" fill="#031E65"/>
</svg>
