<svg width="84" height="84" viewBox="0 0 84 84" fill="none" xmlns="http://www.w3.org/2000/svg">
<rect width="84" height="84" rx="42" fill="#031E65"/>
<path d="M20 51.625C20 51.2603 20.1449 50.9106 20.4027 50.6527C20.6606 50.3949 21.0103 50.25 21.375 50.25H26.875C27.2397 50.25 27.5894 50.3949 27.8473 50.6527C28.1051 50.9106 28.25 51.2603 28.25 51.625V57.125C28.25 57.4897 28.1051 57.8394 27.8473 58.0973C27.5894 58.3551 27.2397 58.5 26.875 58.5H21.375C21.0103 58.5 20.6606 58.3551 20.4027 58.0973C20.1449 57.8394 20 57.4897 20 57.125V51.625ZM31 43.375C31 43.0103 31.1449 42.6606 31.4027 42.4027C31.6606 42.1449 32.0103 42 32.375 42H37.875C38.2397 42 38.5894 42.1449 38.8473 42.4027C39.1051 42.6606 39.25 43.0103 39.25 43.375V57.125C39.25 57.4897 39.1051 57.8394 38.8473 58.0973C38.5894 58.3551 38.2397 58.5 37.875 58.5H32.375C32.0103 58.5 31.6606 58.3551 31.4027 58.0973C31.1449 57.8394 31 57.4897 31 57.125V43.375ZM42 35.125C42 34.7603 42.1449 34.4106 42.4027 34.1527C42.6606 33.8949 43.0103 33.75 43.375 33.75H48.875C49.2397 33.75 49.5894 33.8949 49.8473 34.1527C50.1051 34.4106 50.25 34.7603 50.25 35.125V57.125C50.25 57.4897 50.1051 57.8394 49.8473 58.0973C49.5894 58.3551 49.2397 58.5 48.875 58.5H43.375C43.0103 58.5 42.6606 58.3551 42.4027 58.0973C42.1449 57.8394 42 57.4897 42 57.125V35.125ZM53 26.875C53 26.5103 53.1449 26.1606 53.4027 25.9027C53.6606 25.6449 54.0103 25.5 54.375 25.5H59.875C60.2397 25.5 60.5894 25.6449 60.8473 25.9027C61.1051 26.1606 61.25 26.5103 61.25 26.875V57.125C61.25 57.4897 61.1051 57.8394 60.8473 58.0973C60.5894 58.3551 60.2397 58.5 59.875 58.5H54.375C54.0103 58.5 53.6606 58.3551 53.4027 58.0973C53.1449 57.8394 53 57.4897 53 57.125V26.875Z" fill="white"/>
</svg>
