<svg width="84" height="84" viewBox="0 0 84 84" fill="none" xmlns="http://www.w3.org/2000/svg">
<rect width="84" height="84" rx="42" fill="#031E65"/>
<g clip-path="url(#clip0_130_32)">
<path fill-rule="evenodd" clip-rule="evenodd" d="M42.5803 25.6292C42.3985 25.5446 42.2005 25.5007 42 25.5007C41.7996 25.5007 41.6015 25.5446 41.4198 25.6292L20.7948 35.2542C20.5519 35.3675 20.3475 35.5494 20.2066 35.7774C20.0657 36.0054 19.9945 36.2697 20.0019 36.5376C20.0092 36.8055 20.0946 37.0655 20.2477 37.2855C20.4008 37.5055 20.6148 37.676 20.8635 37.7759L41.4885 46.0259C41.8168 46.1575 42.1832 46.1575 42.5115 46.0259L58.5 39.6349V55.7499C57.7707 55.7499 57.0712 56.0396 56.5555 56.5554C56.0398 57.0711 55.75 57.7706 55.75 58.4999V63.9999H64V58.4999C64 57.7706 63.7103 57.0711 63.1946 56.5554C62.6788 56.0396 61.9794 55.7499 61.25 55.7499V38.5322L63.1365 37.7759C63.3852 37.676 63.5993 37.5055 63.7524 37.2855C63.9054 37.0655 63.9909 36.8055 63.9982 36.5376C64.0055 36.2697 63.9343 36.0054 63.7935 35.7774C63.6526 35.5494 63.4482 35.3675 63.2053 35.2542L42.5803 25.6292ZM42 43.2649L24.8345 36.4037L42 28.3929L59.1655 36.4037L42 43.2649ZM31.484 44.8324C31.3068 44.7658 31.1177 44.7364 30.9286 44.7463C30.7395 44.7561 30.5545 44.8049 30.3851 44.8896C30.2157 44.9743 30.0657 45.093 29.9444 45.2384C29.823 45.3838 29.733 45.5526 29.68 45.7344L28.305 50.4094C28.2087 50.7376 28.2382 51.0899 28.3877 51.3976C28.5372 51.7052 28.796 51.9461 29.1135 52.0732L41.4885 57.0232C41.8168 57.1547 42.1832 57.1547 42.5115 57.0232L54.8865 52.0732C55.2041 51.9461 55.4629 51.7052 55.6124 51.3976C55.7619 51.0899 55.7913 50.7376 55.695 50.4094L54.32 45.7344C54.2667 45.5529 54.1765 45.3843 54.055 45.2392C53.9336 45.0942 53.7835 44.9757 53.6142 44.8913C53.4448 44.8069 53.2599 44.7583 53.071 44.7487C52.882 44.739 52.6931 44.7685 52.516 44.8352L42 48.7814L31.484 44.8379V44.8324ZM31.297 49.9859L31.902 47.9289L41.516 51.5342C41.828 51.6515 42.172 51.6515 42.484 51.5342L52.098 47.9289L52.703 49.9859L42 54.2649L31.297 49.9859Z" fill="white"/>
</g>
<defs>
<clipPath id="clip0_130_32">
<rect width="44" height="44" fill="white" transform="translate(20 20)"/>
</clipPath>
</defs>
</svg>
