<svg width="84" height="84" viewBox="0 0 84 84" fill="none" xmlns="http://www.w3.org/2000/svg">
<rect width="84" height="84" rx="42" fill="#031E65"/>
<path d="M61.25 58.5C61.25 58.5 64 58.5 64 55.75C64 53 61.25 44.75 50.25 44.75C39.25 44.75 36.5 53 36.5 55.75C36.5 58.5 39.25 58.5 39.25 58.5H61.25ZM39.3105 55.75C39.2902 55.7472 39.27 55.7435 39.25 55.739C39.2528 55.013 39.7093 52.9065 41.34 51.009C42.858 49.2297 45.5255 47.5 50.25 47.5C54.9717 47.5 57.6392 49.2325 59.16 51.009C60.7907 52.9065 61.2445 55.0158 61.25 55.739L61.228 55.7445C61.2152 55.7467 61.2024 55.7485 61.1895 55.75H39.3105ZM50.25 39.25C51.7087 39.25 53.1076 38.6705 54.1391 37.6391C55.1705 36.6076 55.75 35.2087 55.75 33.75C55.75 32.2913 55.1705 30.8924 54.1391 29.8609C53.1076 28.8295 51.7087 28.25 50.25 28.25C48.7913 28.25 47.3924 28.8295 46.3609 29.8609C45.3295 30.8924 44.75 32.2913 44.75 33.75C44.75 35.2087 45.3295 36.6076 46.3609 37.6391C47.3924 38.6705 48.7913 39.25 50.25 39.25ZM58.5 33.75C58.5 34.8334 58.2866 35.9062 57.872 36.9071C57.4574 37.9081 56.8497 38.8175 56.0836 39.5836C55.3175 40.3497 54.4081 40.9574 53.4071 41.372C52.4062 41.7866 51.3334 42 50.25 42C49.1666 42 48.0938 41.7866 47.0929 41.372C46.0919 40.9574 45.1825 40.3497 44.4164 39.5836C43.6503 38.8175 43.0426 37.9081 42.628 36.9071C42.2134 35.9062 42 34.8334 42 33.75C42 31.562 42.8692 29.4635 44.4164 27.9164C45.9635 26.3692 48.062 25.5 50.25 25.5C52.438 25.5 54.5365 26.3692 56.0836 27.9164C57.6308 29.4635 58.5 31.562 58.5 33.75ZM39.074 45.52C37.9739 45.1736 36.84 44.9459 35.6915 44.8407C35.0462 44.7794 34.3982 44.7491 33.75 44.75C22.75 44.75 20 53 20 55.75C20 57.5843 20.9158 58.5 22.75 58.5H34.344C33.9363 57.6415 33.733 56.7002 33.75 55.75C33.75 52.9725 34.7868 50.1345 36.7475 47.764C37.4158 46.9555 38.194 46.1992 39.074 45.52ZM33.53 47.5C31.9024 49.9455 31.0232 52.8125 31 55.75H22.75C22.75 55.035 23.201 52.9175 24.84 51.009C26.3387 49.26 28.943 47.555 33.53 47.5028V47.5ZM24.125 35.125C24.125 32.937 24.9942 30.8385 26.5414 29.2914C28.0885 27.7442 30.187 26.875 32.375 26.875C34.563 26.875 36.6615 27.7442 38.2086 29.2914C39.7558 30.8385 40.625 32.937 40.625 35.125C40.625 37.313 39.7558 39.4115 38.2086 40.9586C36.6615 42.5058 34.563 43.375 32.375 43.375C30.187 43.375 28.0885 42.5058 26.5414 40.9586C24.9942 39.4115 24.125 37.313 24.125 35.125ZM32.375 29.625C30.9163 29.625 29.5174 30.2045 28.4859 31.2359C27.4545 32.2674 26.875 33.6663 26.875 35.125C26.875 36.5837 27.4545 37.9826 28.4859 39.0141C29.5174 40.0455 30.9163 40.625 32.375 40.625C33.8337 40.625 35.2326 40.0455 36.2641 39.0141C37.2955 37.9826 37.875 36.5837 37.875 35.125C37.875 33.6663 37.2955 32.2674 36.2641 31.2359C35.2326 30.2045 33.8337 29.625 32.375 29.625Z" fill="white"/>
</svg>
