<svg width="84" height="84" viewBox="0 0 84 84" fill="none" xmlns="http://www.w3.org/2000/svg">
<rect width="84" height="84" rx="42" fill="#031E65"/>
<path d="M35.125 39.25C34.7603 39.25 34.4106 39.3949 34.1527 39.6527C33.8949 39.9106 33.75 40.2603 33.75 40.625C33.75 40.9897 33.8949 41.3394 34.1527 41.5973C34.4106 41.8551 34.7603 42 35.125 42H48.875C49.2397 42 49.5894 41.8551 49.8473 41.5973C50.1051 41.3394 50.25 40.9897 50.25 40.625C50.25 40.2603 50.1051 39.9106 49.8473 39.6527C49.5894 39.3949 49.2397 39.25 48.875 39.25H35.125ZM33.75 46.125C33.75 45.7603 33.8949 45.4106 34.1527 45.1527C34.4106 44.8949 34.7603 44.75 35.125 44.75H48.875C49.2397 44.75 49.5894 44.8949 49.8473 45.1527C50.1051 45.4106 50.25 45.7603 50.25 46.125C50.25 46.4897 50.1051 46.8394 49.8473 47.0973C49.5894 47.3551 49.2397 47.5 48.875 47.5H35.125C34.7603 47.5 34.4106 47.3551 34.1527 47.0973C33.8949 46.8394 33.75 46.4897 33.75 46.125ZM33.75 51.625C33.75 51.2603 33.8949 50.9106 34.1527 50.6527C34.4106 50.3949 34.7603 50.25 35.125 50.25H40.625C40.9897 50.25 41.3394 50.3949 41.5973 50.6527C41.8551 50.9106 42 51.2603 42 51.625C42 51.9897 41.8551 52.3394 41.5973 52.5973C41.3394 52.8551 40.9897 53 40.625 53H35.125C34.7603 53 34.4106 52.8551 34.1527 52.5973C33.8949 52.3394 33.75 51.9897 33.75 51.625Z" fill="white"/>
<path d="M46.125 20H31C29.5413 20 28.1424 20.5795 27.1109 21.6109C26.0795 22.6424 25.5 24.0413 25.5 25.5V58.5C25.5 59.9587 26.0795 61.3576 27.1109 62.3891C28.1424 63.4205 29.5413 64 31 64H53C54.4587 64 55.8576 63.4205 56.8891 62.3891C57.9205 61.3576 58.5 59.9587 58.5 58.5V32.375L46.125 20ZM46.125 22.75V28.25C46.125 29.344 46.5596 30.3932 47.3332 31.1668C48.1068 31.9404 49.156 32.375 50.25 32.375H55.75V58.5C55.75 59.2293 55.4603 59.9288 54.9445 60.4445C54.4288 60.9603 53.7293 61.25 53 61.25H31C30.2707 61.25 29.5712 60.9603 29.0555 60.4445C28.5397 59.9288 28.25 59.2293 28.25 58.5V25.5C28.25 24.7707 28.5397 24.0712 29.0555 23.5555C29.5712 23.0397 30.2707 22.75 31 22.75H46.125Z" fill="white"/>
</svg>
