<svg width="240" height="54" viewBox="0 0 240 54" fill="none" xmlns="http://www.w3.org/2000/svg">
<path d="M75.2683 8.59083C74.832 6.96826 73.981 5.48902 72.7999 4.30042C71.6188 3.11183 70.1489 2.25535 68.5366 1.81629C62.6342 0.196289 38.8781 0.196289 38.8781 0.196289C38.8781 0.196289 15.122 0.24538 9.21953 1.86538C7.60721 2.30444 6.13733 3.16092 4.95625 4.34951C3.77517 5.53811 2.92411 7.01735 2.48782 8.63993C0.702454 19.1945 0.00977081 35.2767 2.5366 45.409C2.97289 47.0316 3.82395 48.5108 5.00503 49.6994C6.18611 50.888 7.65599 51.7445 9.26831 52.1836C15.1707 53.8036 38.9268 53.8036 38.9268 53.8036C38.9268 53.8036 62.6829 53.8036 68.5854 52.1836C70.1977 51.7445 71.6676 50.888 72.8487 49.6994C74.0297 48.5108 74.8808 47.0316 75.3171 45.409C77.2 34.8397 77.7805 18.7674 75.2683 8.59083Z" fill="white"/>
<path d="M31.3169 38.4872L51.0242 27L31.3169 15.5127V38.4872Z" fill="#BB2831"/>
<path d="M111.171 48.9436C109.658 47.9127 108.585 46.3418 107.951 44.1818C107.317 42.0218 107.024 39.1745 107.024 35.5908V30.7308C107.024 27.1472 107.366 24.2018 108.097 22.0418C108.829 19.8327 109.951 18.2618 111.512 17.2799C113.073 16.2981 115.073 15.7581 117.561 15.7581C120 15.7581 122 16.249 123.463 17.2799C124.927 18.3108 126.049 19.8818 126.732 22.0418C127.415 24.2018 127.756 27.0981 127.756 30.6818V35.5418C127.756 39.1254 127.415 41.9727 126.732 44.1327C126.049 46.2927 124.976 47.8636 123.463 48.8945C121.951 49.8763 119.902 50.4163 117.366 50.4163C114.732 50.4654 112.683 49.9254 111.171 48.9436ZM119.61 43.6908C120.049 42.6108 120.244 40.7945 120.244 38.3399V27.8836C120.244 25.4781 120.049 23.7108 119.61 22.6308C119.171 21.5018 118.439 20.9618 117.415 20.9618C116.39 20.9618 115.707 21.5018 115.268 22.6308C114.829 23.7599 114.634 25.4781 114.634 27.8836V38.3399C114.634 40.7945 114.829 42.6108 115.219 43.6908C115.61 44.7708 116.341 45.3108 117.415 45.3108C118.439 45.3108 119.171 44.7708 119.61 43.6908ZM226.536 35.689V37.4072L226.732 42.2672C226.878 43.3472 227.122 44.1327 227.512 44.6236C227.902 45.1145 228.536 45.3599 229.366 45.3599C230.488 45.3599 231.268 44.9181 231.658 44.0345C232.097 43.1508 232.293 41.6781 232.341 39.6654L238.829 40.0581C238.878 40.3527 238.878 40.7454 238.878 41.2363C238.878 44.329 238.049 46.6363 236.341 48.1581C234.634 49.6799 232.293 50.4654 229.219 50.4654C225.512 50.4654 222.927 49.2872 221.463 46.9799C220 44.6727 219.219 41.0399 219.219 36.1799V30.2399C219.385 21.8945 220.844 15.7827 229.415 15.7581C232 15.7581 233.951 16.249 235.317 17.1818C236.683 18.1145 237.658 19.5872 238.244 21.5999C238.829 23.6127 239.073 26.3618 239.073 29.8963V35.6399H226.536V35.689ZM227.512 21.5508C227.122 22.0418 226.878 22.7781 226.732 23.8581C226.585 24.9381 226.536 28.7672 226.536 28.7672V31.1727H232V28.7672C232 31.1727 231.951 24.9872 231.805 23.8581C231.658 22.729 231.415 21.9436 231.024 21.5018C230.634 21.0599 230.049 20.8145 229.268 20.8145C228.439 20.8636 227.854 21.109 227.512 21.5508ZM92.9267 35.0508L84.3901 4.02539H91.8536C91.8536 4.02539 95.3414 19.5872 96.5365 26.9018H96.7316C98.0877 19.1356 101.512 4.02539 101.512 4.02539H108.975L100.341 35.0018V49.8763H92.9755V35.0508H92.9267Z" fill="white"/>
<path d="M151.951 16.396V49.9251H146.098L145.463 45.8015H145.317C143.707 48.8942 141.317 50.4651 138.146 50.4651C132.405 50.4504 131.766 45.556 131.707 41.4324V16.396H139.219V40.9905C139.219 42.4633 139.366 43.5433 139.707 44.1814C140.4 45.5462 142.195 45.1976 143.171 44.5251C143.734 44.1419 144.188 43.6173 144.488 43.0033V16.396H151.951Z" fill="white"/>
<path d="M189.951 16.396V49.9251H184.097L183.463 45.8015H183.317C181.707 48.8942 179.317 50.4651 176.146 50.4651C170.405 50.4504 169.766 45.556 169.707 41.4324V16.396H177.219V40.9905C177.219 42.4633 177.366 43.5433 177.707 44.1814C178.4 45.5462 180.195 45.1976 181.17 44.5251C181.734 44.1419 182.188 43.6173 182.488 43.0033V16.396H189.951Z" fill="white"/>
<path d="M172.341 10.1126H164.878V49.9253H157.561V10.1126H150.097V4.02531H172.293V10.1126H172.341ZM215.219 21.7471C214.78 19.6362 214.049 18.1144 213.024 17.1326C212 16.1999 210.634 15.7089 208.829 15.7089C207.457 15.7059 206.114 16.1162 204.975 16.8871C203.756 17.6726 202.878 18.7035 202.195 19.9799H202.146V2.30713H194.927V49.8762H201.122L201.902 46.6853H202.049C202.645 47.8091 203.54 48.7439 204.634 49.3853C205.805 50.0235 207.073 50.3671 208.488 50.3671C211.024 50.3671 212.878 49.1889 214.097 46.8326C215.268 44.4762 215.902 40.7944 215.902 35.8362V30.5344C215.902 26.8035 215.658 23.858 215.219 21.7471ZM208.341 35.4435C208.341 37.898 208.244 39.8126 208.049 41.1871C207.853 42.5617 207.512 43.5435 207.024 44.1326C206.536 44.7217 205.902 45.0162 205.122 45.0162C203.61 44.9671 202.751 44.2799 202.146 43.2489V24.2017C202.39 23.2689 202.829 22.5326 203.463 21.9435C204.536 20.7309 206.371 20.7162 207.219 21.9435C207.658 22.5326 207.902 23.5635 208.097 24.9871C208.244 26.4108 208.341 28.4235 208.341 31.0744V35.4435Z" fill="white"/>
</svg>
