<svg width="20" height="21" viewBox="0 0 20 21" fill="none" xmlns="http://www.w3.org/2000/svg">
<ellipse cx="10" cy="10.5175" rx="10" ry="10.0761" fill="#2F89CE"/>
<path d="M4.67535 10.706L6.9744 11.5698L7.87063 14.4752C7.9096 14.6716 8.1434 14.7108 8.29927 14.593L9.58517 13.5329C9.70207 13.4151 9.89691 13.4151 10.0528 13.5329L12.3518 15.2212C12.5077 15.339 12.7415 15.2605 12.7804 15.0642L14.495 6.81889C14.534 6.62258 14.3391 6.42626 14.1443 6.50479L4.67535 10.1955C4.44155 10.2741 4.44155 10.6274 4.67535 10.706ZM7.75374 11.1379L12.2739 8.35016C12.3518 8.3109 12.4297 8.42869 12.3518 8.46795L8.64997 11.9624C8.53307 12.0802 8.41616 12.2372 8.41616 12.4335L8.29927 13.3759C8.29927 13.4937 8.10443 13.5329 8.06547 13.3759L7.59786 11.6483C7.48096 11.452 7.5589 11.2164 7.75374 11.1379Z" fill="white"/>
</svg>
