<svg width="20" height="21" viewBox="0 0 20 21" fill="none" xmlns="http://www.w3.org/2000/svg">
<ellipse cx="10" cy="10.5175" rx="10" ry="10.0761" fill="#7C509A"/>
<path d="M13.127 5.75453C11.2212 5.38781 9.24215 5.38781 7.33639 5.75453C6.49345 5.93788 5.43063 6.96468 5.24738 7.77145C4.91754 9.34831 4.91754 10.9618 5.24738 12.5387C5.46728 13.3455 6.5301 14.3723 7.33639 14.5556C7.37304 14.5556 7.40968 14.5923 7.40968 14.629V16.9393C7.40968 17.0493 7.55628 17.1226 7.62958 17.0126L8.72906 15.8758C8.72906 15.8758 9.60864 14.959 9.75523 14.8123C9.75523 14.8123 9.79189 14.7757 9.82854 14.7757C10.928 14.8123 12.0641 14.7023 13.1636 14.519C14.0065 14.3356 15.0694 13.3088 15.2526 12.502C15.5825 10.9252 15.5825 9.31164 15.2526 7.73477C15.0327 6.96468 13.9699 5.93788 13.127 5.75453ZM13.1636 12.6487C12.9804 13.0154 12.7605 13.3088 12.394 13.4922C12.284 13.5288 12.1741 13.5655 12.0641 13.6022C11.9175 13.5655 11.8076 13.5288 11.6976 13.4922C10.5249 13.0154 9.42539 12.3554 8.54581 11.4019C8.06937 10.8518 7.66623 10.2284 7.33639 9.56834C7.18979 9.2383 7.04319 8.94493 6.93325 8.61488C6.8233 8.32151 7.00654 8.02815 7.18979 7.80812C7.37304 7.58809 7.59293 7.4414 7.84948 7.33139C8.03272 7.22138 8.21597 7.29472 8.36257 7.4414C8.65576 7.80812 8.94895 8.17483 9.16885 8.57821C9.31544 8.83491 9.27879 9.12828 9.02225 9.31164C8.94895 9.34831 8.9123 9.38498 8.839 9.45832C8.80236 9.495 8.72906 9.53167 8.69241 9.60501C8.61911 9.71502 8.61911 9.82504 8.65576 9.93505C8.94895 10.7785 9.49869 11.4386 10.3416 11.8053C10.4882 11.8786 10.5982 11.9153 10.7814 11.9153C11.038 11.8786 11.1479 11.5853 11.3312 11.4386C11.5144 11.2919 11.7343 11.2919 11.9542 11.4019C12.1374 11.5119 12.3207 11.6586 12.5406 11.8053C12.7238 11.952 12.9071 12.062 13.0903 12.2087C13.2003 12.282 13.2369 12.4654 13.1636 12.6487ZM11.6243 9.89838C11.551 9.89838 11.5877 9.89838 11.6243 9.89838C11.4777 9.89838 11.4411 9.82504 11.4044 9.71502C11.4044 9.64168 11.4044 9.53167 11.3678 9.45832C11.3312 9.31164 11.2579 9.16495 11.1113 9.05494C11.038 9.01827 10.9647 8.9816 10.8914 8.94493C10.7814 8.90825 10.7081 8.90826 10.5982 8.90826C10.4882 8.87158 10.4516 8.79824 10.4516 8.68823C10.4516 8.61489 10.5615 8.54154 10.6348 8.54154C11.2212 8.57821 11.661 8.90825 11.7343 9.60501C11.7343 9.64168 11.7343 9.71502 11.7343 9.75169C11.7343 9.82504 11.6976 9.89838 11.6243 9.89838ZM11.2579 8.28484C11.0746 8.2115 10.8914 8.13816 10.6715 8.10149C10.5982 8.10149 10.4882 8.06482 10.4149 8.06482C10.305 8.06482 10.2317 7.99147 10.2683 7.88146C10.2683 7.77145 10.3416 7.6981 10.4516 7.73477C10.8181 7.77145 11.1479 7.84479 11.4777 7.99147C12.1374 8.32152 12.5039 8.87158 12.6139 9.60501C12.6139 9.64168 12.6139 9.67835 12.6139 9.71502C12.6139 9.78837 12.6139 9.86171 12.6139 9.97172C12.6139 10.0084 12.6139 10.0451 12.6139 10.0817C12.5772 10.2284 12.3207 10.2651 12.284 10.0817C12.284 10.0451 12.2474 9.97172 12.2474 9.93505C12.2474 9.60501 12.1741 9.27497 12.0275 8.9816C11.8076 8.65156 11.551 8.43153 11.2579 8.28484ZM13.2369 10.4851C13.127 10.4851 13.0537 10.3751 13.0537 10.2651C13.0537 10.0451 13.017 9.82504 12.9804 9.60501C12.8338 8.43153 11.8809 7.47808 10.7448 7.29472C10.5615 7.25805 10.3783 7.25805 10.2317 7.22138C10.1217 7.22138 9.97513 7.22138 9.93848 7.07469C9.90183 6.96468 10.0118 6.85466 10.1217 6.85466C10.1584 6.85466 10.195 6.85466 10.195 6.85466C11.6976 6.89134 10.2683 6.85466 10.195 6.85466C11.7343 6.89134 13.017 7.91813 13.2736 9.45832C13.3102 9.71502 13.3469 9.97172 13.3469 10.2651C13.4202 10.3751 13.3469 10.4851 13.2369 10.4851Z" fill="white"/>
</svg>
