<svg width="40" height="40" viewBox="0 0 40 40" fill="none" xmlns="http://www.w3.org/2000/svg">
<circle cx="20" cy="20" r="20" fill="#BB2831"/>
<path d="M29.806 25.1155C29.806 25.0324 29.723 25.0324 29.723 24.9494C29.3909 24.2852 28.6437 23.455 27.6474 22.5417C27.1493 22.1266 26.9002 21.7945 26.7342 21.6285C26.4851 21.2964 26.4851 21.0473 26.5681 20.7152C26.6512 20.4662 26.9832 20.0511 27.5644 19.3038C27.8965 18.8887 28.0625 18.6397 28.3116 18.3906C29.5569 16.7301 30.1381 15.6508 29.972 15.1527L29.889 15.0697C29.806 14.9867 29.723 14.9036 29.5569 14.9036C29.3909 14.8206 29.1418 14.8206 28.8928 14.9036H25.7379C25.6549 14.9036 25.6549 14.9036 25.4888 14.9036C25.4058 14.9036 25.3228 14.9036 25.3228 14.9036H25.2398H25.1567L25.0737 14.9867C24.9907 15.0697 24.9907 15.0697 24.9907 15.1527C24.6586 16.066 24.2435 16.8132 23.8284 17.6434C23.5793 18.0585 23.3302 18.4736 23.0812 18.8057C22.8321 19.1378 22.666 19.3869 22.5 19.5529C22.3339 19.719 22.1679 19.802 22.0849 19.968C22.0018 20.0511 21.8358 20.1341 21.8358 20.0511C21.7528 20.0511 21.6698 20.0511 21.6698 19.968C21.5867 19.885 21.5037 19.802 21.4207 19.719C21.3377 19.6359 21.3377 19.4699 21.2546 19.3038C21.2546 19.1378 21.2546 18.9718 21.2546 18.8887C21.2546 18.8057 21.2546 18.5566 21.2546 18.3906C21.2546 18.1415 21.2546 17.9755 21.2546 17.8925C21.2546 17.6434 21.2546 17.3113 21.2546 16.9792C21.2546 16.6471 21.2546 16.398 21.2546 16.232C21.2546 16.066 21.2546 15.8169 21.2546 15.6508C21.2546 15.4018 21.2546 15.2357 21.2546 15.1527C21.2546 15.0697 21.1716 14.9036 21.1716 14.8206C21.0886 14.7376 21.0056 14.6546 20.9226 14.5715C20.8395 14.4885 20.6735 14.4885 20.5905 14.4055C20.1754 14.3225 19.6772 14.2395 19.0961 14.2395C17.7677 14.2395 16.8544 14.3225 16.5223 14.4885C16.3563 14.5716 16.1903 14.6546 16.1072 14.8206C15.9412 14.9867 15.9412 15.0697 16.0242 15.0697C16.4393 15.1527 16.7714 15.3187 16.9375 15.5678L17.0205 15.7339C17.1035 15.8169 17.1035 15.9829 17.1865 16.232C17.2695 16.4811 17.2696 16.7301 17.2696 17.0622C17.2696 17.5604 17.2696 18.0585 17.2696 18.3906C17.2696 18.8057 17.1865 19.0548 17.1865 19.3038C17.1865 19.5529 17.1035 19.719 17.0205 19.802C16.9375 19.968 16.9375 20.0511 16.8544 20.0511C16.8544 20.0511 16.8544 20.1341 16.7714 20.1341C16.6884 20.1341 16.6054 20.2171 16.4393 20.2171C16.3563 20.2171 16.1903 20.1341 16.1072 20.0511C15.9412 19.968 15.7751 19.802 15.6921 19.6359C15.5261 19.4699 15.36 19.2208 15.194 18.8887C15.0279 18.5566 14.7789 18.2246 14.6128 17.7264L14.4468 17.3943C14.3638 17.2283 14.1977 16.8962 14.0317 16.4811C13.8656 16.066 13.6996 15.7339 13.5335 15.3188C13.4505 15.1527 13.3675 15.0697 13.2845 14.9867H13.2014C13.2014 14.9867 13.1184 14.9036 13.0354 14.9036C12.9524 14.9036 12.8693 14.8206 12.7863 14.8206H9.79749C9.4654 14.8206 9.29935 14.9036 9.21633 14.9867L9.1333 15.0697C9.1333 15.0697 9.1333 15.1527 9.1333 15.2357C9.1333 15.3188 9.13331 15.4018 9.21633 15.5678C9.63144 16.5641 10.1296 17.5604 10.6277 18.5566C11.1259 19.4699 11.624 20.3001 11.9561 20.8813C12.3712 21.4625 12.7033 22.0436 13.1184 22.5417C13.5335 23.0399 13.7826 23.372 13.8656 23.538C14.0317 23.7041 14.1147 23.7871 14.1977 23.8701L14.4468 24.1192C14.6128 24.2852 14.8619 24.5343 15.194 24.7834C15.5261 25.0324 15.9412 25.2815 16.3563 25.5306C16.7714 25.7796 17.2696 25.9457 17.7677 26.1117C18.3489 26.2778 18.847 26.3608 19.3451 26.2778H20.5905C20.8395 26.2778 21.0056 26.1948 21.1716 26.0287L21.2546 25.9457C21.2546 25.8627 21.3377 25.8627 21.3377 25.7796C21.3377 25.6966 21.3377 25.6136 21.3377 25.4476C21.3377 25.1155 21.3377 24.8664 21.4207 24.6173C21.5037 24.3683 21.5037 24.2022 21.5868 24.0362C21.6698 23.8701 21.7528 23.7871 21.8358 23.7041C21.9188 23.621 22.0019 23.538 22.0019 23.538H22.0849C22.2509 23.455 22.5 23.538 22.666 23.7041C22.9151 23.8701 23.1642 24.1192 23.3302 24.3683C23.4963 24.6173 23.7453 24.8664 24.0774 25.1985C24.4095 25.5306 24.6586 25.7796 24.8246 25.8627L25.0737 26.0287C25.2397 26.1117 25.4058 26.1948 25.6549 26.2778C25.9039 26.3608 26.07 26.3608 26.236 26.3608L29.0588 26.2778C29.3079 26.2778 29.5569 26.1948 29.723 26.1117C29.889 26.0287 29.972 25.9457 29.972 25.7796C29.972 25.6966 29.972 25.5306 29.972 25.4476C29.806 25.2815 29.806 25.1985 29.806 25.1155Z" fill="white"/>
</svg>
