<svg width="114" height="114" viewBox="0 0 114 114" fill="none" xmlns="http://www.w3.org/2000/svg">
<path d="M107.065 30.495C106.501 28.2407 105.352 26.1752 103.734 24.5072C102.116 22.8391 100.086 21.6276 97.85 20.995C89.68 19 57 19 57 19C57 19 24.32 19 16.15 21.185C13.9139 21.8176 11.8844 23.0291 10.2664 24.6972C8.64837 26.3652 7.49921 28.4307 6.93497 30.685C5.43974 38.9764 4.70834 47.3875 4.74997 55.8125C4.69667 64.301 5.42812 72.7762 6.93497 81.13C7.55702 83.3143 8.73192 85.3012 10.3462 86.8988C11.9604 88.4964 13.9594 89.6506 16.15 90.25C24.32 92.435 57 92.435 57 92.435C57 92.435 89.68 92.435 97.85 90.25C100.086 89.6174 102.116 88.4058 103.734 86.7378C105.352 85.0698 106.501 83.0043 107.065 80.75C108.549 72.521 109.28 64.1741 109.25 55.8125C109.303 47.324 108.572 38.8488 107.065 30.495Z" fill="#EC3323"/>
<path d="M46.3125 71.345L73.625 55.8125L46.3125 40.28V71.345Z" fill="white"/>
</svg>
