<svg width="30" height="30" fill="none" xmlns="http://www.w3.org/2000/svg"><circle cx="15" cy="15" r="14" fill="#fff" stroke="#BB2831" stroke-width="2"/><path d="M21.125 17.946v1.92a1.28 1.28 0 01-1.395 1.279 12.661 12.661 0 01-5.522-1.964 12.476 12.476 0 01-3.838-3.84 12.662 12.662 0 01-1.965-5.546A1.28 1.28 0 019.68 8.4h1.919a1.28 1.28 0 011.28 1.1c.08.615.23 1.218.447 1.798a1.28 1.28 0 01-.287 1.35l-.813.813a10.237 10.237 0 003.839 3.839l.812-.813a1.28 1.28 0 011.35-.288 8.19 8.19 0 001.798.448 1.28 1.28 0 011.1 1.299z" fill="#BB2831"/></svg>