<svg width="328" height="55" fill="none" xmlns="http://www.w3.org/2000/svg"><g filter="url(#filter0_d_226_772)"><path fill-rule="evenodd" clip-rule="evenodd" d="M291.856 11.122a14.717 14.717 0 015.582-1.065h8.366c10.578 0 19.327 5.435 19.327 13.648v1.437a9.127 9.127 0 01-.358 2.55 9.59 9.59 0 01.86 3.998v1.413c0 8.512-9.024 13.768-19.829 13.768h-8.366a14.717 14.717 0 01-5.582-1.066 28.357 28.357 0 01-8.498 1.198 28.758 28.758 0 01-7.614-.994 15.241 15.241 0 01-4.996.802h-4.674a15.626 15.626 0 01-4.099-.527c-1.298.35-2.637.527-3.981.527h-3.968c-1.007 0-2.012-.1-3-.3-.988.2-1.993.3-3 .3h-4.016a15.11 15.11 0 01-4.291-.61 15.84 15.84 0 01-4.398.61h-3.765a15.512 15.512 0 01-3.001-.3c-.987.2-1.992.3-3 .3h-4.004c-1.439.002-2.872-.2-4.255-.599-1.379.4-2.807.6-4.243.599h-3.956a14.858 14.858 0 01-5.367-.982 28.633 28.633 0 01-7.554.982h-7.924c-1.008 0-2.013-.1-3-.3-.988.2-1.993.3-3 .3h-4.016a14.804 14.804 0 01-5.236-.934h-.071a20.556 20.556 0 01-6.132.91h-2.391a14.92 14.92 0 01-4.458-.67 29.619 29.619 0 01-14.701-.132 15.24 15.24 0 01-4.996.802h-4.674a15.52 15.52 0 01-4.088-.527 15.51 15.51 0 01-3.992.527h-3.908a15.354 15.354 0 01-3-.3 15.27 15.27 0 01-3 .3H94.257a13.885 13.885 0 01-8.08-2.394 13.848 13.848 0 01-8.08 2.394h-3.991a14.966 14.966 0 01-4.399-.646 15.442 15.442 0 01-4.494.646h-4.35a16.31 16.31 0 01-2.451-.096 15.44 15.44 0 01-2.39.18h-4.005a15.062 15.062 0 01-3.717-.455c-1.482 3.592-5.976 6.202-11.175 6.202h-4.112a14.157 14.157 0 01-7.446-2.024 14.23 14.23 0 01-7.459 2.023h-4.004c-6.454 0-11.713-3.962-11.713-8.823v-8.86c0-2.98 1.972-5.614 4.984-7.183.848-3.591 1.087-10.128 1.195-12.523v-.203a6.872 6.872 0 010-.994l.18-3.136c.238-4.79 5.402-8.5 11.7-8.5h14.212c5.977 0 10.853 3.352 11.606 7.662h9.742a14.728 14.728 0 015.88 1.197 28.13 28.13 0 018.367-1.197h7.876c2.877-.061 5.7.776 8.08 2.394a13.884 13.884 0 018.08-2.394h4.016c.947 0 1.891.088 2.821.263.93-.174 1.875-.262 2.821-.263h3.98c.946 0 1.891.088 2.821.263a15.52 15.52 0 012.797-.263h4.016c1.007 0 2.012.1 3 .299a15.354 15.354 0 013-.3h3.968a15.054 15.054 0 014.016.54 15.17 15.17 0 014.112-.54h4.625a15.247 15.247 0 014.997.803 28.824 28.824 0 017.613-.994 27.454 27.454 0 0110.232 1.88 14.321 14.321 0 016.896-1.688h12.204c1.007 0 2.012.1 3 .299a15.247 15.247 0 013-.3h4.016c3.007-.036 5.944.91 8.367 2.694a13.799 13.799 0 018.366-2.693h3.957c1.435-.002 2.864.2 4.243.598a15.27 15.27 0 014.255-.598h4.004c1.007 0 2.012.1 3 .299a15.51 15.51 0 013-.3h3.968c1.465 0 2.922.21 4.327.623a15.42 15.42 0 014.422-.622h3.754c1.007 0 2.012.1 3 .299a15.247 15.247 0 013-.3h3.968a15.054 15.054 0 014.016.54 15.166 15.166 0 014.112-.54h4.625a15.237 15.237 0 014.996.803 28.768 28.768 0 017.614-.994c2.92-.027 5.827.397 8.618 1.257z" fill="#fff"/><path d="M37.818 46.488H33.55v-7.854H15.622v7.854h-4.267V34.61h1.877a39.634 39.634 0 004.53-8.093 77.075 77.075 0 004.302-15.264h12.694V34.61h3.06v11.877zM30.085 34.61V15.23h-4.662a61.61 61.61 0 01-2.857 11.11 32.803 32.803 0 01-4.171 8.308l11.69-.036zm28.972 4.024h-4.554V22.28h-4.936a43.469 43.469 0 01-.944 7.806 15.458 15.458 0 01-2.176 5.567 6.792 6.792 0 01-2.952 2.574c-1.28.458-2.634.673-3.992.635v-4.143a4.07 4.07 0 003.096-1.28 11.143 11.143 0 002.091-5.03c.606-2.811.895-5.683.86-8.56v-1.196h13.507v19.981zm21.419 0h-4.59v-7.59h-1.195c-3.506 0-5.47 1.508-5.893 4.525a3.511 3.511 0 01-2.51 3.177 3.496 3.496 0 01-1.422.115c-.64.004-1.278-.036-1.912-.12v-3.83c.266.06.54.084.812.072.55 0 .909-.36 1.064-1.102a5.487 5.487 0 011.41-2.753 5.843 5.843 0 012.785-1.593c-3.235-.598-4.852-2.338-4.852-5.22a5.48 5.48 0 011.888-4.238c1.251-1.125 3.311-1.688 6.18-1.688 1.685 0 4.422.096 8.235.3v19.945zm-4.59-11.098V22.04c-1.004-.096-2.211-.144-3.645-.144a3.582 3.582 0 00-2.522.754 2.54 2.54 0 00-.801 1.952 2.494 2.494 0 001.076 2.083 4.776 4.776 0 002.916.85h2.976zm46.52 11.098H97.042v-20.03h4.554V34.84h5.881V18.605h4.518v16.234h5.976V18.605h4.518l-.083 20.03zm22.016.108c-.718.085-1.44.125-2.163.12a3.719 3.719 0 01-2.797-.924 3.74 3.74 0 01-1.255-2.668c-.51-3.504-2.502-5.256-5.977-5.256h-.119v8.62h-4.626v-20.03h4.626v7.531h.227c3.387 0 5.299-1.44 5.737-4.322a3.598 3.598 0 012.49-3.282c.465-.15.956-.201 1.443-.154.358 0 1.051 0 2.115.108v3.795a4.85 4.85 0 00-.872-.084c-.502 0-.849.383-1.028 1.197a6.063 6.063 0 01-1.809 3.166 6.045 6.045 0 01-3.295 1.551 7.029 7.029 0 015.438 5.819c.144.742.479 1.101.992 1.101.305.015.61-.009.909-.071l-.036 3.783zm2.689-10.189a10.63 10.63 0 012.63-7.446 10.08 10.08 0 0114.008-.096 10.785 10.785 0 012.522 7.543 10.784 10.784 0 01-2.522 7.686 9.19 9.19 0 01-6.98 2.765 8.988 8.988 0 01-7.052-2.825 10.99 10.99 0 01-2.606-7.627zm4.853 0c0 4.43 1.59 6.645 4.781 6.645a4.12 4.12 0 003.418-1.676 7.963 7.963 0 001.303-4.944c0-4.35-1.593-6.521-4.781-6.513a4.093 4.093 0 00-3.454 1.7 7.839 7.839 0 00-1.267 4.788zm36.025 10.081h-4.554V22.28h-4.924a44.657 44.657 0 01-.945 7.806 15.67 15.67 0 01-2.175 5.567 6.803 6.803 0 01-2.964 2.574c-1.28.46-2.634.675-3.992.635v-4.143a4.087 4.087 0 003.107-1.28 11.148 11.148 0 002.092-5.03c.606-2.811.895-5.683.86-8.56v-1.196h13.495v19.981zm9.681-12.87a52.583 52.583 0 014.088-.144 9.075 9.075 0 015.893 1.736 5.989 5.989 0 012.139 4.969 5.93 5.93 0 01-1.924 4.633c-1.279 1.197-3.359 1.724-6.216 1.724h-8.617V18.605h4.637v7.16zm0 9.183c1.243.048 2.439.072 3.586.072 2.546 0 3.825-.97 3.825-2.934a2.707 2.707 0 00-.885-2.047 4.177 4.177 0 00-2.892-.826c-.693 0-1.901 0-3.586.108l-.048 5.627zm33.646 3.687h-4.661V30.05h-8.295v8.584h-4.673v-20.03h4.673v7.567h8.295v-7.566h4.661v20.03zm22.997 0h-4.673V26.53l-12.013 12.571h-1.267V18.605h4.674v12.104l12.012-12.571h1.267v20.496zm22.017.108a17.33 17.33 0 01-2.164.12 3.723 3.723 0 01-3.698-2.129 3.747 3.747 0 01-.354-1.463c-.518-3.504-2.51-5.256-5.976-5.256h-.119v8.62h-4.65v-20.03h4.626v7.531h.227c3.378 0 5.291-1.44 5.737-4.322a3.596 3.596 0 012.49-3.282c.465-.15.956-.201 1.442-.154.351 0 1.056.036 2.116.108v3.795a4.874 4.874 0 00-.884-.084c-.491 0-.837.383-1.028 1.197a5.974 5.974 0 01-5.092 4.717 7.042 7.042 0 015.438 5.819c.144.742.478 1.101.98 1.101.309.015.618-.01.921-.071l-.012 3.783zm2.689-10.188a10.675 10.675 0 012.617-7.447 10.09 10.09 0 0114.056-.096 10.78 10.78 0 012.522 7.543 10.784 10.784 0 01-2.617 7.686 9.193 9.193 0 01-6.98 2.765 9.033 9.033 0 01-7.064-2.825 11.033 11.033 0 01-2.534-7.626zm4.852 0c0 4.43 1.594 6.644 4.781 6.644a4.12 4.12 0 003.407-1.676 7.976 7.976 0 001.303-4.944c0-4.35-1.594-6.521-4.781-6.513a4.093 4.093 0 00-3.455 1.7 7.848 7.848 0 00-1.255 4.789zm31.077-.599c2.606.934 3.908 2.618 3.908 5.052a4.941 4.941 0 01-1.984 4.107 9.549 9.549 0 01-5.904 1.52h-8.941V18.641c3.741-.18 6.658-.264 8.726-.264a8.36 8.36 0 015.342 1.509 4.785 4.785 0 011.841 4.058 4.038 4.038 0 01-.789 2.395 4.783 4.783 0 01-2.199 1.616zm-8.367-1.532h3.909c2.127 0 3.059-.779 3.059-2.395a1.984 1.984 0 00-.752-1.628 3.346 3.346 0 00-2.092-.599c-1.642 0-3.016.048-4.124.144v4.477zm0 8.56a91.93 91.93 0 004.088.095c2.39 0 3.645-.886 3.645-2.658a2.154 2.154 0 00-1.051-1.975 4.779 4.779 0 00-2.594-.658h-4.088v5.196z" fill="#264C96"/></g><defs><filter id="filter0_d_226_772" x="-.609" y="-.606" width="329.243" height="56.224" filterUnits="userSpaceOnUse" color-interpolation-filters="sRGB"><feFlood flood-opacity="0" result="BackgroundImageFix"/><feColorMatrix in="SourceAlpha" values="0 0 0 0 0 0 0 0 0 0 0 0 0 0 0 0 0 0 127 0" result="hardAlpha"/><feOffset/><feGaussianBlur stdDeviation="1.5"/><feComposite in2="hardAlpha" operator="out"/><feColorMatrix values="0 0 0 0 0 0 0 0 0 0 0 0 0 0 0 0 0 0 0.15 0"/><feBlend in2="BackgroundImageFix" result="effect1_dropShadow_226_772"/><feBlend in="SourceGraphic" in2="effect1_dropShadow_226_772" result="shape"/></filter></defs></svg>