<svg width="214" height="84" fill="none" xmlns="http://www.w3.org/2000/svg"><g clip-path="url(#clip0_217_727)"><g filter="url(#filter0_d_217_727)"><path fill-rule="evenodd" clip-rule="evenodd" d="M184.224 71.567a13.597 13.597 0 01-5.215 5.411 13.505 13.505 0 01-14.396-.56 13.617 13.617 0 01-4.784-5.799c-.689-.198-1.406-.424-2.04-.693a24.415 24.415 0 01-2.616-1.216 13.84 13.84 0 01-3.053 1.414 16.96 16.96 0 01-2.898.693 15.399 15.399 0 01-5.262 0 16.96 16.96 0 01-2.898-.693c-1.09-.367-2.13-.87-3.095-1.499-.845.467-1.719.878-2.617 1.23a24.642 24.642 0 01-9.088 1.67 22.882 22.882 0 01-3.545-.227 45.393 45.393 0 01-2.35-.396 18.869 18.869 0 00-1.561-.226 12.588 12.588 0 00-1.632 0h-.141l-1.069.099a12.052 12.052 0 01-7.935-2.009c-.833.452-1.693.854-2.574 1.203a24.645 24.645 0 01-9.088 1.612 22.89 22.89 0 01-3.546-.283 45.374 45.374 0 01-2.35-.396 18.87 18.87 0 00-1.56-.226 12.587 12.587 0 00-1.633 0h-.14l-1.07.099a12.375 12.375 0 01-5.247-.637 12.418 12.418 0 01-5.262.637l-1.055-.1h-.14a12.587 12.587 0 00-1.633 0c-.52 0-1.055.128-1.561.227-.76.141-1.52.283-2.28.396-1.195.186-2.404.28-3.615.283h-.154a15.661 15.661 0 01-5.693 7.55 15.533 15.533 0 01-8.981 2.872 15.673 15.673 0 01-5.712-1.089 13.402 13.402 0 01-3.63.665h-1.546a13.525 13.525 0 01-8.035-3.365 13.649 13.649 0 01-4.345-7.58h-.549l-1.07.098a11.914 11.914 0 01-5.098-.589 11.96 11.96 0 01-4.385-2.68 12.04 12.04 0 01-2.865-4.28 12.092 12.092 0 01-.82-5.094c0-.919 0-1.824.127-2.743.127-.92.099-1.612.141-2.404.042-.792.085-1.542.113-2.305.028-.764 0-1.64 0-2.447v-2.715c0-.905 0-2.164-.085-3.253 0-1.329-.098-2.672-.126-4.002v-2.56a15.575 15.575 0 01-8.295-6.683A15.708 15.708 0 012.176 18.5a15.664 15.664 0 015.09-9.38 15.515 15.515 0 019.895-3.907 13.52 13.52 0 015.816-2.892 13.48 13.48 0 016.487.158 13.529 13.529 0 015.67 3.173 13.626 13.626 0 013.552 5.458c.96-.187 1.934-.282 2.912-.282 1.884 0 3.75.373 5.491 1.098a14.347 14.347 0 014.656 3.127 14.428 14.428 0 013.11 4.68 14.49 14.49 0 011.093 5.52 17.81 17.81 0 015.29.919c1.463.48 2.83 1.217 4.037 2.177a13.003 13.003 0 014.038-2.177c.944-.32 1.913-.557 2.898-.708l.886-.113a11.327 11.327 0 013.433-6.01 13.213 13.213 0 014.22-2.645 16.443 16.443 0 013.152-.834 15.901 15.901 0 015.346 0l.816.156a14.224 14.224 0 016.865-1.98 11.905 11.905 0 017.786-1.46 11.939 11.939 0 016.986 3.75c.68-.195 1.37-.35 2.068-.466a15.901 15.901 0 015.346 0 16.46 16.46 0 013.152.835 13.219 13.219 0 014.22 2.644 11.515 11.515 0 013.32 5.657c1.011.138 2.012.341 2.997.608a11.51 11.51 0 013.728-6.477 12.895 12.895 0 014.502-2.574c.944-.32 1.913-.557 2.898-.707a16.418 16.418 0 015.262 0c.984.15 1.954.387 2.898.707a13.035 13.035 0 014.502 2.574 11.403 11.403 0 013.714 6.463 25.84 25.84 0 016.584-.82 26.225 26.225 0 013.334.197 14.506 14.506 0 01-.857-9.854 14.432 14.432 0 015.654-8.097 14.308 14.308 0 0118.416 1.674 15.48 15.48 0 016.791.205c2.221.57 4.29 1.627 6.057 3.094a15.625 15.625 0 014.168 5.394 15.707 15.707 0 011.484 6.665 15.614 15.614 0 01-2.603 8.655 11.961 11.961 0 012.49 8.174 13.795 13.795 0 01-1.533 5.487 17.477 17.477 0 011.646 7.58 17.26 17.26 0 01-1.913 8.004 16.375 16.375 0 01-5.473 6.095 20.416 20.416 0 01-6.415 2.829 27.088 27.088 0 01-6.57.763 23.666 23.666 0 01-6.373-.82c-.309.269-.633.52-.971.75z" fill="#fff"/></g><path fill-rule="evenodd" clip-rule="evenodd" d="M22.704 27.741a1.036 1.036 0 01.352-.778c.253-.23.55-.408.872-.523a4.99 4.99 0 011.097-.283 5.376 5.376 0 012.054 0c.375.054.743.15 1.098.283.318.115.61.293.858.523a1.045 1.045 0 01.365.778c0 1.669 0 3.14-.07 4.44-.07 1.302-.084 2.306-.127 3.013-.042.707.31.863.915.764l1.294-.213 1.548-.24a31.771 31.771 0 011.561-.212 9.8 9.8 0 011.337-.1c1.806-.023 3.6.294 5.29.934a11.543 11.543 0 014.066 2.644 11.617 11.617 0 012.63 4.088c1.24 3.43 1.24 7.19 0 10.62a11.928 11.928 0 01-2.63 4.087 11.712 11.712 0 01-4.066 2.645 14.101 14.101 0 01-5.29.947 15.145 15.145 0 01-2.012-.141l-1.984-.34a33.913 33.913 0 00-2.25-.339 23.956 23.956 0 00-2.814-.141h-1.126l-1.027.099a1.624 1.624 0 01-1.407-.439 1.74 1.74 0 01-.478-1.414c0-.905.07-1.754.127-2.545.056-.793.098-1.613.14-2.433.043-.82.085-1.655.127-2.531.042-.877 0-1.81 0-2.829v-2.828c0-1.075-.084-2.263-.084-3.479 0-1.216-.085-2.517-.113-3.846a157.47 157.47 0 00-.127-3.847c-.056-1.23-.07-2.404-.084-3.507-.014-1.103 0-2.065 0-2.828l-.042-.029zm6.457 20.435c0 2.659.577 4.525 1.717 5.657a7.01 7.01 0 004.98 1.612 7.01 7.01 0 004.98-1.612c1.14-1.075 1.716-2.942 1.716-5.657s-.576-4.525-1.716-5.657a7.01 7.01 0 00-4.98-1.612 7.01 7.01 0 00-4.98 1.612c-1.14 1.075-1.717 2.942-1.717 5.657zm26.547-12.501c.354.004.707.037 1.056.099a6.69 6.69 0 011.195.283c.351.107.677.285.957.523a1.003 1.003 0 01.38.778v2.517c0 .778 0 1.598-.084 2.432-.085.835 0 1.711 0 2.645v3.224c0 2.659.492 4.544 1.477 5.657a6.197 6.197 0 004.586 1.555 6.175 6.175 0 004.741-1.612c.985-1.075 1.477-2.96 1.477-5.657v-3.224c0-.933 0-1.81-.084-2.644-.085-.835 0-1.64 0-2.433v-2.517a1.007 1.007 0 01.38-.778c.28-.237.606-.415.956-.523.39-.13.79-.225 1.196-.283a5.668 5.668 0 012.11 0c.407.058.807.152 1.196.283.351.108.677.286.957.523a1.004 1.004 0 01.38.778c0 .891 0 1.74-.07 2.517-.07.778-.113 1.598-.17 2.433-.056.834-.126 1.71-.168 2.644-.042.933-.24 2.065-.24 3.281v2.828c0 .863.071 1.712.127 2.532.056.82.099 1.626.141 2.432.042.806.084 1.64.127 2.546a1.805 1.805 0 01-.479 1.414 1.63 1.63 0 01-1.407.438l-1.027-.099h-1.125c-.94-.008-1.88.039-2.814.142a36.81 36.81 0 00-2.25.34l-1.97.338a14.86 14.86 0 01-2.026.142 13.85 13.85 0 01-5.234-.948 11.656 11.656 0 01-4.097-2.66 11.73 11.73 0 01-2.656-4.114 14.334 14.334 0 01-.928-5.26v-3.225c0-.933 0-1.81-.084-2.644-.085-.834 0-1.64 0-2.432v-2.518a1.008 1.008 0 01.38-.777 2.71 2.71 0 01.956-.524c.39-.13.79-.225 1.196-.283a6.493 6.493 0 011.055-.099l-.112-.07zm27.504-7.934a1.036 1.036 0 01.352-.778c.253-.23.55-.408.872-.523.354-.136.722-.23 1.098-.283a5.376 5.376 0 012.054 0c.375.054.743.15 1.097.283.318.115.61.293.858.523a1.044 1.044 0 01.366.778v4.44c0 1.302-.085 2.306-.127 3.013-.042.707.31.863.915.764.352 0 .773-.142 1.294-.213l1.548-.24a31.787 31.787 0 011.561-.212 9.8 9.8 0 011.337-.1c1.806-.023 3.6.294 5.289.934a11.554 11.554 0 014.067 2.644 11.626 11.626 0 012.63 4.088 15.637 15.637 0 010 10.62 11.933 11.933 0 01-2.631 4.087 11.707 11.707 0 01-4.066 2.645 14.1 14.1 0 01-5.29.947 15.146 15.146 0 01-2.011-.141l-1.984-.34c-.69-.127-1.407-.24-2.25-.339a23.956 23.956 0 00-2.814-.141H86.25l-1.027.099a1.624 1.624 0 01-1.407-.439 1.742 1.742 0 01-.478-1.414c0-.905 0-1.754.127-2.545.126-.793.098-1.613.14-2.433.043-.82.085-1.655.127-2.531.042-.877 0-1.81 0-2.829v-2.828c0-1.075-.169-2.263-.169-3.479 0-1.216-.084-2.517-.112-3.846a156.97 156.97 0 00-.127-3.847c-.056-1.23 0-2.404-.085-3.507-.084-1.103 0-2.065 0-2.828l-.028-.029zm6.458 20.435c0 2.659.577 4.525 1.716 5.657a7.01 7.01 0 004.98 1.612 7.012 7.012 0 004.981-1.612c1.139-1.075 1.716-2.942 1.716-5.657s-.577-4.525-1.716-5.657a7.012 7.012 0 00-4.98-1.612 7.01 7.01 0 00-4.98 1.612c-1.14 1.075-1.717 2.942-1.717 5.657zm23.438-20.435a1.032 1.032 0 01.352-.778c.253-.23.549-.408.872-.523a4.99 4.99 0 011.097-.283 5.376 5.376 0 012.054 0c.375.054.743.15 1.097.283.319.115.611.293.859.523a1.05 1.05 0 01.365.778c0 1.669 0 3.14-.07 4.44-.07 1.302-.084 2.306-.127 3.013-.042.707.31.863.915.764.352 0 .774-.142 1.294-.213l1.548-.24a31.748 31.748 0 011.561-.212c.443-.064.89-.097 1.337-.1 1.806-.023 3.6.294 5.29.934a11.55 11.55 0 014.066 2.644 11.612 11.612 0 012.63 4.088c1.24 3.43 1.24 7.19 0 10.62a11.918 11.918 0 01-2.631 4.087 11.713 11.713 0 01-4.065 2.645 14.103 14.103 0 01-5.29.947 15.151 15.151 0 01-2.012-.141l-1.984-.34a33.638 33.638 0 00-2.251-.339 23.938 23.938 0 00-2.813-.141h-1.126l-1.027.099a1.623 1.623 0 01-1.407-.439 1.749 1.749 0 01-.534-1.287c0-.905 0-1.753.126-2.545.127-.792.099-1.612.141-2.433.042-.82.085-1.654.127-2.531.042-.877 0-1.81 0-2.828v-2.829c0-1.075 0-2.277-.099-3.507-.098-1.23-.084-2.517-.112-3.846-.028-1.33 0-2.617-.127-3.847s-.056-2.503-.056-3.606V27.74zm6.457 20.435c0 2.659.577 4.525 1.717 5.657a8.507 8.507 0 009.96 0c1.14-1.075 1.716-2.942 1.716-5.657s-.576-4.525-1.716-5.657a8.507 8.507 0 00-9.96 0c-1.14 1.075-1.717 2.942-1.717 5.657zm27.026-22.132c.354.004.706.037 1.055.1.406.057.807.151 1.196.282.35.108.676.286.956.523a1.008 1.008 0 01.38.778v3.295c0 1.301 0 2.659-.084 4.087-.085 1.428 0 2.828-.071 4.243-.07 1.414 0 2.757 0 3.973v3.946c0 1.442 0 2.828.071 4.242.07 1.415 0 2.829.084 4.087.085 1.26 0 2.39 0 3.295a.994.994 0 01-.38.764c-.283.237-.607.42-.956.538a8.196 8.196 0 01-1.196.282 5.667 5.667 0 01-2.11 0 8.196 8.196 0 01-1.196-.282 2.97 2.97 0 01-.957-.538 1.01 1.01 0 01-.38-.764v-7.382c0-1.428 0-2.828.085-4.242.084-1.414 0-2.758 0-3.946v-3.973c0-1.429 0-2.829-.085-4.243-.084-1.414 0-2.828 0-4.087v-3.295a1.008 1.008 0 01.38-.778c.281-.237.606-.415.957-.523.389-.13.789-.225 1.196-.283a6.463 6.463 0 011.055-.099zm20.329 9.136a15.395 15.395 0 014.572.65c1.317.386 2.566.977 3.7 1.754a8.799 8.799 0 012.518 2.602 6.375 6.375 0 01.929 3.366 7.104 7.104 0 01-.929 3.776 7.341 7.341 0 01-2.518 2.446 11.467 11.467 0 01-3.7 1.33c-1.51.262-3.04.39-4.572.381a20.675 20.675 0 01-3.236-.24c-.971-.17-1.745-.325-2.307-.481a.742.742 0 00-.704.113.6.6 0 00-.112.608c.119.436.294.854.52 1.245.285.484.657.911 1.098 1.258a6.438 6.438 0 001.871.962 9.156 9.156 0 002.813.382c.78.013 1.559-.063 2.322-.227a8.037 8.037 0 001.702-.551 6.16 6.16 0 001.238-.764c.334-.27.654-.557.957-.862a2.266 2.266 0 011.674-.68c.387.004.77.086 1.125.241.363.16.696.38.985.65.288.281.531.606.718.962.188.383.285.804.281 1.23a3.375 3.375 0 01-.718 1.924 7.136 7.136 0 01-2.11 1.867 12.517 12.517 0 01-3.432 1.414 18.446 18.446 0 01-4.742.551c-1.83.03-3.649-.291-5.36-.947a11.374 11.374 0 01-4.065-2.659 12.128 12.128 0 01-2.575-4.115 15.633 15.633 0 010-10.535 11.932 11.932 0 012.575-4.102 11.246 11.246 0 014.065-2.672 14.607 14.607 0 015.36-.934l.057.057zm-5.543 10.337a56.7 56.7 0 002.434.453c1.027.175 2.067.265 3.109.269a9.703 9.703 0 003.925-.707c1.055-.453 1.575-1.103 1.575-1.938 0-.834-.52-1.47-1.631-1.994a9.726 9.726 0 00-3.926-.693 9.794 9.794 0 00-2.813.34 6.423 6.423 0 00-1.9.834 3.908 3.908 0 00-1.111 1.089c-.24.334-.421.707-.535 1.103a.924.924 0 00.127.735.97.97 0 00.647.467l.099.042zm23.002 7.453c.389.044.764.175 1.097.382a26.42 26.42 0 001.73.82c.676.297 1.407.552 2.237.82a8.754 8.754 0 002.589.382 6.64 6.64 0 002.589-.367 1.141 1.141 0 00.759-1.075 1.71 1.71 0 00-1.027-1.5 15.595 15.595 0 00-2.56-1.074l-3.349-1.131a16.65 16.65 0 01-3.348-1.556 8.736 8.736 0 01-2.56-2.475 6.566 6.566 0 01-1.027-3.776 6.712 6.712 0 01.717-3.181 6.232 6.232 0 012.054-2.235 10.332 10.332 0 013.18-1.343 16.657 16.657 0 014.094-.453 13.45 13.45 0 013.686.453 14.12 14.12 0 012.813 1.103c.682.375 1.336.8 1.956 1.272.399.312.775.652 1.125 1.019a1.412 1.412 0 01.38 1.173c-.036.497-.18.98-.422 1.415a4.14 4.14 0 01-1.013 1.202 2.061 2.061 0 01-1.336.509 2.878 2.878 0 01-1.084-.382 18.892 18.892 0 00-1.744-.82 20.308 20.308 0 00-2.237-.82 8.823 8.823 0 00-2.589-.382 6.69 6.69 0 00-2.588.353 1.153 1.153 0 00-.76 1.09 1.63 1.63 0 001.027 1.413c.824.43 1.68.794 2.561 1.09l3.348 1.145a16.26 16.26 0 013.348 1.598 8.563 8.563 0 012.561 2.474 6.524 6.524 0 011.027 3.776 6.627 6.627 0 01-.718 3.14 6.062 6.062 0 01-2.054 2.262 10.012 10.012 0 01-3.179 1.415c-1.341.323-2.716.48-4.094.466a13.34 13.34 0 01-3.686-.466 12.62 12.62 0 01-2.814-1.103 11.11 11.11 0 01-1.927-1.301 35.07 35.07 0 01-1.154-.976 1.422 1.422 0 01-.38-1.188c.036-.497.18-.98.422-1.414a4.114 4.114 0 011.013-1.202c.37-.33.843-.52 1.337-.538v-.014zM50.447 61.158c1.027 0 2.031.307 2.886.88a5.212 5.212 0 011.911 2.345 5.244 5.244 0 01-1.131 5.688 5.166 5.166 0 01-5.662 1.122 5.198 5.198 0 01-2.327-1.928 5.238 5.238 0 01-.868-2.903 5.227 5.227 0 011.521-3.684 5.174 5.174 0 013.67-1.52zM34.423 26.044a1.584 1.584 0 011.459.996 1.606 1.606 0 01-.354 1.737 1.587 1.587 0 01-2.709-1.135c.004-.425.174-.831.475-1.13a1.6 1.6 0 011.129-.468z" fill="#00C0FF"/><path d="M40.472 71.185a3.202 3.202 0 003.194-3.21c0-1.773-1.43-3.21-3.194-3.21a3.202 3.202 0 00-3.193 3.21c0 1.773 1.43 3.21 3.193 3.21z" fill="#264C96"/><path fill-rule="evenodd" clip-rule="evenodd" d="M17.527 15.636a5.17 5.17 0 012.885.88 5.213 5.213 0 011.912 2.345 5.244 5.244 0 01-1.132 5.688 5.167 5.167 0 01-5.662 1.122 5.197 5.197 0 01-2.326-1.928 5.238 5.238 0 01-.869-2.903 5.227 5.227 0 011.522-3.685 5.175 5.175 0 013.67-1.52z" fill="#0A70A6"/><path fill-rule="evenodd" clip-rule="evenodd" d="M25.883 12.426c.632 0 1.25.188 1.774.54a3.21 3.21 0 011.177 1.441 3.226 3.226 0 01-.693 3.499 3.188 3.188 0 01-3.48.696 3.198 3.198 0 01-1.433-1.183 3.222 3.222 0 01.397-4.053 3.185 3.185 0 012.258-.94z" fill="#80E2FF"/><path d="M40.472 71.185a3.202 3.202 0 003.194-3.21c0-1.773-1.43-3.21-3.194-3.21a3.202 3.202 0 00-3.193 3.21c0 1.773 1.43 3.21 3.193 3.21z" fill="#0A70A6"/><path fill-rule="evenodd" clip-rule="evenodd" d="M41.598 21.25c.787.003 1.555.24 2.208.681a3.998 3.998 0 011.46 1.8 4.021 4.021 0 01-.872 4.356 3.962 3.962 0 01-4.337.861 3.987 3.987 0 01-1.785-1.474 4.018 4.018 0 01.501-5.057 3.98 3.98 0 012.825-1.167z" fill="#0A70A6"/><path fill-rule="evenodd" clip-rule="evenodd" d="M97.323 24.446c.79 0 1.563.236 2.22.677a4.032 4.032 0 01.605 6.18 3.987 3.987 0 01-4.354.87 4 4 0 01-1.793-1.48 4.031 4.031 0 01.497-5.07 3.993 3.993 0 012.825-1.177z" fill="#80E2FF"/><path fill-rule="evenodd" clip-rule="evenodd" d="M102.894 22.848a1.598 1.598 0 011.493.989 1.621 1.621 0 01-.345 1.764 1.6 1.6 0 01-2.473-.254 1.619 1.619 0 01.205-2.027 1.6 1.6 0 011.12-.472z" fill="#0A70A6"/><path fill-rule="evenodd" clip-rule="evenodd" d="M196.407 18.832a5.17 5.17 0 012.888.872 5.209 5.209 0 011.918 2.34 5.242 5.242 0 01-1.116 5.691 5.166 5.166 0 01-5.659 1.138 5.194 5.194 0 01-2.332-1.922 5.238 5.238 0 01.639-6.586 5.18 5.18 0 013.662-1.533z" fill="#80E2FF"/><path fill-rule="evenodd" clip-rule="evenodd" d="M185.645 26.044c.632 0 1.25.189 1.775.542a3.21 3.21 0 011.356 3.3 3.213 3.213 0 01-.878 1.643 3.187 3.187 0 01-3.485.687 3.215 3.215 0 01-1.962-2.976 3.218 3.218 0 01.941-2.26 3.183 3.183 0 012.253-.936z" fill="#00C0FF"/><path fill-rule="evenodd" clip-rule="evenodd" d="M183.253 14.83a3.98 3.98 0 012.212.69 4.014 4.014 0 011.459 1.809 4.04 4.04 0 01.216 2.318 4.019 4.019 0 01-1.1 2.049 3.974 3.974 0 01-4.35.858 3.999 3.999 0 01-1.789-1.48 4.038 4.038 0 01-.365-3.771 4.026 4.026 0 012.179-2.176 3.98 3.98 0 011.538-.297z" fill="#0A70A6"/><path d="M172.252 68.37a3.202 3.202 0 003.193-3.21c0-1.773-1.43-3.21-3.193-3.21a3.202 3.202 0 00-3.194 3.21c0 1.773 1.43 3.21 3.194 3.21z" fill="#00C0FF"/><path fill-rule="evenodd" clip-rule="evenodd" d="M177.049 60.352a1.612 1.612 0 011.572 1.932 1.612 1.612 0 01-1.268 1.263 1.597 1.597 0 01-1.644-.697 1.613 1.613 0 011.34-2.498z" fill="#80E2FF"/><path d="M106.088 35.675a3.201 3.201 0 003.193-3.21 3.201 3.201 0 00-3.193-3.21 3.202 3.202 0 00-3.194 3.21c0 1.772 1.43 3.21 3.194 3.21z" fill="#00C0FF"/></g><defs><clipPath id="clip0_217_727"><path fill="#fff" d="M0 0h214v84H0z"/></clipPath><filter id="filter0_d_217_727" x="-2" y="-2" width="217.94" height="88.003" filterUnits="userSpaceOnUse" color-interpolation-filters="sRGB"><feFlood flood-opacity="0" result="BackgroundImageFix"/><feColorMatrix in="SourceAlpha" values="0 0 0 0 0 0 0 0 0 0 0 0 0 0 0 0 0 0 127 0" result="hardAlpha"/><feOffset/><feGaussianBlur stdDeviation="2"/><feComposite in2="hardAlpha" operator="out"/><feColorMatrix values="0 0 0 0 0 0 0 0 0 0 0 0 0 0 0 0 0 0 0.25 0"/><feBlend in2="BackgroundImageFix" result="effect1_dropShadow_217_727"/><feBlend in="SourceGraphic" in2="effect1_dropShadow_217_727" result="shape"/></filter></defs></svg>