<svg width="126" height="74" fill="none" xmlns="http://www.w3.org/2000/svg"><g filter="url(#filter0_d_226_762)" fill-rule="evenodd" clip-rule="evenodd" clip-path="url(#clip0_226_762)"><path d="M96.902 19.2a18.84 18.84 0 0110.86-3.09 14.673 14.673 0 0112.41 6 20.07 20.07 0 013.47 11.89l.06 16.52a16.47 16.47 0 01-1.76 7.22 17.196 17.196 0 01-5.34 6.41 15.388 15.388 0 01-9.29 2.95c-4.8 0-9.57-1.26-12.8-5a17.6 17.6 0 01-4.17-9c0-.14 0-.29-.07-.45a17 17 0 01-7.37 1.57 17.438 17.438 0 01-7.25-1.46V53a9 9 0 01-2.79 6.69 8.77 8.77 0 01-6 2.45h-.16l-3.18-.14h-.45a9.15 9.15 0 01-4.13-1c-.26-.13-.51-.27-.76-.42a8.928 8.928 0 01-4.37 1.55c-.71.072-1.425.106-2.14.1h-.3l-.55.06a9.163 9.163 0 01-1.38.11c-.01.879-.11 1.753-.3 2.61a7.92 7.92 0 01-7.62 6.16h-4.05c-.183.01-.367.01-.55 0-4.73 0-8-3.83-8-8.43v-2.11l-.12.06a16.23 16.23 0 01-7.57 2h-9.4a10.12 10.12 0 01-6.5-2.07 9.09 9.09 0 01-3.33-7.23V19a8.33 8.33 0 018.49-8.49h6.07c2.252.09 4.484.45 6.65 1.07a19.66 19.66 0 017.9 4.28 13.54 13.54 0 013.75 5.45 8.275 8.275 0 012.14-.31c.502.003 1.003.04 1.5.11h.07c.71 0 1.46.05 2.2.1v-.51a8.43 8.43 0 012.07-5.7 8.271 8.271 0 016.29-2.73h.13l3.3.06h.94a9.191 9.191 0 013.58 1.08c.22.12.45.26.66.4a9.1 9.1 0 014.93-1.63h.19c1.16 0 2.42-.06 3.57-.19h.45a14.204 14.204 0 012.12-3.54 16.32 16.32 0 017.18-5.27A18 18 0 0182.112 2a15.46 15.46 0 018 2.14 16.099 16.099 0 015.15 4.76c.27.4.55.83.84 1.23a8.18 8.18 0 011.84 5.18 7.7 7.7 0 01-1.04 3.89z" fill="#fff"/><path d="M42.072 61.9V51.37c0-12.726.04-20.043.12-21.95 0-.49-.21-.73-.62-.73l-3-.17a6.299 6.299 0 01-1-.06 5.323 5.323 0 00-.59-.05c-.34 0-.53.12-.59.36a15.17 15.17 0 00-.14 2v32.08c0 .71.22 1.06.67 1.06h4.48a.54.54 0 00.56-.48 6.76 6.76 0 00.11-1.53z" fill="#3C3"/><path d="M29.112 50.64a10.17 10.17 0 001.54-5.71v-2.69a7.998 7.998 0 00-.95-3.61 11.098 11.098 0 00-2.61-3.33 10 10 0 00-3.55-2.07 5.4 5.4 0 002.1-1 7.178 7.178 0 002-2.27 6.62 6.62 0 00.81-3.33 6.65 6.65 0 00-2.18-5.24 12.34 12.34 0 00-5-2.69 21.38 21.38 0 00-4.9-.81h-5.88A1 1 0 009.372 19v34.39a1.85 1.85 0 00.56 1.51 3.08 3.08 0 001.9.45h9.36a9 9 0 004.14-1.18 10.159 10.159 0 003.78-3.53zm-5.49-3.47a6.2 6.2 0 01-2.21 1.88 5.44 5.44 0 01-2.35.64l-2.91.06c-.34 0-.53 0-.56-.06a36.78 36.78 0 01-.17-5.69 50.788 50.788 0 01.17-6.67 2 2 0 01.78-.11c.49 0 1 0 1.4.06.4.06.82.05 1.12.05a5.64 5.64 0 014 1.54 5 5 0 011.63 3.73v1.6a4.78 4.78 0 01-.93 3l.03-.03zm-5.77-16.55a7.064 7.064 0 01-2 .31h-.06c-.26 0-.39-.19-.39-.56v-1.29c.07-2.84.09-4.72.05-5.65a.62.62 0 01.12-.42.41.41 0 01.22-.17h.17a5.998 5.998 0 011.93.14c1.231.15 2.42.542 3.5 1.15a2.89 2.89 0 011.61 2.65 2.8 2.8 0 01-1.57 2.5 11.897 11.897 0 01-3.58 1.34z" fill="#F60"/><path d="M68.282 53.05c-.04-2.606-.04-9.586 0-20.94 0-3.63-.06-7.56-.06-11.82a1 1 0 00-.22-.76 1 1 0 00-.73-.14c-.71.08-2.07.15-4.09.23-.6 0-1 .12-1.06.25-.06.13-.15.49-.12 1.09.12 3.334.177 9.477.17 18.43a5.285 5.285 0 01-.11.78c-.52-1.053-1.753-3.983-3.7-8.79-1.947-4.806-3.38-8.41-4.3-10.81a1 1 0 00-.48-.59 1.779 1.779 0 00-.7-.22h-.45l-3.3-.06a1 1 0 00-.78.25 1.22 1.22 0 00-.23.82v20.16c0 6.127-.04 10.354-.12 12.68a2 2 0 00.17.5 2 2 0 00.56.73 1.06 1.06 0 00.95.23l1-.12c.39 0 .7-.05.92-.05.488.01.975-.01 1.46-.06a1.6 1.6 0 00.92-.28 1.18 1.18 0 00.26-.89V37h.22l.34.62 3.64 8.74c1.787 4.294 2.83 6.757 3.13 7.39.145.29.38.526.67.67.26.139.547.214.84.22h.51l3.25.06a1.44 1.44 0 001-.45 1.63 1.63 0 00.44-1.2z" fill="#99F"/><path d="M90.002 43.42c1.534-2.24 2.3-5.356 2.3-9.35v-6.05a.998.998 0 00-.31-.79 1.32 1.32 0 00-.64-.33 3.057 3.057 0 00-.45-.06l-3.47-.05c-1.64-.04-3.06-.04-4.26 0-.71.07-1.06.43-1.06 1.06v2.35c.03.504.03 1.008 0 1.51v.17a.61.61 0 00.17.51c.191.088.4.126.61.11.9 0 2.15-.06 3.76-.06l.05 2.3a8.54 8.54 0 01-.84 4 2.91 2.91 0 01-2.74 1.88 3.29 3.29 0 01-2.72-1.23 6.58 6.58 0 01-1.29-2.66 11.79 11.79 0 01-.3-2.27V19.51a6.46 6.46 0 01.87-2.66 2.32 2.32 0 012.1-1.32 3.72 3.72 0 012.24.62 6.684 6.684 0 011.46 1.45c.41.56.69.8.84.73l1.4-.95a19.994 19.994 0 012.24-1.46c.33-.18.5-.39.5-.61a.75.75 0 00-.22-.56c-.15-.19-.55-.77-1.21-1.74a8.599 8.599 0 00-2.8-2.55 8 8 0 00-4.23-1.09 10.81 10.81 0 00-3.47.76 9 9 0 00-3.92 3 9.53 9.53 0 00-1.79 6.14l.18 15.41c.037 1.56.252 3.11.64 4.62a11.31 11.31 0 002.86 5.1 8.34 8.34 0 006.41 2.38c3.207 0 5.57-1.12 7.09-3.36z" fill="#00C0FF"/><path d="M115.292 54.53a9.19 9.19 0 001-4l-.02-16.53a12.756 12.756 0 00-2.1-7.59 7.338 7.338 0 00-6.41-2.94 10.84 10.84 0 00-7.56 2.53c-1.83 1.66-2.74 4.29-2.74 7.87l-.06 8.23c0 5.68.08 9 .23 9.86a10.271 10.271 0 002.49 5.32c1.4 1.64 3.797 2.46 7.19 2.46a7.999 7.999 0 004.9-1.51 9.741 9.741 0 003.08-3.67v-.03zm-8.42-.87c-2.24 0-3.493-1.493-3.76-4.48 0-.29-.07-2.35-.11-6.16-.04-3.81 0-6.86 0-9.18a5.543 5.543 0 011-3.5 3.679 3.679 0 013.1-1.26c2.36 0 3.53 1.53 3.53 4.59v15.57a5.659 5.659 0 01-.81 3.28 3.302 3.302 0 01-2.95 1.14z" fill="#FECA50"/></g><defs><clipPath id="clip0_226_762"><path fill="#fff" d="M0 0h125.7v73.56H0z"/></clipPath><filter id="filter0_d_226_762" x="-1" y="-1" width="127.702" height="75.178" filterUnits="userSpaceOnUse" color-interpolation-filters="sRGB"><feFlood flood-opacity="0" result="BackgroundImageFix"/><feColorMatrix in="SourceAlpha" values="0 0 0 0 0 0 0 0 0 0 0 0 0 0 0 0 0 0 127 0" result="hardAlpha"/><feOffset/><feGaussianBlur stdDeviation="1.5"/><feComposite in2="hardAlpha" operator="out"/><feColorMatrix values="0 0 0 0 0 0 0 0 0 0 0 0 0 0 0 0 0 0 0.15 0"/><feBlend in2="BackgroundImageFix" result="effect1_dropShadow_226_762"/><feBlend in="SourceGraphic" in2="effect1_dropShadow_226_762" result="shape"/></filter></defs></svg>