<svg width="133" height="37" fill="none" xmlns="http://www.w3.org/2000/svg"><path fill-rule="evenodd" clip-rule="evenodd" d="M15.925.478C9.085.811-3.316 5.174 1.79 19.961c5.107 14.786 19.455 17.484 25.99 16.984l92.105-3.996c5.855-.514 14.864-7.294 12.311-18.483C129.643 3.276 53.618.478 15.926.478zm48.25 17.877H60.8v1.28h1.9v2.352a7.276 7.276 0 01-1.555.181c-.962 0-1.7-.289-2.214-.867-.51-.583-.765-1.431-.765-2.547 0-1.06.285-1.897.853-2.509.569-.611 1.342-.917 2.32-.917.744 0 1.488.17 2.233.511l.526-1.242a6.853 6.853 0 00-2.721-.549c-1.488 0-2.657.416-3.505 1.248-.849.829-1.273 1.977-1.273 3.446 0 1.49.376 2.644 1.128 3.464.753.815 1.823 1.223 3.211 1.223.59 0 1.137-.037 1.643-.112a9.774 9.774 0 001.593-.38v-4.582zm-19.17 4.95H39.82v-9.126h5.185v1.261h-3.687v2.484h3.455v1.248h-3.455v2.865h3.687v1.267zm9.626 0h-1.837l-4.51-7.272h-.05l.032.406c.059.774.088 1.481.088 2.122v4.743h-1.36V14.18h1.818l4.496 7.234h.037a41.854 41.854 0 01-.05-1.042 36.15 36.15 0 01-.038-1.41V14.18h1.374v9.125zm11.75-9.126h1.5v7.846h3.881v1.28h-5.38v-9.126zm8.46 0h-1.499v9.125h1.499V14.18zm7.713 6.647c0 .812-.295 1.448-.885 1.91-.589.462-1.402.693-2.439.693-1.037 0-1.885-.16-2.546-.48v-1.411c.419.196.862.35 1.33.462.472.112.911.168 1.317.168.593 0 1.03-.112 1.31-.337.284-.224.427-.526.427-.905 0-.34-.13-.63-.39-.867-.258-.237-.793-.518-1.605-.843-.836-.337-1.425-.722-1.768-1.155-.343-.432-.514-.952-.514-1.56 0-.761.272-1.36.815-1.797.544-.437 1.273-.656 2.189-.656.877 0 1.751.192 2.62.574l-.476 1.217c-.815-.34-1.542-.511-2.182-.511-.485 0-.853.106-1.104.318-.25.208-.376.485-.376.83 0 .237.05.441.15.612.101.166.266.324.496.474.23.15.644.348 1.242.593.673.279 1.166.539 1.48.78.313.242.543.514.69.818.146.304.219.662.219 1.073zm7.5 2.478h1.504V14.18h-1.505v3.733h-4.226V14.18h-1.499v9.125h1.499v-4.113h4.226v4.113z" fill="#BB2831"/></svg>