<svg width="40" height="40" fill="none" xmlns="http://www.w3.org/2000/svg"><circle cx="20" cy="20" r="20" fill="#fff"/><path d="M29.806 25.115c0-.083-.083-.083-.083-.166-.332-.664-1.08-1.494-2.076-2.407-.498-.416-.747-.748-.913-.914-.249-.332-.249-.58-.166-.913.083-.249.415-.664.996-1.411.332-.415.498-.664.748-.914 1.245-1.66 1.826-2.74 1.66-3.238l-.083-.082c-.083-.084-.166-.167-.332-.167-.166-.083-.415-.083-.664 0h-3.736l-.083.083c-.083.083-.083.083-.083.166-.332.914-.747 1.661-1.163 2.491-.249.415-.498.83-.747 1.162-.249.333-.415.582-.581.748-.166.166-.332.249-.415.415-.083.083-.25.166-.25.083-.082 0-.165 0-.165-.083l-.25-.25c-.082-.082-.082-.248-.165-.414v-4.151c0-.084-.083-.25-.083-.333l-.25-.249c-.082-.083-.248-.083-.332-.166a7.449 7.449 0 00-1.494-.166c-1.328 0-2.242.083-2.574.25-.166.082-.332.165-.415.331-.166.166-.166.25-.083.25.415.082.747.248.913.498l.083.166c.084.083.084.249.166.498.084.249.084.498.084.83v1.328c0 .415-.084.665-.084.914s-.082.415-.166.498c-.082.166-.082.249-.166.249 0 0 0 .083-.083.083s-.166.083-.332.083c-.083 0-.249-.083-.332-.166a1 1 0 01-.415-.415c-.166-.166-.332-.415-.498-.747-.166-.333-.415-.665-.581-1.163l-.166-.332c-.083-.166-.25-.498-.415-.913-.166-.415-.332-.747-.498-1.162-.084-.167-.167-.25-.25-.333h-.083s-.083-.083-.166-.083-.166-.083-.249-.083H9.797c-.332 0-.498.083-.58.166l-.084.083v.166c0 .084 0 .167.083.333.415.996.914 1.992 1.412 2.988.498.914.996 1.744 1.328 2.325.415.581.747 1.162 1.162 1.66.415.499.665.83.748.997l.332.332.249.249c.166.166.415.415.747.664.332.25.747.498 1.162.747.415.25.914.415 1.412.581.58.167 1.079.25 1.577.167h1.245a.753.753 0 00.582-.25l.083-.082c0-.084.083-.084.083-.167v-.332c0-.332 0-.58.083-.83.083-.249.083-.415.166-.581.083-.166.166-.25.249-.332l.166-.166h.083c.166-.083.415 0 .581.166.25.166.498.415.664.664.166.25.415.498.747.83.332.332.582.581.748.665l.249.166c.166.082.332.166.58.249.25.083.416.083.582.083l2.823-.083c.249 0 .498-.083.664-.166.166-.083.249-.166.249-.333v-.332c-.166-.166-.166-.249-.166-.332z" fill="#BB2831"/></svg>