<svg width="226" height="274" fill="none" xmlns="http://www.w3.org/2000/svg"><path d="M223.742 149.41s-2.207-15.503-8.984-22.332c-8.592-8.959-18.227-9.004-22.645-9.53-31.625-2.275-79.062-2.275-79.062-2.275h-.098s-47.441 0-79.066 2.275c-4.418.526-14.048.571-22.645 9.53-6.775 6.829-8.98 22.332-8.98 22.332S0 167.614 0 185.82v17.069c0 18.205 2.262 36.412 2.262 36.412s2.205 15.501 8.98 22.331c8.597 8.962 19.892 8.676 24.92 9.615 18.08 1.729 76.836 2.262 76.836 2.262s47.49-.071 79.115-2.346c4.417-.526 14.051-.569 22.643-9.531 6.777-6.83 8.984-22.331 8.984-22.331s2.26-18.207 2.26-36.412V185.82c0-18.206-2.26-36.411-2.26-36.411M184 102.172h-14.379v-8.325c-5.452 6.249-10.074 9.404-15.112 9.404-4.418 0-7.49-2.083-9.025-5.852-.933-2.29-1.595-5.867-1.595-11.12V25.732h14.377v62.061c.336 2.12 1.241 2.9 3.066 2.9 2.753 0 5.243-2.392 8.289-6.687V25.732H184v76.44zm-65.088-22.706c.755 7.569-1.593 11.323-6.057 11.323-4.465 0-6.811-3.754-6.052-11.323V49.191c-.759-7.568 1.587-11.115 6.052-11.115 4.466 0 6.82 3.547 6.064 11.115l-.008 30.275h.001zm14.379-28.76c0-8.168-1.641-14.303-4.541-18.164-3.833-5.23-9.838-7.371-15.895-7.371-6.851 0-12.069 2.14-15.894 7.371-2.947 3.86-4.528 10.061-4.528 18.229l-.012 27.18c0 8.123 1.406 13.735 4.35 17.56 3.828 5.212 10.032 7.972 16.084 7.972 6.056 0 12.366-2.76 16.199-7.973 2.899-3.824 4.236-9.436 4.236-17.558V50.706h.001zm-56.762 9.838v41.627H61.39V60.544S45.707 9.514 42.471 0h15.892l10.623 39.864L79.555 0h15.893l-18.92 60.544z" fill="#fff"/><path d="M179.812 188.049c0-7.075 1.94-9.005 6.515-9.005 4.543 0 6.351 2.106 6.351 9.099v8.261l-12.866.015v-8.37zm27.272 19.708l-.002-15.471c0-8.082-1.593-13.997-4.46-17.822-3.837-5.175-9.292-7.915-16.166-7.915-6.997 0-12.453 2.74-16.414 7.915-2.912 3.825-4.608 10.071-4.608 18.158v26.488c0 8.036 1.866 13.661 4.775 17.445 3.964 5.167 9.419 7.748 16.586 7.748 7.159 0 12.781-2.705 16.571-8.199 1.668-2.423 2.742-5.172 3.205-8.208.124-1.372.485-4.499.485-8.913v-2.144h-14.379c0 5.496.028 8.765-.101 9.51-.783 3.666-2.748 5.499-6.12 5.499-4.704 0-6.694-3.516-6.644-10.499v-13.592h27.272zm-65.115 13.623c0 7.569-1.785 10.471-5.736 10.471-2.254 0-4.853-1.161-7.146-3.453l.015-45.9c2.29-2.26 4.877-3.451 7.131-3.451 3.951 0 5.736 2.222 5.736 9.791v32.542zm1.596-54.947c-5.041 0-10.051 3.1-14.478 8.547l.015-33.068h-13.623V243.33h13.623l.021-7.621c4.577 5.665 9.57 8.594 14.442 8.594 5.455 0 9.442-2.919 11.272-8.544.912-3.205 1.511-8.14 1.511-15.135v-30.271c0-7.165-.918-12.064-1.832-15.105-1.828-5.662-5.496-8.815-10.951-8.815zm-39.436 76.895H89.753v-8.325c-5.455 6.249-10.073 9.404-15.111 9.404-4.42 0-7.49-2.083-9.025-5.852-.936-2.291-1.598-5.867-1.598-11.12v-59.789h14.379v61.303c.336 2.121 1.238 2.899 3.066 2.899 2.753 0 5.243-2.391 8.29-6.686v-57.516h14.376v75.682h-.001z" fill="#BB2831"/><path d="M49.635 243.328H34.501V156.29H18.608v-14.36l47.68-.018v14.379H49.634v87.037z" fill="#BB2831"/></svg>