<svg width="50" height="50" fill="none" xmlns="http://www.w3.org/2000/svg"><circle cx="25" cy="25" r="24" fill="#fff" stroke="#BB2831" stroke-width="2"/><path d="M35.207 29.91v3.199a2.13 2.13 0 01-2.324 2.132 21.102 21.102 0 01-9.203-3.273 20.794 20.794 0 01-6.398-6.398 21.103 21.103 0 01-3.273-9.245A2.132 2.132 0 0116.13 14h3.199a2.133 2.133 0 012.132 1.834c.135 1.024.386 2.03.747 2.997a2.133 2.133 0 01-.48 2.25l-1.354 1.354a17.061 17.061 0 006.398 6.398l1.354-1.354a2.133 2.133 0 012.25-.48c.967.36 1.972.611 2.996.746a2.132 2.132 0 011.834 2.165z" fill="#BB2831"/></svg>