<svg width="20" height="20" fill="none" xmlns="http://www.w3.org/2000/svg"><path d="M0 14.375a.625.625 0 01.625-.625h2.5a.625.625 0 01.625.625v2.5a.625.625 0 01-.625.625h-2.5A.625.625 0 010 16.875v-2.5zm5-3.75A.625.625 0 015.625 10h2.5a.625.625 0 01.625.625v6.25a.625.625 0 01-.625.625h-2.5A.625.625 0 015 16.875v-6.25zm5-3.75a.625.625 0 01.625-.625h2.5a.625.625 0 01.625.625v10a.624.624 0 01-.625.625h-2.5a.624.624 0 01-.625-.625v-10zm5-3.75a.625.625 0 01.625-.625h2.5a.625.625 0 01.625.625v13.75a.624.624 0 01-.625.625h-2.5a.624.624 0 01-.625-.625V3.125z" fill="#031E65"/></svg>