<svg width="20" height="20" fill="none" xmlns="http://www.w3.org/2000/svg"><path fill-rule="evenodd" clip-rule="evenodd" d="M2.5 3.125a.625.625 0 00-.625.625V5a.625.625 0 00.625.625h1.25A.625.625 0 004.375 5V3.75a.625.625 0 00-.625-.625H2.5zm1.25.625H2.5V5h1.25V3.75z" fill="#031E65"/><path d="M6.25 4.375a.625.625 0 01.625-.625h11.25a.625.625 0 110 1.25H6.875a.625.625 0 01-.625-.625zm.625 4.375a.625.625 0 000 1.25h11.25a.625.625 0 100-1.25H6.875zm0 5a.625.625 0 100 1.25h11.25a.624.624 0 100-1.25H6.875z" fill="#031E65"/><path fill-rule="evenodd" clip-rule="evenodd" d="M1.875 8.75a.625.625 0 01.625-.625h1.25a.625.625 0 01.625.625V10a.625.625 0 01-.625.625H2.5A.625.625 0 011.875 10V8.75zm.625 0h1.25V10H2.5V8.75zm0 4.375a.625.625 0 00-.625.625V15a.625.625 0 00.625.625h1.25A.625.625 0 004.375 15v-1.25a.625.625 0 00-.625-.625H2.5zm1.25.625H2.5V15h1.25v-1.25z" fill="#031E65"/></svg>