<svg width="84" height="84" fill="none" xmlns="http://www.w3.org/2000/svg"><rect width="84" height="84" rx="42" fill="#031E65"/><g clip-path="url(#clip0_130_32)"><path fill-rule="evenodd" clip-rule="evenodd" d="M42.58 25.63a1.375 1.375 0 00-1.16 0l-20.625 9.624a1.375 1.375 0 00.068 2.522l20.626 8.25a1.38 1.38 0 001.023 0L58.5 39.635V55.75a2.75 2.75 0 00-2.75 2.75V64H64v-5.5a2.75 2.75 0 00-2.75-2.75V38.532l1.886-.756a1.375 1.375 0 00.07-2.522L42.58 25.63zM42 43.264l-17.166-6.861L42 28.393l17.166 8.01L42 43.266zm-10.516 1.567a1.375 1.375 0 00-1.804.902l-1.375 4.675a1.375 1.375 0 00.808 1.664l12.376 4.95a1.37 1.37 0 001.023 0l12.374-4.95a1.375 1.375 0 00.809-1.664l-1.375-4.675a1.375 1.375 0 00-1.804-.899L42 48.781l-10.516-3.943v-.006zm-.187 5.154l.605-2.057 9.614 3.605c.312.117.656.117.968 0l9.614-3.605.605 2.057L42 54.265l-10.703-4.28z" fill="#fff"/></g><defs><clipPath id="clip0_130_32"><path fill="#fff" transform="translate(20 20)" d="M0 0h44v44H0z"/></clipPath></defs></svg>