<svg width="84" height="84" fill="none" xmlns="http://www.w3.org/2000/svg"><rect width="84" height="84" rx="42" fill="#031E65"/><path d="M35.125 39.25a1.375 1.375 0 000 2.75h13.75a1.375 1.375 0 000-2.75h-13.75zm-1.375 6.875a1.375 1.375 0 011.375-1.375h13.75a1.375 1.375 0 010 2.75h-13.75a1.375 1.375 0 01-1.375-1.375zm0 5.5a1.375 1.375 0 011.375-1.375h5.5a1.375 1.375 0 010 2.75h-5.5a1.375 1.375 0 01-1.375-1.375z" fill="#fff"/><path d="M46.125 20H31a5.5 5.5 0 00-5.5 5.5v33A5.5 5.5 0 0031 64h22a5.5 5.5 0 005.5-5.5V32.375L46.125 20zm0 2.75v5.5a4.125 4.125 0 004.125 4.125h5.5V58.5A2.75 2.75 0 0153 61.25H31a2.75 2.75 0 01-2.75-2.75v-33A2.75 2.75 0 0131 22.75h15.125z" fill="#fff"/></svg>