<svg width="240" height="54" fill="none" xmlns="http://www.w3.org/2000/svg"><path d="M75.268 8.59A9.636 9.636 0 0072.8 4.3a9.548 9.548 0 00-4.263-2.484C62.634.196 38.878.196 38.878.196S15.122.246 9.22 1.866A9.547 9.547 0 004.956 4.35a9.636 9.636 0 00-2.468 4.29C.702 19.195.01 35.277 2.537 45.409a9.636 9.636 0 002.468 4.29 9.548 9.548 0 004.263 2.485c5.903 1.62 29.659 1.62 29.659 1.62s23.756 0 29.658-1.62a9.548 9.548 0 004.264-2.485 9.637 9.637 0 002.468-4.29c1.883-10.57 2.464-26.642-.049-36.818z" fill="#fff"/><path d="M31.317 38.487L51.024 27 31.317 15.513v22.974z" fill="#BB2831"/><path d="M111.171 48.944c-1.513-1.031-2.586-2.602-3.22-4.762-.634-2.16-.927-5.008-.927-8.591v-4.86c0-3.584.342-6.53 1.073-8.69.732-2.208 1.854-3.78 3.415-4.761 1.561-.982 3.561-1.522 6.049-1.522 2.439 0 4.439.491 5.902 1.522 1.464 1.03 2.586 2.602 3.269 4.762.683 2.16 1.024 5.056 1.024 8.64v4.86c0 3.583-.341 6.43-1.024 8.59s-1.756 3.732-3.269 4.763c-1.512.981-3.561 1.521-6.097 1.521-2.634.05-4.683-.49-6.195-1.472zm8.439-5.253c.439-1.08.634-2.897.634-5.351V27.884c0-2.406-.195-4.173-.634-5.253-.439-1.13-1.171-1.67-2.195-1.67-1.025 0-1.708.54-2.147 1.67-.439 1.129-.634 2.847-.634 5.253V38.34c0 2.454.195 4.27.585 5.35.391 1.08 1.122 1.62 2.196 1.62 1.024 0 1.756-.54 2.195-1.62zm106.926-8.002v1.718l.196 4.86c.146 1.08.39 1.866.78 2.357.39.49 1.024.736 1.854.736 1.122 0 1.902-.442 2.292-1.325.439-.884.635-2.357.683-4.37l6.488.393c.049.295.049.687.049 1.178 0 3.093-.829 5.4-2.537 6.922-1.707 1.522-4.048 2.307-7.122 2.307-3.707 0-6.292-1.178-7.756-3.485-1.463-2.307-2.244-5.94-2.244-10.8v-5.94c.166-8.345 1.625-14.457 10.196-14.482 2.585 0 4.536.491 5.902 1.424 1.366.933 2.341 2.405 2.927 4.418.585 2.013.829 4.762.829 8.296v5.744h-12.537v.049zm.976-14.138c-.39.49-.634 1.227-.78 2.307-.147 1.08-.196 4.91-.196 4.91v2.405H232v-2.406c0 2.406-.049-3.78-.195-4.909-.147-1.129-.39-1.914-.781-2.356-.39-.442-.975-.688-1.756-.688-.829.05-1.414.295-1.756.737zM92.927 35.05L84.39 4.025h7.464s3.487 15.562 4.683 22.877h.195c1.356-7.766 4.78-22.877 4.78-22.877h7.463l-8.634 30.977v14.874h-7.365V35.051h-.05zm59.024-18.654v33.53h-5.853l-.635-4.125h-.146c-1.61 3.093-4 4.664-7.171 4.664-5.741-.015-6.38-4.909-6.439-9.033V16.396h7.512V40.99c0 1.473.147 2.553.488 3.191.693 1.365 2.488 1.017 3.464.344a3.924 3.924 0 001.317-1.522V16.396h7.463zm38 0v33.53h-5.854l-.634-4.125h-.146c-1.61 3.093-4 4.664-7.171 4.664-5.741-.015-6.38-4.909-6.439-9.033V16.396h7.512V40.99c0 1.473.147 2.553.488 3.191.693 1.365 2.488 1.017 3.463.344a3.918 3.918 0 001.318-1.522V16.396h7.463z" fill="#fff"/><path d="M172.341 10.113h-7.463v39.812h-7.317V10.113h-7.464V4.025h22.196v6.088h.048zm42.878 11.634c-.439-2.11-1.17-3.633-2.195-4.614-1.024-.933-2.39-1.424-4.195-1.424a6.85 6.85 0 00-3.854 1.178c-1.219.786-2.097 1.816-2.78 3.093h-.049V2.307h-7.219v47.57h6.195l.78-3.192h.147a6.848 6.848 0 002.585 2.7 7.894 7.894 0 003.854.982c2.536 0 4.39-1.178 5.609-3.534 1.171-2.357 1.805-6.039 1.805-10.997v-5.302c0-3.73-.244-6.676-.683-8.787zm-6.878 13.697c0 2.454-.097 4.369-.292 5.743-.196 1.375-.537 2.357-1.025 2.946-.488.589-1.122.883-1.902.883-1.512-.049-2.371-.736-2.976-1.767V24.202c.244-.933.683-1.67 1.317-2.259 1.073-1.212 2.908-1.227 3.756 0 .439.59.683 1.62.878 3.044.147 1.424.244 3.437.244 6.087v4.37z" fill="#fff"/></svg>