<svg width="84" height="84" fill="none" xmlns="http://www.w3.org/2000/svg"><rect width="84" height="84" rx="42" fill="#031E65"/><path d="M20 51.625a1.375 1.375 0 011.375-1.375h5.5a1.375 1.375 0 011.375 1.375v5.5a1.375 1.375 0 01-1.375 1.375h-5.5A1.375 1.375 0 0120 57.125v-5.5zm11-8.25A1.375 1.375 0 0132.375 42h5.5a1.375 1.375 0 011.375 1.375v13.75a1.375 1.375 0 01-1.375 1.375h-5.5A1.375 1.375 0 0131 57.125v-13.75zm11-8.25a1.375 1.375 0 011.375-1.375h5.5a1.375 1.375 0 011.375 1.375v22a1.375 1.375 0 01-1.375 1.375h-5.5A1.375 1.375 0 0142 57.125v-22zm11-8.25a1.375 1.375 0 011.375-1.375h5.5a1.375 1.375 0 011.375 1.375v30.25a1.375 1.375 0 01-1.375 1.375h-5.5A1.375 1.375 0 0153 57.125v-30.25z" fill="#fff"/></svg>