<svg width="84" height="84" fill="none" xmlns="http://www.w3.org/2000/svg"><rect width="84" height="84" rx="42" fill="#031E65"/><path d="M61.25 58.5s2.75 0 2.75-2.75-2.75-11-13.75-11S36.5 53 36.5 55.75s2.75 2.75 2.75 2.75h22zm-21.94-2.75a.73.73 0 01-.06-.011c.003-.726.46-2.832 2.09-4.73 1.518-1.78 4.185-3.509 8.91-3.509 4.722 0 7.39 1.733 8.91 3.509 1.63 1.898 2.085 4.007 2.09 4.73l-.022.006a.713.713 0 01-.038.005H39.31zm10.94-16.5a5.5 5.5 0 100-11 5.5 5.5 0 000 11zm8.25-5.5a8.25 8.25 0 11-16.5 0 8.25 8.25 0 0116.5 0zM39.074 45.52a16.174 16.174 0 00-3.383-.68 20.234 20.234 0 00-1.941-.09c-11 0-13.75 8.25-13.75 11 0 1.834.916 2.75 2.75 2.75h11.594a6.154 6.154 0 01-.594-2.75c0-2.778 1.037-5.615 2.998-7.986a14.551 14.551 0 012.326-2.244zM33.53 47.5A15.105 15.105 0 0031 55.75h-8.25c0-.715.451-2.833 2.09-4.741 1.499-1.749 4.103-3.454 8.69-3.506V47.5zm-9.405-12.375a8.25 8.25 0 1116.5 0 8.25 8.25 0 01-16.5 0zm8.25-5.5a5.5 5.5 0 100 11 5.5 5.5 0 000-11z" fill="#fff"/></svg>