<svg width="20" height="21" fill="none" xmlns="http://www.w3.org/2000/svg"><ellipse cx="10" cy="10.518" rx="10" ry="10.076" fill="#2F89CE"/><path d="M4.675 10.706l2.3.864.896 2.905c.039.197.272.236.428.118l1.286-1.06c.117-.118.312-.118.468 0l2.299 1.688c.156.118.39.04.428-.157l1.715-8.245c.039-.196-.156-.393-.35-.314l-9.47 3.69c-.233.08-.233.432 0 .511zm3.079.432l4.52-2.788c.078-.04.156.079.078.118L8.65 11.962c-.117.118-.234.275-.234.472l-.117.942c0 .118-.195.157-.234 0l-.467-1.728c-.117-.196-.04-.432.156-.51z" fill="#fff"/></svg>