<svg width="20" height="21" fill="none" xmlns="http://www.w3.org/2000/svg"><ellipse cx="10" cy="10.518" rx="10" ry="10.076" fill="#7C509A"/><path d="M13.127 5.755a15.377 15.377 0 00-5.79 0c-.844.183-1.906 1.21-2.09 2.016-.33 1.577-.33 3.19 0 4.768.22.806 1.283 1.833 2.09 2.017.036 0 .073.036.073.073v2.31c0 .11.146.184.22.074l1.1-1.137s.879-.917 1.025-1.064c0 0 .037-.036.074-.036 1.099.036 2.235-.074 3.335-.257.843-.183 1.905-1.21 2.089-2.017a11.6 11.6 0 000-4.767c-.22-.77-1.283-1.797-2.126-1.98zm.037 6.894c-.184.366-.403.66-.77.843l-.33.11a4.679 4.679 0 01-.366-.11c-1.173-.477-2.273-1.137-3.152-2.09a8.826 8.826 0 01-1.21-1.834c-.146-.33-.293-.623-.403-.953-.11-.293.074-.587.257-.807.183-.22.403-.367.66-.477.183-.11.366-.036.513.11.293.367.586.734.806 1.137.146.257.11.55-.147.734-.073.036-.11.073-.183.146-.037.037-.11.074-.147.147a.357.357 0 00-.036.33c.293.843.843 1.504 1.686 1.87a.87.87 0 00.44.11c.256-.036.366-.33.55-.476.182-.147.402-.147.622-.037.183.11.367.257.587.403.183.147.366.257.55.404.11.073.146.256.073.44zm-1.54-2.75c-.073 0-.036 0 0 0-.146 0-.183-.074-.22-.184 0-.073 0-.183-.036-.257a.697.697 0 00-.257-.403l-.22-.11c-.11-.037-.183-.037-.293-.037-.11-.036-.146-.11-.146-.22 0-.073.11-.146.183-.146.586.036 1.026.366 1.1 1.063v.147c0 .073-.037.146-.11.146zm-.366-1.614a2.735 2.735 0 00-.586-.184c-.074 0-.184-.036-.257-.036-.11 0-.183-.074-.147-.184 0-.11.074-.183.184-.146.366.036.696.11 1.026.256.66.33 1.026.88 1.136 1.614v.477c-.037.146-.293.183-.33 0 0-.037-.037-.11-.037-.147 0-.33-.073-.66-.22-.953a1.97 1.97 0 00-.77-.697zm1.979 2.2c-.11 0-.183-.11-.183-.22 0-.22-.037-.44-.074-.66-.146-1.173-1.1-2.127-2.235-2.31-.183-.037-.367-.037-.513-.074-.11 0-.257 0-.294-.146-.036-.11.074-.22.184-.22h.073c1.503.036.073 0 0 0 1.54.036 2.822 1.063 3.079 2.603.036.257.073.514.073.807.073.11 0 .22-.11.22z" fill="#fff"/></svg>