<svg width="40" height="40" fill="none" xmlns="http://www.w3.org/2000/svg"><circle cx="20" cy="20" r="20" fill="#BB2831"/><path d="M29.806 25.116c0-.084-.083-.084-.083-.167-.332-.664-1.08-1.494-2.076-2.407-.498-.415-.747-.748-.913-.914-.249-.332-.249-.58-.166-.913.083-.249.415-.664.996-1.411.332-.415.498-.664.748-.913 1.245-1.66 1.826-2.74 1.66-3.238l-.083-.083c-.083-.083-.166-.166-.332-.166-.166-.083-.415-.083-.664 0h-3.736l-.083.083c-.083.083-.083.083-.083.166-.332.913-.747 1.66-1.163 2.49-.249.415-.498.83-.747 1.163-.249.332-.415.58-.581.747-.166.166-.332.249-.415.415-.083.083-.25.166-.25.083-.082 0-.165 0-.165-.083l-.25-.249c-.082-.083-.082-.25-.165-.415v-4.151c0-.083-.083-.25-.083-.332l-.25-.25c-.082-.082-.248-.082-.332-.165a7.449 7.449 0 00-1.494-.167c-1.328 0-2.242.083-2.574.25-.166.083-.332.166-.415.332-.166.166-.166.249-.083.249.415.083.747.249.913.498l.083.166c.084.083.084.249.166.498.084.25.084.498.084.83v1.329c0 .415-.084.664-.084.913s-.082.415-.166.498c-.082.166-.082.25-.166.25 0 0 0 .082-.083.082s-.166.083-.332.083c-.083 0-.249-.083-.332-.166a1 1 0 01-.415-.415c-.166-.166-.332-.415-.498-.747-.166-.332-.415-.664-.581-1.163l-.166-.332c-.083-.166-.25-.498-.415-.913-.166-.415-.332-.747-.498-1.162a1.145 1.145 0 00-.25-.332h-.083s-.083-.083-.166-.083-.166-.083-.249-.083H9.797c-.332 0-.498.083-.58.166l-.084.083v.166c0 .083 0 .166.083.332.415.996.914 1.992 1.412 2.989.498.913.996 1.743 1.328 2.324.415.581.747 1.163 1.162 1.66.415.499.665.831.748.997l.332.332.249.25c.166.165.415.414.747.663.332.25.747.498 1.162.748.415.249.914.415 1.412.58.58.167 1.079.25 1.577.167h1.245a.753.753 0 00.582-.25l.083-.082c0-.083.083-.083.083-.166v-.332c0-.332 0-.582.083-.83.083-.25.083-.416.166-.582.083-.166.166-.249.249-.332l.166-.166h.083c.166-.083.415 0 .581.166.25.166.498.415.664.664.166.25.415.498.747.83.332.333.582.582.748.665l.249.166c.166.083.332.166.58.249.25.083.416.083.582.083l2.823-.083c.249 0 .498-.083.664-.166.166-.083.249-.166.249-.332v-.332c-.166-.166-.166-.25-.166-.332z" fill="#fff"/></svg>