<svg width="114" height="114" fill="none" xmlns="http://www.w3.org/2000/svg"><path d="M107.065 30.495a13.202 13.202 0 00-9.215-9.5C89.68 19 57 19 57 19s-32.68 0-40.85 2.185a13.204 13.204 0 00-9.215 9.5A137.75 137.75 0 004.75 55.813 137.75 137.75 0 006.935 81.13a13.205 13.205 0 009.215 9.12C24.32 92.435 57 92.435 57 92.435s32.68 0 40.85-2.185a13.207 13.207 0 009.215-9.5 137.727 137.727 0 002.185-24.938 137.763 137.763 0 00-2.185-25.317z" fill="#EC3323"/><path d="M46.313 71.345l27.312-15.532L46.312 40.28v31.065z" fill="#fff"/></svg>